<?xml version="1.0" encoding="utf-8"?>
<svg xmlns="http://www.w3.org/2000/svg" xmlns:xlink="http://www.w3.org/1999/xlink" width="600" height="400" viewBox="0 0 2400 1600">
<defs>
  <clipPath id="clip200">
    <rect x="0" y="0" width="2400" height="1600"/>
  </clipPath>
</defs>
<path clip-path="url(#clip200)" d="
M0 1600 L2400 1600 L2400 0 L0 0  Z
  " fill="#ffffff" fill-rule="evenodd" fill-opacity="1"/>
<defs>
  <clipPath id="clip201">
    <rect x="480" y="0" width="1681" height="1600"/>
  </clipPath>
</defs>
<path clip-path="url(#clip200)" d="
M252.259 1384.3 L2352.76 1384.3 L2352.76 149.914 L252.259 149.914  Z
  " fill="#ffffff" fill-rule="evenodd" fill-opacity="1"/>
<defs>
  <clipPath id="clip202">
    <rect x="252" y="149" width="2101" height="1235"/>
  </clipPath>
</defs>
<polyline clip-path="url(#clip202)" style="stroke:#000000; stroke-width:2; stroke-opacity:0.1; fill:none" stroke-dasharray="1, 2" points="
  311.707,1384.3 311.707,149.914 
  "/>
<polyline clip-path="url(#clip202)" style="stroke:#000000; stroke-width:2; stroke-opacity:0.1; fill:none" stroke-dasharray="1, 2" points="
  641.974,1384.3 641.974,149.914 
  "/>
<polyline clip-path="url(#clip202)" style="stroke:#000000; stroke-width:2; stroke-opacity:0.1; fill:none" stroke-dasharray="1, 2" points="
  972.241,1384.3 972.241,149.914 
  "/>
<polyline clip-path="url(#clip202)" style="stroke:#000000; stroke-width:2; stroke-opacity:0.1; fill:none" stroke-dasharray="1, 2" points="
  1302.51,1384.3 1302.51,149.914 
  "/>
<polyline clip-path="url(#clip202)" style="stroke:#000000; stroke-width:2; stroke-opacity:0.1; fill:none" stroke-dasharray="1, 2" points="
  1632.77,1384.3 1632.77,149.914 
  "/>
<polyline clip-path="url(#clip202)" style="stroke:#000000; stroke-width:2; stroke-opacity:0.1; fill:none" stroke-dasharray="1, 2" points="
  1963.04,1384.3 1963.04,149.914 
  "/>
<polyline clip-path="url(#clip202)" style="stroke:#000000; stroke-width:2; stroke-opacity:0.1; fill:none" stroke-dasharray="1, 2" points="
  2293.31,1384.3 2293.31,149.914 
  "/>
<polyline clip-path="url(#clip200)" style="stroke:#000000; stroke-width:4; stroke-opacity:1; fill:none" points="
  252.259,1384.3 2352.76,1384.3 
  "/>
<polyline clip-path="url(#clip200)" style="stroke:#000000; stroke-width:4; stroke-opacity:1; fill:none" points="
  252.259,149.914 2352.76,149.914 
  "/>
<polyline clip-path="url(#clip200)" style="stroke:#000000; stroke-width:4; stroke-opacity:1; fill:none" points="
  311.707,1384.3 311.707,1369.49 
  "/>
<polyline clip-path="url(#clip200)" style="stroke:#000000; stroke-width:4; stroke-opacity:1; fill:none" points="
  641.974,1384.3 641.974,1369.49 
  "/>
<polyline clip-path="url(#clip200)" style="stroke:#000000; stroke-width:4; stroke-opacity:1; fill:none" points="
  972.241,1384.3 972.241,1369.49 
  "/>
<polyline clip-path="url(#clip200)" style="stroke:#000000; stroke-width:4; stroke-opacity:1; fill:none" points="
  1302.51,1384.3 1302.51,1369.49 
  "/>
<polyline clip-path="url(#clip200)" style="stroke:#000000; stroke-width:4; stroke-opacity:1; fill:none" points="
  1632.77,1384.3 1632.77,1369.49 
  "/>
<polyline clip-path="url(#clip200)" style="stroke:#000000; stroke-width:4; stroke-opacity:1; fill:none" points="
  1963.04,1384.3 1963.04,1369.49 
  "/>
<polyline clip-path="url(#clip200)" style="stroke:#000000; stroke-width:4; stroke-opacity:1; fill:none" points="
  2293.31,1384.3 2293.31,1369.49 
  "/>
<path clip-path="url(#clip200)" d="M 0 0 M311.707 1420.98 Q305.388 1420.98 302.187 1427.22 Q299.028 1433.42 299.028 1445.9 Q299.028 1458.33 302.187 1464.57 Q305.388 1470.77 311.707 1470.77 Q318.067 1470.77 321.227 1464.57 Q324.427 1458.33 324.427 1445.9 Q324.427 1433.42 321.227 1427.22 Q318.067 1420.98 311.707 1420.98 M311.707 1414.5 Q321.875 1414.5 327.222 1422.56 Q332.61 1430.58 332.61 1445.9 Q332.61 1461.17 327.222 1469.23 Q321.875 1477.25 311.707 1477.25 Q301.539 1477.25 296.152 1469.23 Q290.804 1461.17 290.804 1445.9 Q290.804 1430.58 296.152 1422.56 Q301.539 1414.5 311.707 1414.5 Z" fill="#000000" fill-rule="evenodd" fill-opacity="1" /><path clip-path="url(#clip200)" d="M 0 0 M601.505 1469.19 L614.873 1469.19 L614.873 1423.05 L600.331 1425.97 L600.331 1418.51 L614.792 1415.6 L622.975 1415.6 L622.975 1469.19 L636.343 1469.19 L636.343 1476.08 L601.505 1476.08 L601.505 1469.19 Z" fill="#000000" fill-rule="evenodd" fill-opacity="1" /><path clip-path="url(#clip200)" d="M 0 0 M662.714 1420.98 Q656.395 1420.98 653.195 1427.22 Q650.035 1433.42 650.035 1445.9 Q650.035 1458.33 653.195 1464.57 Q656.395 1470.77 662.714 1470.77 Q669.074 1470.77 672.234 1464.57 Q675.434 1458.33 675.434 1445.9 Q675.434 1433.42 672.234 1427.22 Q669.074 1420.98 662.714 1420.98 M662.714 1414.5 Q672.882 1414.5 678.229 1422.56 Q683.617 1430.58 683.617 1445.9 Q683.617 1461.17 678.229 1469.23 Q672.882 1477.25 662.714 1477.25 Q652.547 1477.25 647.159 1469.23 Q641.812 1461.17 641.812 1445.9 Q641.812 1430.58 647.159 1422.56 Q652.547 1414.5 662.714 1414.5 Z" fill="#000000" fill-rule="evenodd" fill-opacity="1" /><path clip-path="url(#clip200)" d="M 0 0 M939.246 1469.19 L967.805 1469.19 L967.805 1476.08 L929.402 1476.08 L929.402 1469.19 Q934.061 1464.37 942.082 1456.27 Q950.143 1448.12 952.209 1445.78 Q956.138 1441.36 957.678 1438.32 Q959.258 1435.24 959.258 1432.29 Q959.258 1427.46 955.855 1424.43 Q952.493 1421.39 947.064 1421.39 Q943.216 1421.39 938.922 1422.73 Q934.669 1424.06 929.807 1426.78 L929.807 1418.51 Q934.75 1416.53 939.044 1415.51 Q943.337 1414.5 946.902 1414.5 Q956.3 1414.5 961.891 1419.2 Q967.481 1423.9 967.481 1431.76 Q967.481 1435.49 966.063 1438.85 Q964.686 1442.17 960.999 1446.71 Q959.987 1447.88 954.558 1453.51 Q949.13 1459.1 939.246 1469.19 Z" fill="#000000" fill-rule="evenodd" fill-opacity="1" /><path clip-path="url(#clip200)" d="M 0 0 M994.176 1420.98 Q987.857 1420.98 984.657 1427.22 Q981.497 1433.42 981.497 1445.9 Q981.497 1458.33 984.657 1464.57 Q987.857 1470.77 994.176 1470.77 Q1000.54 1470.77 1003.7 1464.57 Q1006.9 1458.33 1006.9 1445.9 Q1006.9 1433.42 1003.7 1427.22 Q1000.54 1420.98 994.176 1420.98 M994.176 1414.5 Q1004.34 1414.5 1009.69 1422.56 Q1015.08 1430.58 1015.08 1445.9 Q1015.08 1461.17 1009.69 1469.23 Q1004.34 1477.25 994.176 1477.25 Q984.009 1477.25 978.621 1469.23 Q973.274 1461.17 973.274 1445.9 Q973.274 1430.58 978.621 1422.56 Q984.009 1414.5 994.176 1414.5 Z" fill="#000000" fill-rule="evenodd" fill-opacity="1" /><path clip-path="url(#clip200)" d="M 0 0 M1286.3 1443.47 Q1292.18 1444.72 1295.46 1448.69 Q1298.78 1452.66 1298.78 1458.49 Q1298.78 1467.45 1292.62 1472.35 Q1286.47 1477.25 1275.12 1477.25 Q1271.32 1477.25 1267.26 1476.48 Q1263.25 1475.75 1258.96 1474.25 L1258.96 1466.35 Q1262.36 1468.34 1266.41 1469.35 Q1270.46 1470.36 1274.88 1470.36 Q1282.58 1470.36 1286.59 1467.33 Q1290.64 1464.29 1290.64 1458.49 Q1290.64 1453.15 1286.87 1450.15 Q1283.14 1447.11 1276.46 1447.11 L1269.41 1447.11 L1269.41 1440.39 L1276.78 1440.39 Q1282.82 1440.39 1286.02 1438 Q1289.22 1435.57 1289.22 1431.03 Q1289.22 1426.37 1285.9 1423.9 Q1282.62 1421.39 1276.46 1421.39 Q1273.1 1421.39 1269.25 1422.12 Q1265.4 1422.85 1260.78 1424.39 L1260.78 1417.09 Q1265.44 1415.8 1269.49 1415.15 Q1273.58 1414.5 1277.19 1414.5 Q1286.51 1414.5 1291.93 1418.76 Q1297.36 1422.97 1297.36 1430.18 Q1297.36 1435.2 1294.49 1438.69 Q1291.61 1442.13 1286.3 1443.47 Z" fill="#000000" fill-rule="evenodd" fill-opacity="1" /><path clip-path="url(#clip200)" d="M 0 0 M1325.15 1420.98 Q1318.83 1420.98 1315.63 1427.22 Q1312.47 1433.42 1312.47 1445.9 Q1312.47 1458.33 1315.63 1464.57 Q1318.83 1470.77 1325.15 1470.77 Q1331.51 1470.77 1334.67 1464.57 Q1337.87 1458.33 1337.87 1445.9 Q1337.87 1433.42 1334.67 1427.22 Q1331.51 1420.98 1325.15 1420.98 M1325.15 1414.5 Q1335.32 1414.5 1340.67 1422.56 Q1346.05 1430.58 1346.05 1445.9 Q1346.05 1461.17 1340.67 1469.23 Q1335.32 1477.25 1325.15 1477.25 Q1314.98 1477.25 1309.6 1469.23 Q1304.25 1461.17 1304.25 1445.9 Q1304.25 1430.58 1309.6 1422.56 Q1314.98 1414.5 1325.15 1414.5 Z" fill="#000000" fill-rule="evenodd" fill-opacity="1" /><path clip-path="url(#clip200)" d="M 0 0 M1614.4 1422.73 L1593.74 1455.01 L1614.4 1455.01 L1614.4 1422.73 M1612.26 1415.6 L1622.55 1415.6 L1622.55 1455.01 L1631.17 1455.01 L1631.17 1461.82 L1622.55 1461.82 L1622.55 1476.08 L1614.4 1476.08 L1614.4 1461.82 L1587.1 1461.82 L1587.1 1453.92 L1612.26 1415.6 Z" fill="#000000" fill-rule="evenodd" fill-opacity="1" /><path clip-path="url(#clip200)" d="M 0 0 M1657.55 1420.98 Q1651.23 1420.98 1648.03 1427.22 Q1644.87 1433.42 1644.87 1445.9 Q1644.87 1458.33 1648.03 1464.57 Q1651.23 1470.77 1657.55 1470.77 Q1663.91 1470.77 1667.07 1464.57 Q1670.27 1458.33 1670.27 1445.9 Q1670.27 1433.42 1667.07 1427.22 Q1663.91 1420.98 1657.55 1420.98 M1657.55 1414.5 Q1667.71 1414.5 1673.06 1422.56 Q1678.45 1430.58 1678.45 1445.9 Q1678.45 1461.17 1673.06 1469.23 Q1667.71 1477.25 1657.55 1477.25 Q1647.38 1477.25 1641.99 1469.23 Q1636.64 1461.17 1636.64 1445.9 Q1636.64 1430.58 1641.99 1422.56 Q1647.38 1414.5 1657.55 1414.5 Z" fill="#000000" fill-rule="evenodd" fill-opacity="1" /><path clip-path="url(#clip200)" d="M 0 0 M1922.39 1415.6 L1954.51 1415.6 L1954.51 1422.48 L1929.88 1422.48 L1929.88 1437.31 Q1931.67 1436.7 1933.45 1436.42 Q1935.23 1436.09 1937.01 1436.09 Q1947.14 1436.09 1953.06 1441.64 Q1958.97 1447.19 1958.97 1456.67 Q1958.97 1466.43 1952.89 1471.86 Q1946.82 1477.25 1935.76 1477.25 Q1931.95 1477.25 1927.98 1476.6 Q1924.05 1475.95 1919.84 1474.66 L1919.84 1466.43 Q1923.48 1468.42 1927.37 1469.39 Q1931.26 1470.36 1935.6 1470.36 Q1942.6 1470.36 1946.7 1466.68 Q1950.79 1462.99 1950.79 1456.67 Q1950.79 1450.35 1946.7 1446.67 Q1942.6 1442.98 1935.6 1442.98 Q1932.31 1442.98 1929.03 1443.71 Q1925.79 1444.44 1922.39 1445.98 L1922.39 1415.6 Z" fill="#000000" fill-rule="evenodd" fill-opacity="1" /><path clip-path="url(#clip200)" d="M 0 0 M1985.34 1420.98 Q1979.02 1420.98 1975.82 1427.22 Q1972.66 1433.42 1972.66 1445.9 Q1972.66 1458.33 1975.82 1464.57 Q1979.02 1470.77 1985.34 1470.77 Q1991.7 1470.77 1994.86 1464.57 Q1998.06 1458.33 1998.06 1445.9 Q1998.06 1433.42 1994.86 1427.22 Q1991.7 1420.98 1985.34 1420.98 M1985.34 1414.5 Q1995.51 1414.5 2000.86 1422.56 Q2006.24 1430.58 2006.24 1445.9 Q2006.24 1461.17 2000.86 1469.23 Q1995.51 1477.25 1985.34 1477.25 Q1975.17 1477.25 1969.79 1469.23 Q1964.44 1461.17 1964.44 1445.9 Q1964.44 1430.58 1969.79 1422.56 Q1975.17 1414.5 1985.34 1414.5 Z" fill="#000000" fill-rule="evenodd" fill-opacity="1" /><path clip-path="url(#clip200)" d="M 0 0 M2270.38 1442.57 Q2264.87 1442.57 2261.63 1446.34 Q2258.43 1450.11 2258.43 1456.67 Q2258.43 1463.19 2261.63 1467 Q2264.87 1470.77 2270.38 1470.77 Q2275.89 1470.77 2279.09 1467 Q2282.33 1463.19 2282.33 1456.67 Q2282.33 1450.11 2279.09 1446.34 Q2275.89 1442.57 2270.38 1442.57 M2286.62 1416.93 L2286.62 1424.39 Q2283.55 1422.93 2280.39 1422.16 Q2277.27 1421.39 2274.19 1421.39 Q2266.09 1421.39 2261.79 1426.86 Q2257.54 1432.33 2256.93 1443.39 Q2259.32 1439.86 2262.93 1438 Q2266.53 1436.09 2270.87 1436.09 Q2279.98 1436.09 2285.25 1441.64 Q2290.55 1447.15 2290.55 1456.67 Q2290.55 1465.99 2285.04 1471.62 Q2279.53 1477.25 2270.38 1477.25 Q2259.89 1477.25 2254.34 1469.23 Q2248.79 1461.17 2248.79 1445.9 Q2248.79 1431.56 2255.59 1423.05 Q2262.4 1414.5 2273.86 1414.5 Q2276.94 1414.5 2280.06 1415.11 Q2283.22 1415.72 2286.62 1416.93 Z" fill="#000000" fill-rule="evenodd" fill-opacity="1" /><path clip-path="url(#clip200)" d="M 0 0 M2316.92 1420.98 Q2310.61 1420.98 2307.41 1427.22 Q2304.25 1433.42 2304.25 1445.9 Q2304.25 1458.33 2307.41 1464.57 Q2310.61 1470.77 2316.92 1470.77 Q2323.28 1470.77 2326.44 1464.57 Q2329.64 1458.33 2329.64 1445.9 Q2329.64 1433.42 2326.44 1427.22 Q2323.28 1420.98 2316.92 1420.98 M2316.92 1414.5 Q2327.09 1414.5 2332.44 1422.56 Q2337.83 1430.58 2337.83 1445.9 Q2337.83 1461.17 2332.44 1469.23 Q2327.09 1477.25 2316.92 1477.25 Q2306.76 1477.25 2301.37 1469.23 Q2296.02 1461.17 2296.02 1445.9 Q2296.02 1430.58 2301.37 1422.56 Q2306.76 1414.5 2316.92 1414.5 Z" fill="#000000" fill-rule="evenodd" fill-opacity="1" /><path clip-path="url(#clip200)" d="M 0 0 M1128.14 1511.12 L1179.3 1511.12 L1179.3 1518 L1157.83 1518 L1157.83 1571.6 L1149.61 1571.6 L1149.61 1518 L1128.14 1518 L1128.14 1511.12 Z" fill="#000000" fill-rule="evenodd" fill-opacity="1" /><path clip-path="url(#clip200)" d="M 0 0 M1184.57 1526.23 L1192.02 1526.23 L1192.02 1571.6 L1184.57 1571.6 L1184.57 1526.23 M1184.57 1508.56 L1192.02 1508.56 L1192.02 1518 L1184.57 1518 L1184.57 1508.56 Z" fill="#000000" fill-rule="evenodd" fill-opacity="1" /><path clip-path="url(#clip200)" d="M 0 0 M1235.16 1534.94 Q1237.96 1529.91 1241.85 1527.52 Q1245.73 1525.13 1251 1525.13 Q1258.09 1525.13 1261.94 1530.11 Q1265.79 1535.06 1265.79 1544.21 L1265.79 1571.6 L1258.29 1571.6 L1258.29 1544.45 Q1258.29 1537.93 1255.98 1534.77 Q1253.67 1531.61 1248.93 1531.61 Q1243.14 1531.61 1239.78 1535.46 Q1236.42 1539.31 1236.42 1545.95 L1236.42 1571.6 L1228.92 1571.6 L1228.92 1544.45 Q1228.92 1537.89 1226.61 1534.77 Q1224.3 1531.61 1219.48 1531.61 Q1213.77 1531.61 1210.41 1535.5 Q1207.05 1539.35 1207.05 1545.95 L1207.05 1571.6 L1199.55 1571.6 L1199.55 1526.23 L1207.05 1526.23 L1207.05 1533.27 Q1209.6 1529.1 1213.16 1527.12 Q1216.73 1525.13 1221.63 1525.13 Q1226.57 1525.13 1230.02 1527.64 Q1233.5 1530.16 1235.16 1534.94 Z" fill="#000000" fill-rule="evenodd" fill-opacity="1" /><path clip-path="url(#clip200)" d="M 0 0 M1312.41 1547.05 L1312.41 1550.69 L1278.14 1550.69 Q1278.63 1558.39 1282.76 1562.44 Q1286.93 1566.45 1294.34 1566.45 Q1298.64 1566.45 1302.65 1565.4 Q1306.7 1564.34 1310.67 1562.24 L1310.67 1569.29 Q1306.66 1570.99 1302.45 1571.88 Q1298.23 1572.77 1293.9 1572.77 Q1283.04 1572.77 1276.68 1566.45 Q1270.36 1560.13 1270.36 1549.36 Q1270.36 1538.22 1276.36 1531.69 Q1282.39 1525.13 1292.6 1525.13 Q1301.76 1525.13 1307.06 1531.05 Q1312.41 1536.92 1312.41 1547.05 M1304.96 1544.86 Q1304.88 1538.74 1301.51 1535.1 Q1298.19 1531.45 1292.68 1531.45 Q1286.45 1531.45 1282.68 1534.98 Q1278.95 1538.5 1278.38 1544.9 L1304.96 1544.86 Z" fill="#000000" fill-rule="evenodd" fill-opacity="1" /><path clip-path="url(#clip200)" d="M 0 0 M1349.15 1527.56 L1349.15 1534.61 Q1345.99 1532.99 1342.59 1532.18 Q1339.19 1531.37 1335.54 1531.37 Q1329.99 1531.37 1327.2 1533.07 Q1324.44 1534.77 1324.44 1538.18 Q1324.44 1540.77 1326.43 1542.27 Q1328.41 1543.73 1334.41 1545.06 L1336.96 1545.63 Q1344.9 1547.33 1348.22 1550.45 Q1351.58 1553.53 1351.58 1559.08 Q1351.58 1565.4 1346.56 1569.08 Q1341.58 1572.77 1332.83 1572.77 Q1329.18 1572.77 1325.21 1572.04 Q1321.28 1571.35 1316.91 1569.93 L1316.91 1562.24 Q1321.04 1564.39 1325.05 1565.48 Q1329.06 1566.53 1332.99 1566.53 Q1338.26 1566.53 1341.09 1564.75 Q1343.93 1562.93 1343.93 1559.65 Q1343.93 1556.61 1341.86 1554.99 Q1339.84 1553.37 1332.91 1551.87 L1330.32 1551.26 Q1323.39 1549.8 1320.31 1546.8 Q1317.23 1543.77 1317.23 1538.5 Q1317.23 1532.1 1321.77 1528.62 Q1326.31 1525.13 1334.65 1525.13 Q1338.78 1525.13 1342.43 1525.74 Q1346.07 1526.35 1349.15 1527.56 Z" fill="#000000" fill-rule="evenodd" fill-opacity="1" /><path clip-path="url(#clip200)" d="M 0 0 M1366.78 1513.34 L1366.78 1526.23 L1382.13 1526.23 L1382.13 1532.02 L1366.78 1532.02 L1366.78 1556.65 Q1366.78 1562.2 1368.27 1563.78 Q1369.81 1565.36 1374.47 1565.36 L1382.13 1565.36 L1382.13 1571.6 L1374.47 1571.6 Q1365.84 1571.6 1362.56 1568.4 Q1359.28 1565.15 1359.28 1556.65 L1359.28 1532.02 L1353.81 1532.02 L1353.81 1526.23 L1359.28 1526.23 L1359.28 1513.34 L1366.78 1513.34 Z" fill="#000000" fill-rule="evenodd" fill-opacity="1" /><path clip-path="url(#clip200)" d="M 0 0 M1428.75 1547.05 L1428.75 1550.69 L1394.48 1550.69 Q1394.97 1558.39 1399.1 1562.44 Q1403.27 1566.45 1410.69 1566.45 Q1414.98 1566.45 1418.99 1565.4 Q1423.04 1564.34 1427.01 1562.24 L1427.01 1569.29 Q1423 1570.99 1418.79 1571.88 Q1414.58 1572.77 1410.24 1572.77 Q1399.38 1572.77 1393.02 1566.45 Q1386.71 1560.13 1386.71 1549.36 Q1386.71 1538.22 1392.7 1531.69 Q1398.74 1525.13 1408.94 1525.13 Q1418.1 1525.13 1423.41 1531.05 Q1428.75 1536.92 1428.75 1547.05 M1421.3 1544.86 Q1421.22 1538.74 1417.86 1535.1 Q1414.54 1531.45 1409.03 1531.45 Q1402.79 1531.45 1399.02 1534.98 Q1395.29 1538.5 1394.73 1544.9 L1421.3 1544.86 Z" fill="#000000" fill-rule="evenodd" fill-opacity="1" /><path clip-path="url(#clip200)" d="M 0 0 M1443.78 1564.79 L1443.78 1588.85 L1436.29 1588.85 L1436.29 1526.23 L1443.78 1526.23 L1443.78 1533.11 Q1446.13 1529.06 1449.7 1527.12 Q1453.3 1525.13 1458.28 1525.13 Q1466.55 1525.13 1471.69 1531.69 Q1476.88 1538.26 1476.88 1548.95 Q1476.88 1559.65 1471.69 1566.21 Q1466.55 1572.77 1458.28 1572.77 Q1453.3 1572.77 1449.7 1570.83 Q1446.13 1568.84 1443.78 1564.79 M1469.14 1548.95 Q1469.14 1540.73 1465.74 1536.07 Q1462.38 1531.37 1456.46 1531.37 Q1450.55 1531.37 1447.15 1536.07 Q1443.78 1540.73 1443.78 1548.95 Q1443.78 1557.17 1447.15 1561.87 Q1450.55 1566.53 1456.46 1566.53 Q1462.38 1566.53 1465.74 1561.87 Q1469.14 1557.17 1469.14 1548.95 Z" fill="#000000" fill-rule="evenodd" fill-opacity="1" /><polyline clip-path="url(#clip202)" style="stroke:#000000; stroke-width:2; stroke-opacity:0.1; fill:none" stroke-dasharray="1, 2" points="
  252.259,1349.36 2352.76,1349.36 
  "/>
<polyline clip-path="url(#clip202)" style="stroke:#000000; stroke-width:2; stroke-opacity:0.1; fill:none" stroke-dasharray="1, 2" points="
  252.259,961.193 2352.76,961.193 
  "/>
<polyline clip-path="url(#clip202)" style="stroke:#000000; stroke-width:2; stroke-opacity:0.1; fill:none" stroke-dasharray="1, 2" points="
  252.259,573.021 2352.76,573.021 
  "/>
<polyline clip-path="url(#clip202)" style="stroke:#000000; stroke-width:2; stroke-opacity:0.1; fill:none" stroke-dasharray="1, 2" points="
  252.259,184.85 2352.76,184.85 
  "/>
<polyline clip-path="url(#clip200)" style="stroke:#000000; stroke-width:4; stroke-opacity:1; fill:none" points="
  252.259,1384.3 252.259,149.914 
  "/>
<polyline clip-path="url(#clip200)" style="stroke:#000000; stroke-width:4; stroke-opacity:1; fill:none" points="
  2352.76,1384.3 2352.76,149.914 
  "/>
<polyline clip-path="url(#clip200)" style="stroke:#000000; stroke-width:4; stroke-opacity:1; fill:none" points="
  252.259,1349.36 277.465,1349.36 
  "/>
<polyline clip-path="url(#clip200)" style="stroke:#000000; stroke-width:4; stroke-opacity:1; fill:none" points="
  252.259,961.193 277.465,961.193 
  "/>
<polyline clip-path="url(#clip200)" style="stroke:#000000; stroke-width:4; stroke-opacity:1; fill:none" points="
  252.259,573.021 277.465,573.021 
  "/>
<polyline clip-path="url(#clip200)" style="stroke:#000000; stroke-width:4; stroke-opacity:1; fill:none" points="
  252.259,184.85 277.465,184.85 
  "/>
<path clip-path="url(#clip200)" d="M 0 0 M134.147 1319.12 L166.271 1319.12 L166.271 1326.01 L141.641 1326.01 L141.641 1340.84 Q143.424 1340.23 145.206 1339.95 Q146.989 1339.62 148.771 1339.62 Q158.898 1339.62 164.813 1345.17 Q170.727 1350.72 170.727 1360.2 Q170.727 1369.96 164.651 1375.39 Q158.574 1380.78 147.515 1380.78 Q143.707 1380.78 139.737 1380.13 Q135.808 1379.48 131.595 1378.19 L131.595 1369.96 Q135.241 1371.95 139.13 1372.92 Q143.019 1373.89 147.353 1373.89 Q154.361 1373.89 158.453 1370.21 Q162.544 1366.52 162.544 1360.2 Q162.544 1353.88 158.453 1350.19 Q154.361 1346.51 147.353 1346.51 Q144.072 1346.51 140.791 1347.24 Q137.55 1347.97 134.147 1349.51 L134.147 1319.12 Z" fill="#000000" fill-rule="evenodd" fill-opacity="1" /><path clip-path="url(#clip200)" d="M 0 0 M179.679 1319.12 L211.803 1319.12 L211.803 1326.01 L187.174 1326.01 L187.174 1340.84 Q188.956 1340.23 190.738 1339.95 Q192.521 1339.62 194.303 1339.62 Q204.43 1339.62 210.345 1345.17 Q216.259 1350.72 216.259 1360.2 Q216.259 1369.96 210.183 1375.39 Q204.106 1380.78 193.047 1380.78 Q189.24 1380.78 185.27 1380.13 Q181.34 1379.48 177.127 1378.19 L177.127 1369.96 Q180.773 1371.95 184.662 1372.92 Q188.551 1373.89 192.885 1373.89 Q199.893 1373.89 203.985 1370.21 Q208.076 1366.52 208.076 1360.2 Q208.076 1353.88 203.985 1350.19 Q199.893 1346.51 192.885 1346.51 Q189.604 1346.51 186.323 1347.24 Q183.082 1347.97 179.679 1349.51 L179.679 1319.12 Z" fill="#000000" fill-rule="evenodd" fill-opacity="1" /><path clip-path="url(#clip200)" d="M 0 0 M148.811 957.932 Q143.302 957.932 140.062 961.699 Q136.861 965.467 136.861 972.029 Q136.861 978.551 140.062 982.359 Q143.302 986.126 148.811 986.126 Q154.321 986.126 157.521 982.359 Q160.762 978.551 160.762 972.029 Q160.762 965.467 157.521 961.699 Q154.321 957.932 148.811 957.932 M165.056 932.29 L165.056 939.743 Q161.977 938.285 158.817 937.515 Q155.698 936.746 152.619 936.746 Q144.518 936.746 140.224 942.214 Q135.97 947.683 135.362 958.742 Q137.753 955.218 141.358 953.354 Q144.963 951.45 149.298 951.45 Q158.412 951.45 163.678 957 Q168.985 962.509 168.985 972.029 Q168.985 981.346 163.476 986.977 Q157.967 992.608 148.811 992.608 Q138.32 992.608 132.77 984.587 Q127.22 976.525 127.22 961.254 Q127.22 946.913 134.026 938.406 Q140.831 929.859 152.295 929.859 Q155.374 929.859 158.493 930.467 Q161.653 931.074 165.056 932.29 Z" fill="#000000" fill-rule="evenodd" fill-opacity="1" /><path clip-path="url(#clip200)" d="M 0 0 M195.356 936.341 Q189.037 936.341 185.837 942.579 Q182.677 948.777 182.677 961.254 Q182.677 973.69 185.837 979.928 Q189.037 986.126 195.356 986.126 Q201.716 986.126 204.876 979.928 Q208.076 973.69 208.076 961.254 Q208.076 948.777 204.876 942.579 Q201.716 936.341 195.356 936.341 M195.356 929.859 Q205.524 929.859 210.871 937.92 Q216.259 945.941 216.259 961.254 Q216.259 976.525 210.871 984.587 Q205.524 992.608 195.356 992.608 Q185.189 992.608 179.801 984.587 Q174.454 976.525 174.454 961.254 Q174.454 945.941 179.801 937.92 Q185.189 929.859 195.356 929.859 Z" fill="#000000" fill-rule="evenodd" fill-opacity="1" /><path clip-path="url(#clip200)" d="M 0 0 M150.553 569.76 Q145.044 569.76 141.803 573.528 Q138.603 577.295 138.603 583.857 Q138.603 590.379 141.803 594.187 Q145.044 597.955 150.553 597.955 Q156.063 597.955 159.263 594.187 Q162.504 590.379 162.504 583.857 Q162.504 577.295 159.263 573.528 Q156.063 569.76 150.553 569.76 M166.797 544.118 L166.797 551.572 Q163.719 550.113 160.559 549.344 Q157.44 548.574 154.361 548.574 Q146.259 548.574 141.965 554.043 Q137.712 559.511 137.104 570.57 Q139.494 567.046 143.1 565.183 Q146.705 563.279 151.039 563.279 Q160.154 563.279 165.42 568.829 Q170.727 574.338 170.727 583.857 Q170.727 593.174 165.218 598.805 Q159.708 604.436 150.553 604.436 Q140.062 604.436 134.512 596.415 Q128.962 588.354 128.962 573.082 Q128.962 558.742 135.768 550.235 Q142.573 541.687 154.037 541.687 Q157.116 541.687 160.235 542.295 Q163.395 542.903 166.797 544.118 Z" fill="#000000" fill-rule="evenodd" fill-opacity="1" /><path clip-path="url(#clip200)" d="M 0 0 M179.679 542.781 L211.803 542.781 L211.803 549.668 L187.174 549.668 L187.174 564.494 Q188.956 563.886 190.738 563.603 Q192.521 563.279 194.303 563.279 Q204.43 563.279 210.345 568.829 Q216.259 574.378 216.259 583.857 Q216.259 593.62 210.183 599.048 Q204.106 604.436 193.047 604.436 Q189.24 604.436 185.27 603.788 Q181.34 603.14 177.127 601.843 L177.127 593.62 Q180.773 595.605 184.662 596.577 Q188.551 597.549 192.885 597.549 Q199.893 597.549 203.985 593.863 Q208.076 590.177 208.076 583.857 Q208.076 577.538 203.985 573.852 Q199.893 570.165 192.885 570.165 Q189.604 570.165 186.323 570.894 Q183.082 571.624 179.679 573.163 L179.679 542.781 Z" fill="#000000" fill-rule="evenodd" fill-opacity="1" /><path clip-path="url(#clip200)" d="M 0 0 M130.096 154.61 L168.985 154.61 L168.985 158.093 L147.029 215.09 L138.482 215.09 L159.141 161.496 L130.096 161.496 L130.096 154.61 Z" fill="#000000" fill-rule="evenodd" fill-opacity="1" /><path clip-path="url(#clip200)" d="M 0 0 M195.356 159.997 Q189.037 159.997 185.837 166.236 Q182.677 172.434 182.677 184.91 Q182.677 197.347 185.837 203.585 Q189.037 209.783 195.356 209.783 Q201.716 209.783 204.876 203.585 Q208.076 197.347 208.076 184.91 Q208.076 172.434 204.876 166.236 Q201.716 159.997 195.356 159.997 M195.356 153.516 Q205.524 153.516 210.871 161.577 Q216.259 169.598 216.259 184.91 Q216.259 200.182 210.871 208.244 Q205.524 216.264 195.356 216.264 Q185.189 216.264 179.801 208.244 Q174.454 200.182 174.454 184.91 Q174.454 169.598 179.801 161.577 Q185.189 153.516 195.356 153.516 Z" fill="#000000" fill-rule="evenodd" fill-opacity="1" /><path clip-path="url(#clip200)" d="M 0 0 M36.5962 1089.11 L36.5962 1037.95 L43.4827 1037.95 L43.4827 1059.42 L97.0762 1059.42 L97.0762 1067.64 L43.4827 1067.64 L43.4827 1089.11 L36.5962 1089.11 Z" fill="#000000" fill-rule="evenodd" fill-opacity="1" /><path clip-path="url(#clip200)" d="M 0 0 M72.5277 1005.42 L76.1735 1005.42 L76.1735 1039.69 Q83.8702 1039.21 87.9211 1035.07 Q91.9315 1030.9 91.9315 1023.49 Q91.9315 1019.19 90.8783 1015.18 Q89.825 1011.13 87.7186 1007.16 L94.7671 1007.16 Q96.4685 1011.17 97.3597 1015.39 Q98.2509 1019.6 98.2509 1023.93 Q98.2509 1034.79 91.9315 1041.15 Q85.6121 1047.47 74.8367 1047.47 Q63.6967 1047.47 57.1748 1041.47 Q50.6123 1035.44 50.6123 1025.23 Q50.6123 1016.08 56.5266 1010.77 Q62.4004 1005.42 72.5277 1005.42 M70.3402 1012.88 Q64.2233 1012.96 60.5775 1016.32 Q56.9317 1019.64 56.9317 1025.15 Q56.9317 1031.39 60.456 1035.16 Q63.9803 1038.88 70.3807 1039.45 L70.3402 1012.88 Z" fill="#000000" fill-rule="evenodd" fill-opacity="1" /><path clip-path="url(#clip200)" d="M 0 0 M60.4155 962.28 Q55.3924 959.484 53.0023 955.596 Q50.6123 951.707 50.6123 946.441 Q50.6123 939.351 55.5949 935.503 Q60.537 931.655 69.692 931.655 L97.0762 931.655 L97.0762 939.149 L69.9351 939.149 Q63.4131 939.149 60.2534 941.458 Q57.0937 943.767 57.0937 948.507 Q57.0937 954.299 60.9421 957.662 Q64.7905 961.024 71.4339 961.024 L97.0762 961.024 L97.0762 968.518 L69.9351 968.518 Q63.3726 968.518 60.2534 970.827 Q57.0937 973.136 57.0937 977.957 Q57.0937 983.668 60.9826 987.031 Q64.831 990.393 71.4339 990.393 L97.0762 990.393 L97.0762 997.887 L51.706 997.887 L51.706 990.393 L58.7546 990.393 Q54.5822 987.841 52.5972 984.276 Q50.6123 980.711 50.6123 975.81 Q50.6123 970.867 53.1238 967.424 Q55.6354 963.94 60.4155 962.28 Z" fill="#000000" fill-rule="evenodd" fill-opacity="1" /><path clip-path="url(#clip200)" d="M 0 0 M90.2706 916.626 L114.333 916.626 L114.333 924.12 L51.706 924.12 L51.706 916.626 L58.5926 916.626 Q54.5417 914.276 52.5972 910.712 Q50.6123 907.106 50.6123 902.124 Q50.6123 893.86 57.1748 888.715 Q63.7372 883.53 74.4316 883.53 Q85.126 883.53 91.6885 888.715 Q98.2509 893.86 98.2509 902.124 Q98.2509 907.106 96.3065 910.712 Q94.3215 914.276 90.2706 916.626 M74.4316 891.267 Q66.2083 891.267 61.5497 894.67 Q56.8507 898.032 56.8507 903.947 Q56.8507 909.861 61.5497 913.264 Q66.2083 916.626 74.4316 916.626 Q82.6549 916.626 87.354 913.264 Q92.0125 909.861 92.0125 903.947 Q92.0125 898.032 87.354 894.67 Q82.6549 891.267 74.4316 891.267 Z" fill="#000000" fill-rule="evenodd" fill-opacity="1" /><path clip-path="url(#clip200)" d="M 0 0 M72.5277 836.904 L76.1735 836.904 L76.1735 871.175 Q83.8702 870.689 87.9211 866.557 Q91.9315 862.384 91.9315 854.971 Q91.9315 850.677 90.8783 846.667 Q89.825 842.616 87.7186 838.646 L94.7671 838.646 Q96.4685 842.656 97.3597 846.869 Q98.2509 851.082 98.2509 855.417 Q98.2509 866.273 91.9315 872.633 Q85.6121 878.952 74.8367 878.952 Q63.6967 878.952 57.1748 872.957 Q50.6123 866.921 50.6123 856.713 Q50.6123 847.558 56.5266 842.251 Q62.4004 836.904 72.5277 836.904 M70.3402 844.358 Q64.2233 844.439 60.5775 847.801 Q56.9317 851.123 56.9317 856.632 Q56.9317 862.87 60.456 866.638 Q63.9803 870.365 70.3807 870.932 L70.3402 844.358 Z" fill="#000000" fill-rule="evenodd" fill-opacity="1" /><path clip-path="url(#clip200)" d="M 0 0 M58.6736 802.795 Q57.9444 804.051 57.6204 805.55 Q57.2558 807.008 57.2558 808.791 Q57.2558 815.11 61.3877 818.513 Q65.4791 821.875 73.1758 821.875 L97.0762 821.875 L97.0762 829.369 L51.706 829.369 L51.706 821.875 L58.7546 821.875 Q54.6227 819.526 52.6377 815.758 Q50.6123 811.991 50.6123 806.603 Q50.6123 805.834 50.7338 804.902 Q50.8148 803.97 51.0174 802.836 L58.6736 802.795 Z" fill="#000000" fill-rule="evenodd" fill-opacity="1" /><path clip-path="url(#clip200)" d="M 0 0 M74.2696 774.358 Q74.2696 783.392 76.3355 786.875 Q78.4015 790.359 83.3841 790.359 Q87.354 790.359 89.7035 787.767 Q92.0125 785.134 92.0125 780.637 Q92.0125 774.439 87.6376 770.712 Q83.2221 766.945 75.9304 766.945 L74.2696 766.945 L74.2696 774.358 M71.1909 759.491 L97.0762 759.491 L97.0762 766.945 L90.1896 766.945 Q94.3215 769.497 96.3065 773.305 Q98.2509 777.113 98.2509 782.622 Q98.2509 789.59 94.3621 793.721 Q90.4327 797.813 83.8702 797.813 Q76.214 797.813 72.3251 792.709 Q68.4363 787.564 68.4363 777.396 L68.4363 766.945 L67.7071 766.945 Q62.5625 766.945 59.7673 770.348 Q56.9317 773.71 56.9317 779.827 Q56.9317 783.716 57.8634 787.402 Q58.7951 791.088 60.6585 794.491 L53.772 794.491 Q52.1921 790.4 51.4225 786.551 Q50.6123 782.703 50.6123 779.057 Q50.6123 769.213 55.7164 764.352 Q60.8206 759.491 71.1909 759.491 Z" fill="#000000" fill-rule="evenodd" fill-opacity="1" /><path clip-path="url(#clip200)" d="M 0 0 M38.8242 744.3 L51.706 744.3 L51.706 728.947 L57.4988 728.947 L57.4988 744.3 L82.1283 744.3 Q87.6781 744.3 89.2579 742.802 Q90.8378 741.262 90.8378 736.604 L90.8378 728.947 L97.0762 728.947 L97.0762 736.604 Q97.0762 745.232 93.8759 748.513 Q90.6352 751.795 82.1283 751.795 L57.4988 751.795 L57.4988 757.263 L51.706 757.263 L51.706 751.795 L38.8242 751.795 L38.8242 744.3 Z" fill="#000000" fill-rule="evenodd" fill-opacity="1" /><path clip-path="url(#clip200)" d="M 0 0 M79.1712 721.899 L51.706 721.899 L51.706 714.445 L78.8876 714.445 Q85.3285 714.445 88.5693 711.934 Q91.7695 709.422 91.7695 704.399 Q91.7695 698.363 87.9211 694.879 Q84.0728 691.355 77.4293 691.355 L51.706 691.355 L51.706 683.901 L97.0762 683.901 L97.0762 691.355 L90.1086 691.355 Q94.2405 694.069 96.266 697.675 Q98.2509 701.239 98.2509 705.979 Q98.2509 713.797 93.3898 717.848 Q88.5287 721.899 79.1712 721.899 M50.6123 703.143 L50.6123 703.143 Z" fill="#000000" fill-rule="evenodd" fill-opacity="1" /><path clip-path="url(#clip200)" d="M 0 0 M58.6736 649.793 Q57.9444 651.049 57.6204 652.547 Q57.2558 654.006 57.2558 655.788 Q57.2558 662.108 61.3877 665.51 Q65.4791 668.873 73.1758 668.873 L97.0762 668.873 L97.0762 676.367 L51.706 676.367 L51.706 668.873 L58.7546 668.873 Q54.6227 666.523 52.6377 662.756 Q50.6123 658.988 50.6123 653.601 Q50.6123 652.831 50.7338 651.899 Q50.8148 650.968 51.0174 649.833 L58.6736 649.793 Z" fill="#000000" fill-rule="evenodd" fill-opacity="1" /><path clip-path="url(#clip200)" d="M 0 0 M72.5277 604.99 L76.1735 604.99 L76.1735 639.26 Q83.8702 638.774 87.9211 634.642 Q91.9315 630.47 91.9315 623.057 Q91.9315 618.763 90.8783 614.753 Q89.825 610.702 87.7186 606.732 L94.7671 606.732 Q96.4685 610.742 97.3597 614.955 Q98.2509 619.168 98.2509 623.502 Q98.2509 634.359 91.9315 640.719 Q85.6121 647.038 74.8367 647.038 Q63.6967 647.038 57.1748 641.043 Q50.6123 635.007 50.6123 624.799 Q50.6123 615.644 56.5266 610.337 Q62.4004 604.99 72.5277 604.99 M70.3402 612.443 Q64.2233 612.525 60.5775 615.887 Q56.9317 619.208 56.9317 624.718 Q56.9317 630.956 60.456 634.723 Q63.9803 638.45 70.3807 639.017 L70.3402 612.443 Z" fill="#000000" fill-rule="evenodd" fill-opacity="1" /><path clip-path="url(#clip200)" d="M 0 0 M34.1251 552.895 Q43.4422 558.323 52.5567 560.956 Q61.6713 563.59 71.0288 563.59 Q80.3864 563.59 89.582 560.956 Q98.737 558.283 108.014 552.895 L108.014 559.377 Q98.494 565.453 89.2984 568.491 Q80.1029 571.489 71.0288 571.489 Q61.9953 571.489 52.8403 568.491 Q43.6852 565.494 34.1251 559.377 L34.1251 552.895 Z" fill="#000000" fill-rule="evenodd" fill-opacity="1" /><path clip-path="url(#clip200)" d="M 0 0 M47.5336 536.894 Q47.5336 540.661 50.1667 542.889 Q52.7593 545.077 57.3368 545.077 Q61.9143 545.077 64.5474 542.889 Q67.14 540.702 67.14 536.894 Q67.14 533.127 64.5069 530.939 Q61.8738 528.752 57.3368 528.752 Q52.8403 528.752 50.2072 530.939 Q47.5336 533.127 47.5336 536.894 M44.0093 536.894 Q44.0093 530.777 47.5336 527.293 Q51.0579 523.769 57.3368 523.769 Q63.5752 523.769 67.14 527.293 Q70.6643 530.777 70.6643 536.894 Q70.6643 543.051 67.14 546.535 Q63.5752 550.019 57.3368 550.019 Q51.0579 550.019 47.5336 546.535 Q44.0093 543.051 44.0093 536.894 Z" fill="#000000" fill-rule="evenodd" fill-opacity="1" /><path clip-path="url(#clip200)" d="M 0 0 M41.2547 470.338 L49.8831 470.338 Q46.0348 474.47 44.1308 479.169 Q42.2269 483.827 42.2269 489.093 Q42.2269 499.464 48.5868 504.973 Q54.9062 510.482 66.8969 510.482 Q78.8471 510.482 85.207 504.973 Q91.5264 499.464 91.5264 489.093 Q91.5264 483.827 89.6225 479.169 Q87.7186 474.47 83.8702 470.338 L92.4176 470.338 Q95.3343 474.632 96.7926 479.452 Q98.2509 484.232 98.2509 489.58 Q98.2509 503.312 89.8655 511.211 Q81.4397 519.111 66.8969 519.111 Q52.3137 519.111 43.9283 511.211 Q35.5024 503.312 35.5024 489.58 Q35.5024 484.151 36.9607 479.371 Q38.3786 474.551 41.2547 470.338 Z" fill="#000000" fill-rule="evenodd" fill-opacity="1" /><path clip-path="url(#clip200)" d="M 0 0 M34.1251 463.694 L34.1251 457.213 Q43.6852 451.136 52.8403 448.139 Q61.9953 445.101 71.0288 445.101 Q80.1029 445.101 89.2984 448.139 Q98.494 451.136 108.014 457.213 L108.014 463.694 Q98.737 458.307 89.582 455.673 Q80.3864 453 71.0288 453 Q61.6713 453 52.5567 455.673 Q43.4422 458.307 34.1251 463.694 Z" fill="#000000" fill-rule="evenodd" fill-opacity="1" /><g clip-path="url(#clip200)">
<text style="fill:#000000; fill-opacity:1; font-family:Times New Roman,TimesNewRoman,Times,Baskerville,Georgia,serif; font-size:130px; text-anchor:middle;" transform="rotate(0, 1302.51, 103.2)" x="1302.51" y="103.2">ADMM iteration 10</text>
</g>
<polyline clip-path="url(#clip202)" style="stroke:#009af9; stroke-width:8; stroke-opacity:1; fill:none" points="
  311.707,961.193 344.734,941.792 377.76,904.022 410.787,862.906 443.814,823.59 476.84,787.631 509.867,755.3 542.894,726.432 575.921,700.728 608.947,677.869 
  641.974,657.548 675.001,657.55 708.027,657.553 741.054,657.555 774.081,657.557 807.107,657.559 840.134,657.562 873.161,657.564 906.187,657.566 939.214,657.569 
  972.241,657.573 
  "/>
<circle clip-path="url(#clip202)" cx="311.707" cy="961.193" r="10" fill="#009af9" fill-rule="evenodd" fill-opacity="1" stroke="#000000" stroke-opacity="1" stroke-width="0"/>
<circle clip-path="url(#clip202)" cx="344.734" cy="941.792" r="10" fill="#009af9" fill-rule="evenodd" fill-opacity="1" stroke="#000000" stroke-opacity="1" stroke-width="0"/>
<circle clip-path="url(#clip202)" cx="377.76" cy="904.022" r="10" fill="#009af9" fill-rule="evenodd" fill-opacity="1" stroke="#000000" stroke-opacity="1" stroke-width="0"/>
<circle clip-path="url(#clip202)" cx="410.787" cy="862.906" r="10" fill="#009af9" fill-rule="evenodd" fill-opacity="1" stroke="#000000" stroke-opacity="1" stroke-width="0"/>
<circle clip-path="url(#clip202)" cx="443.814" cy="823.59" r="10" fill="#009af9" fill-rule="evenodd" fill-opacity="1" stroke="#000000" stroke-opacity="1" stroke-width="0"/>
<circle clip-path="url(#clip202)" cx="476.84" cy="787.631" r="10" fill="#009af9" fill-rule="evenodd" fill-opacity="1" stroke="#000000" stroke-opacity="1" stroke-width="0"/>
<circle clip-path="url(#clip202)" cx="509.867" cy="755.3" r="10" fill="#009af9" fill-rule="evenodd" fill-opacity="1" stroke="#000000" stroke-opacity="1" stroke-width="0"/>
<circle clip-path="url(#clip202)" cx="542.894" cy="726.432" r="10" fill="#009af9" fill-rule="evenodd" fill-opacity="1" stroke="#000000" stroke-opacity="1" stroke-width="0"/>
<circle clip-path="url(#clip202)" cx="575.921" cy="700.728" r="10" fill="#009af9" fill-rule="evenodd" fill-opacity="1" stroke="#000000" stroke-opacity="1" stroke-width="0"/>
<circle clip-path="url(#clip202)" cx="608.947" cy="677.869" r="10" fill="#009af9" fill-rule="evenodd" fill-opacity="1" stroke="#000000" stroke-opacity="1" stroke-width="0"/>
<circle clip-path="url(#clip202)" cx="641.974" cy="657.548" r="10" fill="#009af9" fill-rule="evenodd" fill-opacity="1" stroke="#000000" stroke-opacity="1" stroke-width="0"/>
<circle clip-path="url(#clip202)" cx="675.001" cy="657.55" r="10" fill="#009af9" fill-rule="evenodd" fill-opacity="1" stroke="#000000" stroke-opacity="1" stroke-width="0"/>
<circle clip-path="url(#clip202)" cx="708.027" cy="657.553" r="10" fill="#009af9" fill-rule="evenodd" fill-opacity="1" stroke="#000000" stroke-opacity="1" stroke-width="0"/>
<circle clip-path="url(#clip202)" cx="741.054" cy="657.555" r="10" fill="#009af9" fill-rule="evenodd" fill-opacity="1" stroke="#000000" stroke-opacity="1" stroke-width="0"/>
<circle clip-path="url(#clip202)" cx="774.081" cy="657.557" r="10" fill="#009af9" fill-rule="evenodd" fill-opacity="1" stroke="#000000" stroke-opacity="1" stroke-width="0"/>
<circle clip-path="url(#clip202)" cx="807.107" cy="657.559" r="10" fill="#009af9" fill-rule="evenodd" fill-opacity="1" stroke="#000000" stroke-opacity="1" stroke-width="0"/>
<circle clip-path="url(#clip202)" cx="840.134" cy="657.562" r="10" fill="#009af9" fill-rule="evenodd" fill-opacity="1" stroke="#000000" stroke-opacity="1" stroke-width="0"/>
<circle clip-path="url(#clip202)" cx="873.161" cy="657.564" r="10" fill="#009af9" fill-rule="evenodd" fill-opacity="1" stroke="#000000" stroke-opacity="1" stroke-width="0"/>
<circle clip-path="url(#clip202)" cx="906.187" cy="657.566" r="10" fill="#009af9" fill-rule="evenodd" fill-opacity="1" stroke="#000000" stroke-opacity="1" stroke-width="0"/>
<circle clip-path="url(#clip202)" cx="939.214" cy="657.569" r="10" fill="#009af9" fill-rule="evenodd" fill-opacity="1" stroke="#000000" stroke-opacity="1" stroke-width="0"/>
<circle clip-path="url(#clip202)" cx="972.241" cy="657.573" r="10" fill="#009af9" fill-rule="evenodd" fill-opacity="1" stroke="#000000" stroke-opacity="1" stroke-width="0"/>
<polyline clip-path="url(#clip202)" style="stroke:#e26f46; stroke-width:8; stroke-opacity:1; fill:none" stroke-dasharray="32, 20" points="
  972.241,569.909 1005.27,587.92 1038.29,627.622 1071.32,675.194 1104.35,725.698 1137.37,777.301 1170.4,829.328 1203.43,881.533 1236.45,933.831 1269.48,986.213 
  1302.51,1034.91 1335.53,1030.25 1368.56,979.435 1401.59,911.125 1434.61,843.47 1467.64,780.754 1500.67,724.035 1533.69,673.239 1566.72,627.929 1599.75,587.579 
  1632.77,551.67 
  "/>
<line clip-path="url(#clip202)" x1="972.241" y1="569.909" x2="972.241" y2="557.909" style="stroke:#e26f46; stroke-width:3.2; stroke-opacity:1"/>
<line clip-path="url(#clip202)" x1="972.241" y1="569.909" x2="960.241" y2="569.909" style="stroke:#e26f46; stroke-width:3.2; stroke-opacity:1"/>
<line clip-path="url(#clip202)" x1="972.241" y1="569.909" x2="972.241" y2="581.909" style="stroke:#e26f46; stroke-width:3.2; stroke-opacity:1"/>
<line clip-path="url(#clip202)" x1="972.241" y1="569.909" x2="984.241" y2="569.909" style="stroke:#e26f46; stroke-width:3.2; stroke-opacity:1"/>
<line clip-path="url(#clip202)" x1="1005.27" y1="587.92" x2="1005.27" y2="575.92" style="stroke:#e26f46; stroke-width:3.2; stroke-opacity:1"/>
<line clip-path="url(#clip202)" x1="1005.27" y1="587.92" x2="993.267" y2="587.92" style="stroke:#e26f46; stroke-width:3.2; stroke-opacity:1"/>
<line clip-path="url(#clip202)" x1="1005.27" y1="587.92" x2="1005.27" y2="599.92" style="stroke:#e26f46; stroke-width:3.2; stroke-opacity:1"/>
<line clip-path="url(#clip202)" x1="1005.27" y1="587.92" x2="1017.27" y2="587.92" style="stroke:#e26f46; stroke-width:3.2; stroke-opacity:1"/>
<line clip-path="url(#clip202)" x1="1038.29" y1="627.622" x2="1038.29" y2="615.622" style="stroke:#e26f46; stroke-width:3.2; stroke-opacity:1"/>
<line clip-path="url(#clip202)" x1="1038.29" y1="627.622" x2="1026.29" y2="627.622" style="stroke:#e26f46; stroke-width:3.2; stroke-opacity:1"/>
<line clip-path="url(#clip202)" x1="1038.29" y1="627.622" x2="1038.29" y2="639.622" style="stroke:#e26f46; stroke-width:3.2; stroke-opacity:1"/>
<line clip-path="url(#clip202)" x1="1038.29" y1="627.622" x2="1050.29" y2="627.622" style="stroke:#e26f46; stroke-width:3.2; stroke-opacity:1"/>
<line clip-path="url(#clip202)" x1="1071.32" y1="675.194" x2="1071.32" y2="663.194" style="stroke:#e26f46; stroke-width:3.2; stroke-opacity:1"/>
<line clip-path="url(#clip202)" x1="1071.32" y1="675.194" x2="1059.32" y2="675.194" style="stroke:#e26f46; stroke-width:3.2; stroke-opacity:1"/>
<line clip-path="url(#clip202)" x1="1071.32" y1="675.194" x2="1071.32" y2="687.194" style="stroke:#e26f46; stroke-width:3.2; stroke-opacity:1"/>
<line clip-path="url(#clip202)" x1="1071.32" y1="675.194" x2="1083.32" y2="675.194" style="stroke:#e26f46; stroke-width:3.2; stroke-opacity:1"/>
<line clip-path="url(#clip202)" x1="1104.35" y1="725.698" x2="1104.35" y2="713.698" style="stroke:#e26f46; stroke-width:3.2; stroke-opacity:1"/>
<line clip-path="url(#clip202)" x1="1104.35" y1="725.698" x2="1092.35" y2="725.698" style="stroke:#e26f46; stroke-width:3.2; stroke-opacity:1"/>
<line clip-path="url(#clip202)" x1="1104.35" y1="725.698" x2="1104.35" y2="737.698" style="stroke:#e26f46; stroke-width:3.2; stroke-opacity:1"/>
<line clip-path="url(#clip202)" x1="1104.35" y1="725.698" x2="1116.35" y2="725.698" style="stroke:#e26f46; stroke-width:3.2; stroke-opacity:1"/>
<line clip-path="url(#clip202)" x1="1137.37" y1="777.301" x2="1137.37" y2="765.301" style="stroke:#e26f46; stroke-width:3.2; stroke-opacity:1"/>
<line clip-path="url(#clip202)" x1="1137.37" y1="777.301" x2="1125.37" y2="777.301" style="stroke:#e26f46; stroke-width:3.2; stroke-opacity:1"/>
<line clip-path="url(#clip202)" x1="1137.37" y1="777.301" x2="1137.37" y2="789.301" style="stroke:#e26f46; stroke-width:3.2; stroke-opacity:1"/>
<line clip-path="url(#clip202)" x1="1137.37" y1="777.301" x2="1149.37" y2="777.301" style="stroke:#e26f46; stroke-width:3.2; stroke-opacity:1"/>
<line clip-path="url(#clip202)" x1="1170.4" y1="829.328" x2="1170.4" y2="817.328" style="stroke:#e26f46; stroke-width:3.2; stroke-opacity:1"/>
<line clip-path="url(#clip202)" x1="1170.4" y1="829.328" x2="1158.4" y2="829.328" style="stroke:#e26f46; stroke-width:3.2; stroke-opacity:1"/>
<line clip-path="url(#clip202)" x1="1170.4" y1="829.328" x2="1170.4" y2="841.328" style="stroke:#e26f46; stroke-width:3.2; stroke-opacity:1"/>
<line clip-path="url(#clip202)" x1="1170.4" y1="829.328" x2="1182.4" y2="829.328" style="stroke:#e26f46; stroke-width:3.2; stroke-opacity:1"/>
<line clip-path="url(#clip202)" x1="1203.43" y1="881.533" x2="1203.43" y2="869.533" style="stroke:#e26f46; stroke-width:3.2; stroke-opacity:1"/>
<line clip-path="url(#clip202)" x1="1203.43" y1="881.533" x2="1191.43" y2="881.533" style="stroke:#e26f46; stroke-width:3.2; stroke-opacity:1"/>
<line clip-path="url(#clip202)" x1="1203.43" y1="881.533" x2="1203.43" y2="893.533" style="stroke:#e26f46; stroke-width:3.2; stroke-opacity:1"/>
<line clip-path="url(#clip202)" x1="1203.43" y1="881.533" x2="1215.43" y2="881.533" style="stroke:#e26f46; stroke-width:3.2; stroke-opacity:1"/>
<line clip-path="url(#clip202)" x1="1236.45" y1="933.831" x2="1236.45" y2="921.831" style="stroke:#e26f46; stroke-width:3.2; stroke-opacity:1"/>
<line clip-path="url(#clip202)" x1="1236.45" y1="933.831" x2="1224.45" y2="933.831" style="stroke:#e26f46; stroke-width:3.2; stroke-opacity:1"/>
<line clip-path="url(#clip202)" x1="1236.45" y1="933.831" x2="1236.45" y2="945.831" style="stroke:#e26f46; stroke-width:3.2; stroke-opacity:1"/>
<line clip-path="url(#clip202)" x1="1236.45" y1="933.831" x2="1248.45" y2="933.831" style="stroke:#e26f46; stroke-width:3.2; stroke-opacity:1"/>
<line clip-path="url(#clip202)" x1="1269.48" y1="986.213" x2="1269.48" y2="974.213" style="stroke:#e26f46; stroke-width:3.2; stroke-opacity:1"/>
<line clip-path="url(#clip202)" x1="1269.48" y1="986.213" x2="1257.48" y2="986.213" style="stroke:#e26f46; stroke-width:3.2; stroke-opacity:1"/>
<line clip-path="url(#clip202)" x1="1269.48" y1="986.213" x2="1269.48" y2="998.213" style="stroke:#e26f46; stroke-width:3.2; stroke-opacity:1"/>
<line clip-path="url(#clip202)" x1="1269.48" y1="986.213" x2="1281.48" y2="986.213" style="stroke:#e26f46; stroke-width:3.2; stroke-opacity:1"/>
<line clip-path="url(#clip202)" x1="1302.51" y1="1034.91" x2="1302.51" y2="1022.91" style="stroke:#e26f46; stroke-width:3.2; stroke-opacity:1"/>
<line clip-path="url(#clip202)" x1="1302.51" y1="1034.91" x2="1290.51" y2="1034.91" style="stroke:#e26f46; stroke-width:3.2; stroke-opacity:1"/>
<line clip-path="url(#clip202)" x1="1302.51" y1="1034.91" x2="1302.51" y2="1046.91" style="stroke:#e26f46; stroke-width:3.2; stroke-opacity:1"/>
<line clip-path="url(#clip202)" x1="1302.51" y1="1034.91" x2="1314.51" y2="1034.91" style="stroke:#e26f46; stroke-width:3.2; stroke-opacity:1"/>
<line clip-path="url(#clip202)" x1="1335.53" y1="1030.25" x2="1335.53" y2="1018.25" style="stroke:#e26f46; stroke-width:3.2; stroke-opacity:1"/>
<line clip-path="url(#clip202)" x1="1335.53" y1="1030.25" x2="1323.53" y2="1030.25" style="stroke:#e26f46; stroke-width:3.2; stroke-opacity:1"/>
<line clip-path="url(#clip202)" x1="1335.53" y1="1030.25" x2="1335.53" y2="1042.25" style="stroke:#e26f46; stroke-width:3.2; stroke-opacity:1"/>
<line clip-path="url(#clip202)" x1="1335.53" y1="1030.25" x2="1347.53" y2="1030.25" style="stroke:#e26f46; stroke-width:3.2; stroke-opacity:1"/>
<line clip-path="url(#clip202)" x1="1368.56" y1="979.435" x2="1368.56" y2="967.435" style="stroke:#e26f46; stroke-width:3.2; stroke-opacity:1"/>
<line clip-path="url(#clip202)" x1="1368.56" y1="979.435" x2="1356.56" y2="979.435" style="stroke:#e26f46; stroke-width:3.2; stroke-opacity:1"/>
<line clip-path="url(#clip202)" x1="1368.56" y1="979.435" x2="1368.56" y2="991.435" style="stroke:#e26f46; stroke-width:3.2; stroke-opacity:1"/>
<line clip-path="url(#clip202)" x1="1368.56" y1="979.435" x2="1380.56" y2="979.435" style="stroke:#e26f46; stroke-width:3.2; stroke-opacity:1"/>
<line clip-path="url(#clip202)" x1="1401.59" y1="911.125" x2="1401.59" y2="899.125" style="stroke:#e26f46; stroke-width:3.2; stroke-opacity:1"/>
<line clip-path="url(#clip202)" x1="1401.59" y1="911.125" x2="1389.59" y2="911.125" style="stroke:#e26f46; stroke-width:3.2; stroke-opacity:1"/>
<line clip-path="url(#clip202)" x1="1401.59" y1="911.125" x2="1401.59" y2="923.125" style="stroke:#e26f46; stroke-width:3.2; stroke-opacity:1"/>
<line clip-path="url(#clip202)" x1="1401.59" y1="911.125" x2="1413.59" y2="911.125" style="stroke:#e26f46; stroke-width:3.2; stroke-opacity:1"/>
<line clip-path="url(#clip202)" x1="1434.61" y1="843.47" x2="1434.61" y2="831.47" style="stroke:#e26f46; stroke-width:3.2; stroke-opacity:1"/>
<line clip-path="url(#clip202)" x1="1434.61" y1="843.47" x2="1422.61" y2="843.47" style="stroke:#e26f46; stroke-width:3.2; stroke-opacity:1"/>
<line clip-path="url(#clip202)" x1="1434.61" y1="843.47" x2="1434.61" y2="855.47" style="stroke:#e26f46; stroke-width:3.2; stroke-opacity:1"/>
<line clip-path="url(#clip202)" x1="1434.61" y1="843.47" x2="1446.61" y2="843.47" style="stroke:#e26f46; stroke-width:3.2; stroke-opacity:1"/>
<line clip-path="url(#clip202)" x1="1467.64" y1="780.754" x2="1467.64" y2="768.754" style="stroke:#e26f46; stroke-width:3.2; stroke-opacity:1"/>
<line clip-path="url(#clip202)" x1="1467.64" y1="780.754" x2="1455.64" y2="780.754" style="stroke:#e26f46; stroke-width:3.2; stroke-opacity:1"/>
<line clip-path="url(#clip202)" x1="1467.64" y1="780.754" x2="1467.64" y2="792.754" style="stroke:#e26f46; stroke-width:3.2; stroke-opacity:1"/>
<line clip-path="url(#clip202)" x1="1467.64" y1="780.754" x2="1479.64" y2="780.754" style="stroke:#e26f46; stroke-width:3.2; stroke-opacity:1"/>
<line clip-path="url(#clip202)" x1="1500.67" y1="724.035" x2="1500.67" y2="712.035" style="stroke:#e26f46; stroke-width:3.2; stroke-opacity:1"/>
<line clip-path="url(#clip202)" x1="1500.67" y1="724.035" x2="1488.67" y2="724.035" style="stroke:#e26f46; stroke-width:3.2; stroke-opacity:1"/>
<line clip-path="url(#clip202)" x1="1500.67" y1="724.035" x2="1500.67" y2="736.035" style="stroke:#e26f46; stroke-width:3.2; stroke-opacity:1"/>
<line clip-path="url(#clip202)" x1="1500.67" y1="724.035" x2="1512.67" y2="724.035" style="stroke:#e26f46; stroke-width:3.2; stroke-opacity:1"/>
<line clip-path="url(#clip202)" x1="1533.69" y1="673.239" x2="1533.69" y2="661.239" style="stroke:#e26f46; stroke-width:3.2; stroke-opacity:1"/>
<line clip-path="url(#clip202)" x1="1533.69" y1="673.239" x2="1521.69" y2="673.239" style="stroke:#e26f46; stroke-width:3.2; stroke-opacity:1"/>
<line clip-path="url(#clip202)" x1="1533.69" y1="673.239" x2="1533.69" y2="685.239" style="stroke:#e26f46; stroke-width:3.2; stroke-opacity:1"/>
<line clip-path="url(#clip202)" x1="1533.69" y1="673.239" x2="1545.69" y2="673.239" style="stroke:#e26f46; stroke-width:3.2; stroke-opacity:1"/>
<line clip-path="url(#clip202)" x1="1566.72" y1="627.929" x2="1566.72" y2="615.929" style="stroke:#e26f46; stroke-width:3.2; stroke-opacity:1"/>
<line clip-path="url(#clip202)" x1="1566.72" y1="627.929" x2="1554.72" y2="627.929" style="stroke:#e26f46; stroke-width:3.2; stroke-opacity:1"/>
<line clip-path="url(#clip202)" x1="1566.72" y1="627.929" x2="1566.72" y2="639.929" style="stroke:#e26f46; stroke-width:3.2; stroke-opacity:1"/>
<line clip-path="url(#clip202)" x1="1566.72" y1="627.929" x2="1578.72" y2="627.929" style="stroke:#e26f46; stroke-width:3.2; stroke-opacity:1"/>
<line clip-path="url(#clip202)" x1="1599.75" y1="587.579" x2="1599.75" y2="575.579" style="stroke:#e26f46; stroke-width:3.2; stroke-opacity:1"/>
<line clip-path="url(#clip202)" x1="1599.75" y1="587.579" x2="1587.75" y2="587.579" style="stroke:#e26f46; stroke-width:3.2; stroke-opacity:1"/>
<line clip-path="url(#clip202)" x1="1599.75" y1="587.579" x2="1599.75" y2="599.579" style="stroke:#e26f46; stroke-width:3.2; stroke-opacity:1"/>
<line clip-path="url(#clip202)" x1="1599.75" y1="587.579" x2="1611.75" y2="587.579" style="stroke:#e26f46; stroke-width:3.2; stroke-opacity:1"/>
<line clip-path="url(#clip202)" x1="1632.77" y1="551.67" x2="1632.77" y2="539.67" style="stroke:#e26f46; stroke-width:3.2; stroke-opacity:1"/>
<line clip-path="url(#clip202)" x1="1632.77" y1="551.67" x2="1620.77" y2="551.67" style="stroke:#e26f46; stroke-width:3.2; stroke-opacity:1"/>
<line clip-path="url(#clip202)" x1="1632.77" y1="551.67" x2="1632.77" y2="563.67" style="stroke:#e26f46; stroke-width:3.2; stroke-opacity:1"/>
<line clip-path="url(#clip202)" x1="1632.77" y1="551.67" x2="1644.77" y2="551.67" style="stroke:#e26f46; stroke-width:3.2; stroke-opacity:1"/>
<polyline clip-path="url(#clip202)" style="stroke:#3da44d; stroke-width:8; stroke-opacity:1; fill:none" points="
  1632.77,458.838 1665.8,458.839 1698.83,458.84 1731.85,458.84 1764.88,458.841 1797.91,458.842 1830.93,458.842 1863.96,458.843 1896.99,458.844 1930.01,458.845 
  1963.04,458.846 1996.07,488.154 2029.09,548.407 2062.12,620.162 2095.15,696.206 2128.17,773.865 2161.2,852.155 2194.23,930.72 2227.25,1010.5 2260.28,1081.58 
  2293.31,1144.89 
  "/>
<line clip-path="url(#clip202)" x1="1632.77" y1="458.838" x2="1620.77" y2="446.838" style="stroke:#3da44d; stroke-width:3.2; stroke-opacity:1"/>
<line clip-path="url(#clip202)" x1="1632.77" y1="458.838" x2="1620.77" y2="470.838" style="stroke:#3da44d; stroke-width:3.2; stroke-opacity:1"/>
<line clip-path="url(#clip202)" x1="1632.77" y1="458.838" x2="1644.77" y2="470.838" style="stroke:#3da44d; stroke-width:3.2; stroke-opacity:1"/>
<line clip-path="url(#clip202)" x1="1632.77" y1="458.838" x2="1644.77" y2="446.838" style="stroke:#3da44d; stroke-width:3.2; stroke-opacity:1"/>
<line clip-path="url(#clip202)" x1="1665.8" y1="458.839" x2="1653.8" y2="446.839" style="stroke:#3da44d; stroke-width:3.2; stroke-opacity:1"/>
<line clip-path="url(#clip202)" x1="1665.8" y1="458.839" x2="1653.8" y2="470.839" style="stroke:#3da44d; stroke-width:3.2; stroke-opacity:1"/>
<line clip-path="url(#clip202)" x1="1665.8" y1="458.839" x2="1677.8" y2="470.839" style="stroke:#3da44d; stroke-width:3.2; stroke-opacity:1"/>
<line clip-path="url(#clip202)" x1="1665.8" y1="458.839" x2="1677.8" y2="446.839" style="stroke:#3da44d; stroke-width:3.2; stroke-opacity:1"/>
<line clip-path="url(#clip202)" x1="1698.83" y1="458.84" x2="1686.83" y2="446.84" style="stroke:#3da44d; stroke-width:3.2; stroke-opacity:1"/>
<line clip-path="url(#clip202)" x1="1698.83" y1="458.84" x2="1686.83" y2="470.84" style="stroke:#3da44d; stroke-width:3.2; stroke-opacity:1"/>
<line clip-path="url(#clip202)" x1="1698.83" y1="458.84" x2="1710.83" y2="470.84" style="stroke:#3da44d; stroke-width:3.2; stroke-opacity:1"/>
<line clip-path="url(#clip202)" x1="1698.83" y1="458.84" x2="1710.83" y2="446.84" style="stroke:#3da44d; stroke-width:3.2; stroke-opacity:1"/>
<line clip-path="url(#clip202)" x1="1731.85" y1="458.84" x2="1719.85" y2="446.84" style="stroke:#3da44d; stroke-width:3.2; stroke-opacity:1"/>
<line clip-path="url(#clip202)" x1="1731.85" y1="458.84" x2="1719.85" y2="470.84" style="stroke:#3da44d; stroke-width:3.2; stroke-opacity:1"/>
<line clip-path="url(#clip202)" x1="1731.85" y1="458.84" x2="1743.85" y2="470.84" style="stroke:#3da44d; stroke-width:3.2; stroke-opacity:1"/>
<line clip-path="url(#clip202)" x1="1731.85" y1="458.84" x2="1743.85" y2="446.84" style="stroke:#3da44d; stroke-width:3.2; stroke-opacity:1"/>
<line clip-path="url(#clip202)" x1="1764.88" y1="458.841" x2="1752.88" y2="446.841" style="stroke:#3da44d; stroke-width:3.2; stroke-opacity:1"/>
<line clip-path="url(#clip202)" x1="1764.88" y1="458.841" x2="1752.88" y2="470.841" style="stroke:#3da44d; stroke-width:3.2; stroke-opacity:1"/>
<line clip-path="url(#clip202)" x1="1764.88" y1="458.841" x2="1776.88" y2="470.841" style="stroke:#3da44d; stroke-width:3.2; stroke-opacity:1"/>
<line clip-path="url(#clip202)" x1="1764.88" y1="458.841" x2="1776.88" y2="446.841" style="stroke:#3da44d; stroke-width:3.2; stroke-opacity:1"/>
<line clip-path="url(#clip202)" x1="1797.91" y1="458.842" x2="1785.91" y2="446.842" style="stroke:#3da44d; stroke-width:3.2; stroke-opacity:1"/>
<line clip-path="url(#clip202)" x1="1797.91" y1="458.842" x2="1785.91" y2="470.842" style="stroke:#3da44d; stroke-width:3.2; stroke-opacity:1"/>
<line clip-path="url(#clip202)" x1="1797.91" y1="458.842" x2="1809.91" y2="470.842" style="stroke:#3da44d; stroke-width:3.2; stroke-opacity:1"/>
<line clip-path="url(#clip202)" x1="1797.91" y1="458.842" x2="1809.91" y2="446.842" style="stroke:#3da44d; stroke-width:3.2; stroke-opacity:1"/>
<line clip-path="url(#clip202)" x1="1830.93" y1="458.842" x2="1818.93" y2="446.842" style="stroke:#3da44d; stroke-width:3.2; stroke-opacity:1"/>
<line clip-path="url(#clip202)" x1="1830.93" y1="458.842" x2="1818.93" y2="470.842" style="stroke:#3da44d; stroke-width:3.2; stroke-opacity:1"/>
<line clip-path="url(#clip202)" x1="1830.93" y1="458.842" x2="1842.93" y2="470.842" style="stroke:#3da44d; stroke-width:3.2; stroke-opacity:1"/>
<line clip-path="url(#clip202)" x1="1830.93" y1="458.842" x2="1842.93" y2="446.842" style="stroke:#3da44d; stroke-width:3.2; stroke-opacity:1"/>
<line clip-path="url(#clip202)" x1="1863.96" y1="458.843" x2="1851.96" y2="446.843" style="stroke:#3da44d; stroke-width:3.2; stroke-opacity:1"/>
<line clip-path="url(#clip202)" x1="1863.96" y1="458.843" x2="1851.96" y2="470.843" style="stroke:#3da44d; stroke-width:3.2; stroke-opacity:1"/>
<line clip-path="url(#clip202)" x1="1863.96" y1="458.843" x2="1875.96" y2="470.843" style="stroke:#3da44d; stroke-width:3.2; stroke-opacity:1"/>
<line clip-path="url(#clip202)" x1="1863.96" y1="458.843" x2="1875.96" y2="446.843" style="stroke:#3da44d; stroke-width:3.2; stroke-opacity:1"/>
<line clip-path="url(#clip202)" x1="1896.99" y1="458.844" x2="1884.99" y2="446.844" style="stroke:#3da44d; stroke-width:3.2; stroke-opacity:1"/>
<line clip-path="url(#clip202)" x1="1896.99" y1="458.844" x2="1884.99" y2="470.844" style="stroke:#3da44d; stroke-width:3.2; stroke-opacity:1"/>
<line clip-path="url(#clip202)" x1="1896.99" y1="458.844" x2="1908.99" y2="470.844" style="stroke:#3da44d; stroke-width:3.2; stroke-opacity:1"/>
<line clip-path="url(#clip202)" x1="1896.99" y1="458.844" x2="1908.99" y2="446.844" style="stroke:#3da44d; stroke-width:3.2; stroke-opacity:1"/>
<line clip-path="url(#clip202)" x1="1930.01" y1="458.845" x2="1918.01" y2="446.845" style="stroke:#3da44d; stroke-width:3.2; stroke-opacity:1"/>
<line clip-path="url(#clip202)" x1="1930.01" y1="458.845" x2="1918.01" y2="470.845" style="stroke:#3da44d; stroke-width:3.2; stroke-opacity:1"/>
<line clip-path="url(#clip202)" x1="1930.01" y1="458.845" x2="1942.01" y2="470.845" style="stroke:#3da44d; stroke-width:3.2; stroke-opacity:1"/>
<line clip-path="url(#clip202)" x1="1930.01" y1="458.845" x2="1942.01" y2="446.845" style="stroke:#3da44d; stroke-width:3.2; stroke-opacity:1"/>
<line clip-path="url(#clip202)" x1="1963.04" y1="458.846" x2="1951.04" y2="446.846" style="stroke:#3da44d; stroke-width:3.2; stroke-opacity:1"/>
<line clip-path="url(#clip202)" x1="1963.04" y1="458.846" x2="1951.04" y2="470.846" style="stroke:#3da44d; stroke-width:3.2; stroke-opacity:1"/>
<line clip-path="url(#clip202)" x1="1963.04" y1="458.846" x2="1975.04" y2="470.846" style="stroke:#3da44d; stroke-width:3.2; stroke-opacity:1"/>
<line clip-path="url(#clip202)" x1="1963.04" y1="458.846" x2="1975.04" y2="446.846" style="stroke:#3da44d; stroke-width:3.2; stroke-opacity:1"/>
<line clip-path="url(#clip202)" x1="1996.07" y1="488.154" x2="1984.07" y2="476.154" style="stroke:#3da44d; stroke-width:3.2; stroke-opacity:1"/>
<line clip-path="url(#clip202)" x1="1996.07" y1="488.154" x2="1984.07" y2="500.154" style="stroke:#3da44d; stroke-width:3.2; stroke-opacity:1"/>
<line clip-path="url(#clip202)" x1="1996.07" y1="488.154" x2="2008.07" y2="500.154" style="stroke:#3da44d; stroke-width:3.2; stroke-opacity:1"/>
<line clip-path="url(#clip202)" x1="1996.07" y1="488.154" x2="2008.07" y2="476.154" style="stroke:#3da44d; stroke-width:3.2; stroke-opacity:1"/>
<line clip-path="url(#clip202)" x1="2029.09" y1="548.407" x2="2017.09" y2="536.407" style="stroke:#3da44d; stroke-width:3.2; stroke-opacity:1"/>
<line clip-path="url(#clip202)" x1="2029.09" y1="548.407" x2="2017.09" y2="560.407" style="stroke:#3da44d; stroke-width:3.2; stroke-opacity:1"/>
<line clip-path="url(#clip202)" x1="2029.09" y1="548.407" x2="2041.09" y2="560.407" style="stroke:#3da44d; stroke-width:3.2; stroke-opacity:1"/>
<line clip-path="url(#clip202)" x1="2029.09" y1="548.407" x2="2041.09" y2="536.407" style="stroke:#3da44d; stroke-width:3.2; stroke-opacity:1"/>
<line clip-path="url(#clip202)" x1="2062.12" y1="620.162" x2="2050.12" y2="608.162" style="stroke:#3da44d; stroke-width:3.2; stroke-opacity:1"/>
<line clip-path="url(#clip202)" x1="2062.12" y1="620.162" x2="2050.12" y2="632.162" style="stroke:#3da44d; stroke-width:3.2; stroke-opacity:1"/>
<line clip-path="url(#clip202)" x1="2062.12" y1="620.162" x2="2074.12" y2="632.162" style="stroke:#3da44d; stroke-width:3.2; stroke-opacity:1"/>
<line clip-path="url(#clip202)" x1="2062.12" y1="620.162" x2="2074.12" y2="608.162" style="stroke:#3da44d; stroke-width:3.2; stroke-opacity:1"/>
<line clip-path="url(#clip202)" x1="2095.15" y1="696.206" x2="2083.15" y2="684.206" style="stroke:#3da44d; stroke-width:3.2; stroke-opacity:1"/>
<line clip-path="url(#clip202)" x1="2095.15" y1="696.206" x2="2083.15" y2="708.206" style="stroke:#3da44d; stroke-width:3.2; stroke-opacity:1"/>
<line clip-path="url(#clip202)" x1="2095.15" y1="696.206" x2="2107.15" y2="708.206" style="stroke:#3da44d; stroke-width:3.2; stroke-opacity:1"/>
<line clip-path="url(#clip202)" x1="2095.15" y1="696.206" x2="2107.15" y2="684.206" style="stroke:#3da44d; stroke-width:3.2; stroke-opacity:1"/>
<line clip-path="url(#clip202)" x1="2128.17" y1="773.865" x2="2116.17" y2="761.865" style="stroke:#3da44d; stroke-width:3.2; stroke-opacity:1"/>
<line clip-path="url(#clip202)" x1="2128.17" y1="773.865" x2="2116.17" y2="785.865" style="stroke:#3da44d; stroke-width:3.2; stroke-opacity:1"/>
<line clip-path="url(#clip202)" x1="2128.17" y1="773.865" x2="2140.17" y2="785.865" style="stroke:#3da44d; stroke-width:3.2; stroke-opacity:1"/>
<line clip-path="url(#clip202)" x1="2128.17" y1="773.865" x2="2140.17" y2="761.865" style="stroke:#3da44d; stroke-width:3.2; stroke-opacity:1"/>
<line clip-path="url(#clip202)" x1="2161.2" y1="852.155" x2="2149.2" y2="840.155" style="stroke:#3da44d; stroke-width:3.2; stroke-opacity:1"/>
<line clip-path="url(#clip202)" x1="2161.2" y1="852.155" x2="2149.2" y2="864.155" style="stroke:#3da44d; stroke-width:3.2; stroke-opacity:1"/>
<line clip-path="url(#clip202)" x1="2161.2" y1="852.155" x2="2173.2" y2="864.155" style="stroke:#3da44d; stroke-width:3.2; stroke-opacity:1"/>
<line clip-path="url(#clip202)" x1="2161.2" y1="852.155" x2="2173.2" y2="840.155" style="stroke:#3da44d; stroke-width:3.2; stroke-opacity:1"/>
<line clip-path="url(#clip202)" x1="2194.23" y1="930.72" x2="2182.23" y2="918.72" style="stroke:#3da44d; stroke-width:3.2; stroke-opacity:1"/>
<line clip-path="url(#clip202)" x1="2194.23" y1="930.72" x2="2182.23" y2="942.72" style="stroke:#3da44d; stroke-width:3.2; stroke-opacity:1"/>
<line clip-path="url(#clip202)" x1="2194.23" y1="930.72" x2="2206.23" y2="942.72" style="stroke:#3da44d; stroke-width:3.2; stroke-opacity:1"/>
<line clip-path="url(#clip202)" x1="2194.23" y1="930.72" x2="2206.23" y2="918.72" style="stroke:#3da44d; stroke-width:3.2; stroke-opacity:1"/>
<line clip-path="url(#clip202)" x1="2227.25" y1="1010.5" x2="2215.25" y2="998.504" style="stroke:#3da44d; stroke-width:3.2; stroke-opacity:1"/>
<line clip-path="url(#clip202)" x1="2227.25" y1="1010.5" x2="2215.25" y2="1022.5" style="stroke:#3da44d; stroke-width:3.2; stroke-opacity:1"/>
<line clip-path="url(#clip202)" x1="2227.25" y1="1010.5" x2="2239.25" y2="1022.5" style="stroke:#3da44d; stroke-width:3.2; stroke-opacity:1"/>
<line clip-path="url(#clip202)" x1="2227.25" y1="1010.5" x2="2239.25" y2="998.504" style="stroke:#3da44d; stroke-width:3.2; stroke-opacity:1"/>
<line clip-path="url(#clip202)" x1="2260.28" y1="1081.58" x2="2248.28" y2="1069.58" style="stroke:#3da44d; stroke-width:3.2; stroke-opacity:1"/>
<line clip-path="url(#clip202)" x1="2260.28" y1="1081.58" x2="2248.28" y2="1093.58" style="stroke:#3da44d; stroke-width:3.2; stroke-opacity:1"/>
<line clip-path="url(#clip202)" x1="2260.28" y1="1081.58" x2="2272.28" y2="1093.58" style="stroke:#3da44d; stroke-width:3.2; stroke-opacity:1"/>
<line clip-path="url(#clip202)" x1="2260.28" y1="1081.58" x2="2272.28" y2="1069.58" style="stroke:#3da44d; stroke-width:3.2; stroke-opacity:1"/>
<line clip-path="url(#clip202)" x1="2293.31" y1="1144.89" x2="2281.31" y2="1132.89" style="stroke:#3da44d; stroke-width:3.2; stroke-opacity:1"/>
<line clip-path="url(#clip202)" x1="2293.31" y1="1144.89" x2="2281.31" y2="1156.89" style="stroke:#3da44d; stroke-width:3.2; stroke-opacity:1"/>
<line clip-path="url(#clip202)" x1="2293.31" y1="1144.89" x2="2305.31" y2="1156.89" style="stroke:#3da44d; stroke-width:3.2; stroke-opacity:1"/>
<line clip-path="url(#clip202)" x1="2293.31" y1="1144.89" x2="2305.31" y2="1132.89" style="stroke:#3da44d; stroke-width:3.2; stroke-opacity:1"/>
<path clip-path="url(#clip200)" d="
M254.593 510.95 L986.625 510.95 L986.625 148.07 L254.593 148.07  Z
  " fill="#ffffff" fill-rule="evenodd" fill-opacity="1"/>
<polyline clip-path="url(#clip200)" style="stroke:#000000; stroke-width:4; stroke-opacity:1; fill:none" points="
  254.593,510.95 986.625,510.95 986.625,148.07 254.593,148.07 254.593,510.95 
  "/>
<polyline clip-path="url(#clip200)" style="stroke:#009af9; stroke-width:6; stroke-opacity:1; fill:none" points="
  277.932,238.79 417.965,238.79 
  "/>
<circle clip-path="url(#clip200)" cx="347.948" cy="238.79" r="34" fill="#009af9" fill-rule="evenodd" fill-opacity="1" stroke="#000000" stroke-opacity="1" stroke-width="0"/>
<path clip-path="url(#clip200)" d="M 0 0 M441.304 212.87 L485.158 212.87 L485.158 218.773 L466.755 218.773 L466.755 264.71 L459.706 264.71 L459.706 218.773 L441.304 218.773 L441.304 212.87 Z" fill="#000000" fill-rule="evenodd" fill-opacity="1" /><path clip-path="url(#clip200)" d="M 0 0 M493.352 213.564 L493.352 219.745 L501.651 219.745 L501.651 222.523 L493.352 222.523 L493.352 234.328 Q493.352 237.002 494.185 237.766 Q495.019 238.53 497.519 238.53 L501.651 238.53 L501.651 241.516 L497.519 241.516 Q492.866 241.516 491.095 239.953 Q489.324 238.425 489.324 234.328 L489.324 222.523 L486.373 222.523 L486.373 219.745 L489.324 219.745 L489.324 213.564 L493.352 213.564 Z" fill="#000000" fill-rule="evenodd" fill-opacity="1" /><path clip-path="url(#clip200)" d="M 0 0 M526.824 229.745 L526.824 231.481 L508.317 231.481 Q508.595 235.161 510.817 237.106 Q513.074 239.05 517.067 239.05 Q519.394 239.05 521.581 238.53 Q523.734 238.043 525.887 237.036 L525.887 240.405 Q523.734 241.238 521.442 241.655 Q519.185 242.071 516.824 242.071 Q510.956 242.071 507.553 239.05 Q504.116 236.03 504.116 230.856 Q504.116 225.509 507.38 222.349 Q510.609 219.224 516.13 219.224 Q521.06 219.224 523.942 222.037 Q526.824 224.884 526.824 229.745 M522.796 228.668 Q522.762 225.752 520.956 223.981 Q519.151 222.245 516.164 222.245 Q512.796 222.245 510.783 223.946 Q508.769 225.613 508.456 228.668 L522.796 228.668 Z" fill="#000000" fill-rule="evenodd" fill-opacity="1" /><path clip-path="url(#clip200)" d="M 0 0 M548.282 219.814 L548.282 223.182 Q546.581 222.419 544.741 222.037 Q542.935 221.655 540.956 221.655 Q537.935 221.655 536.442 222.453 Q534.949 223.287 534.949 224.918 Q534.949 226.168 536.025 226.863 Q537.102 227.592 540.331 228.217 L541.72 228.495 Q546.06 229.328 547.796 230.787 Q549.602 232.28 549.602 234.953 Q549.602 237.974 546.893 239.745 Q544.22 241.516 539.498 241.516 Q537.519 241.516 535.366 241.168 Q533.248 240.821 530.887 240.161 L530.887 236.446 Q533.109 237.488 535.296 238.009 Q537.449 238.53 539.567 238.53 Q542.414 238.53 543.942 237.661 Q545.47 236.793 545.47 235.231 Q545.47 233.773 544.359 232.974 Q543.387 232.28 539.532 231.481 L538.144 231.203 Q534.394 230.474 532.727 229.05 Q531.06 227.592 531.06 225.057 Q531.06 222.002 533.525 220.335 Q535.956 218.634 540.47 218.634 Q542.692 218.634 544.671 218.946 Q546.65 219.224 548.282 219.814 Z" fill="#000000" fill-rule="evenodd" fill-opacity="1" /><path clip-path="url(#clip200)" d="M 0 0 M575.678 242.384 L594.393 242.384 L594.393 248.078 L575.678 248.078 L575.678 242.384 Z" fill="#000000" fill-rule="evenodd" fill-opacity="1" /><path clip-path="url(#clip200)" d="M 0 0 M630.99 218.634 L630.99 238.113 L639.81 238.113 Q644.705 238.113 647.379 235.578 Q650.053 233.043 650.053 228.356 Q650.053 223.703 647.379 221.169 Q644.705 218.634 639.81 218.634 L630.99 218.634 M623.976 212.87 L639.81 212.87 Q648.525 212.87 652.969 216.828 Q657.448 220.752 657.448 228.356 Q657.448 236.03 652.969 239.953 Q648.525 243.877 639.81 243.877 L630.99 243.877 L630.99 264.71 L623.976 264.71 L623.976 212.87 Z" fill="#000000" fill-rule="evenodd" fill-opacity="1" /><path clip-path="url(#clip200)" d="M 0 0 M678.629 245.161 Q670.886 245.161 667.9 246.932 Q664.914 248.703 664.914 252.974 Q664.914 256.377 667.136 258.391 Q669.393 260.37 673.247 260.37 Q678.559 260.37 681.754 256.62 Q684.983 252.835 684.983 246.585 L684.983 245.161 L678.629 245.161 M691.372 242.523 L691.372 264.71 L684.983 264.71 L684.983 258.807 Q682.796 262.349 679.532 264.05 Q676.268 265.717 671.546 265.717 Q665.573 265.717 662.032 262.384 Q658.525 259.016 658.525 253.391 Q658.525 246.828 662.9 243.495 Q667.309 240.161 676.025 240.161 L684.983 240.161 L684.983 239.536 Q684.983 235.127 682.066 232.731 Q679.184 230.3 673.941 230.3 Q670.608 230.3 667.448 231.099 Q664.289 231.898 661.372 233.495 L661.372 227.592 Q664.879 226.238 668.178 225.578 Q671.476 224.884 674.601 224.884 Q683.039 224.884 687.205 229.259 Q691.372 233.634 691.372 242.523 Z" fill="#000000" fill-rule="evenodd" fill-opacity="1" /><path clip-path="url(#clip200)" d="M 0 0 M720.608 231.793 Q719.531 231.168 718.247 230.891 Q716.997 230.578 715.469 230.578 Q710.052 230.578 707.136 234.12 Q704.254 237.627 704.254 244.224 L704.254 264.71 L697.83 264.71 L697.83 225.821 L704.254 225.821 L704.254 231.863 Q706.268 228.321 709.497 226.62 Q712.726 224.884 717.344 224.884 Q718.004 224.884 718.802 224.988 Q719.601 225.057 720.573 225.231 L720.608 231.793 Z" fill="#000000" fill-rule="evenodd" fill-opacity="1" /><path clip-path="url(#clip200)" d="M 0 0 M733.629 214.78 L733.629 225.821 L746.788 225.821 L746.788 230.787 L733.629 230.787 L733.629 251.898 Q733.629 256.654 734.913 258.009 Q736.233 259.363 740.226 259.363 L746.788 259.363 L746.788 264.71 L740.226 264.71 Q732.83 264.71 730.017 261.967 Q727.205 259.189 727.205 251.898 L727.205 230.787 L722.518 230.787 L722.518 225.821 L727.205 225.821 L727.205 214.78 L733.629 214.78 Z" fill="#000000" fill-rule="evenodd" fill-opacity="1" /><path clip-path="url(#clip200)" d="M 0 0 M753.49 225.821 L759.878 225.821 L759.878 264.71 L753.49 264.71 L753.49 225.821 M753.49 210.682 L759.878 210.682 L759.878 218.773 L753.49 218.773 L753.49 210.682 Z" fill="#000000" fill-rule="evenodd" fill-opacity="1" /><path clip-path="url(#clip200)" d="M 0 0 M772.899 214.78 L772.899 225.821 L786.059 225.821 L786.059 230.787 L772.899 230.787 L772.899 251.898 Q772.899 256.654 774.184 258.009 Q775.503 259.363 779.496 259.363 L786.059 259.363 L786.059 264.71 L779.496 264.71 Q772.101 264.71 769.288 261.967 Q766.476 259.189 766.476 251.898 L766.476 230.787 L761.788 230.787 L761.788 225.821 L766.476 225.821 L766.476 214.78 L772.899 214.78 Z" fill="#000000" fill-rule="evenodd" fill-opacity="1" /><path clip-path="url(#clip200)" d="M 0 0 M792.76 225.821 L799.149 225.821 L799.149 264.71 L792.76 264.71 L792.76 225.821 M792.76 210.682 L799.149 210.682 L799.149 218.773 L792.76 218.773 L792.76 210.682 Z" fill="#000000" fill-rule="evenodd" fill-opacity="1" /><path clip-path="url(#clip200)" d="M 0 0 M820.92 230.3 Q815.781 230.3 812.795 234.328 Q809.809 238.321 809.809 245.3 Q809.809 252.279 812.76 256.307 Q815.746 260.3 820.92 260.3 Q826.024 260.3 829.01 256.272 Q831.996 252.245 831.996 245.3 Q831.996 238.391 829.01 234.363 Q826.024 230.3 820.92 230.3 M820.92 224.884 Q829.253 224.884 834.01 230.3 Q838.767 235.717 838.767 245.3 Q838.767 254.849 834.01 260.3 Q829.253 265.717 820.92 265.717 Q812.552 265.717 807.795 260.3 Q803.073 254.849 803.073 245.3 Q803.073 235.717 807.795 230.3 Q812.552 224.884 820.92 224.884 Z" fill="#000000" fill-rule="evenodd" fill-opacity="1" /><path clip-path="url(#clip200)" d="M 0 0 M877.794 241.238 L877.794 264.71 L871.406 264.71 L871.406 241.446 Q871.406 235.925 869.253 233.182 Q867.1 230.439 862.795 230.439 Q857.621 230.439 854.635 233.738 Q851.649 237.036 851.649 242.731 L851.649 264.71 L845.225 264.71 L845.225 225.821 L851.649 225.821 L851.649 231.863 Q853.94 228.356 857.031 226.62 Q860.156 224.884 864.218 224.884 Q870.92 224.884 874.357 229.05 Q877.794 233.182 877.794 241.238 Z" fill="#000000" fill-rule="evenodd" fill-opacity="1" /><path clip-path="url(#clip200)" d="M 0 0 M909.218 258.807 L920.676 258.807 L920.676 219.259 L908.211 221.759 L908.211 215.37 L920.607 212.87 L927.621 212.87 L927.621 258.807 L939.079 258.807 L939.079 264.71 L909.218 264.71 L909.218 258.807 Z" fill="#000000" fill-rule="evenodd" fill-opacity="1" /><polyline clip-path="url(#clip200)" style="stroke:#e26f46; stroke-width:6; stroke-opacity:1; fill:none" stroke-dasharray="24, 15" points="
  277.932,329.51 417.965,329.51 
  "/>
<line clip-path="url(#clip200)" x1="347.948" y1="329.51" x2="347.948" y2="291.11" style="stroke:#e26f46; stroke-width:3.2; stroke-opacity:1"/>
<line clip-path="url(#clip200)" x1="347.948" y1="329.51" x2="309.548" y2="329.51" style="stroke:#e26f46; stroke-width:3.2; stroke-opacity:1"/>
<line clip-path="url(#clip200)" x1="347.948" y1="329.51" x2="347.948" y2="367.91" style="stroke:#e26f46; stroke-width:3.2; stroke-opacity:1"/>
<line clip-path="url(#clip200)" x1="347.948" y1="329.51" x2="386.348" y2="329.51" style="stroke:#e26f46; stroke-width:3.2; stroke-opacity:1"/>
<path clip-path="url(#clip200)" d="M 0 0 M441.304 303.59 L485.158 303.59 L485.158 309.493 L466.755 309.493 L466.755 355.43 L459.706 355.43 L459.706 309.493 L441.304 309.493 L441.304 303.59 Z" fill="#000000" fill-rule="evenodd" fill-opacity="1" /><path clip-path="url(#clip200)" d="M 0 0 M493.352 304.284 L493.352 310.465 L501.651 310.465 L501.651 313.243 L493.352 313.243 L493.352 325.048 Q493.352 327.722 494.185 328.486 Q495.019 329.25 497.519 329.25 L501.651 329.25 L501.651 332.236 L497.519 332.236 Q492.866 332.236 491.095 330.673 Q489.324 329.145 489.324 325.048 L489.324 313.243 L486.373 313.243 L486.373 310.465 L489.324 310.465 L489.324 304.284 L493.352 304.284 Z" fill="#000000" fill-rule="evenodd" fill-opacity="1" /><path clip-path="url(#clip200)" d="M 0 0 M526.824 320.465 L526.824 322.201 L508.317 322.201 Q508.595 325.881 510.817 327.826 Q513.074 329.77 517.067 329.77 Q519.394 329.77 521.581 329.25 Q523.734 328.763 525.887 327.756 L525.887 331.125 Q523.734 331.958 521.442 332.375 Q519.185 332.791 516.824 332.791 Q510.956 332.791 507.553 329.77 Q504.116 326.75 504.116 321.576 Q504.116 316.229 507.38 313.069 Q510.609 309.944 516.13 309.944 Q521.06 309.944 523.942 312.757 Q526.824 315.604 526.824 320.465 M522.796 319.388 Q522.762 316.472 520.956 314.701 Q519.151 312.965 516.164 312.965 Q512.796 312.965 510.783 314.666 Q508.769 316.333 508.456 319.388 L522.796 319.388 Z" fill="#000000" fill-rule="evenodd" fill-opacity="1" /><path clip-path="url(#clip200)" d="M 0 0 M548.282 310.534 L548.282 313.902 Q546.581 313.139 544.741 312.757 Q542.935 312.375 540.956 312.375 Q537.935 312.375 536.442 313.173 Q534.949 314.007 534.949 315.638 Q534.949 316.888 536.025 317.583 Q537.102 318.312 540.331 318.937 L541.72 319.215 Q546.06 320.048 547.796 321.507 Q549.602 323 549.602 325.673 Q549.602 328.694 546.893 330.465 Q544.22 332.236 539.498 332.236 Q537.519 332.236 535.366 331.888 Q533.248 331.541 530.887 330.881 L530.887 327.166 Q533.109 328.208 535.296 328.729 Q537.449 329.25 539.567 329.25 Q542.414 329.25 543.942 328.381 Q545.47 327.513 545.47 325.951 Q545.47 324.493 544.359 323.694 Q543.387 323 539.532 322.201 L538.144 321.923 Q534.394 321.194 532.727 319.77 Q531.06 318.312 531.06 315.777 Q531.06 312.722 533.525 311.055 Q535.956 309.354 540.47 309.354 Q542.692 309.354 544.671 309.666 Q546.65 309.944 548.282 310.534 Z" fill="#000000" fill-rule="evenodd" fill-opacity="1" /><path clip-path="url(#clip200)" d="M 0 0 M575.678 333.104 L594.393 333.104 L594.393 338.798 L575.678 338.798 L575.678 333.104 Z" fill="#000000" fill-rule="evenodd" fill-opacity="1" /><path clip-path="url(#clip200)" d="M 0 0 M630.99 309.354 L630.99 328.833 L639.81 328.833 Q644.705 328.833 647.379 326.298 Q650.053 323.763 650.053 319.076 Q650.053 314.423 647.379 311.889 Q644.705 309.354 639.81 309.354 L630.99 309.354 M623.976 303.59 L639.81 303.59 Q648.525 303.59 652.969 307.548 Q657.448 311.472 657.448 319.076 Q657.448 326.75 652.969 330.673 Q648.525 334.597 639.81 334.597 L630.99 334.597 L630.99 355.43 L623.976 355.43 L623.976 303.59 Z" fill="#000000" fill-rule="evenodd" fill-opacity="1" /><path clip-path="url(#clip200)" d="M 0 0 M678.629 335.881 Q670.886 335.881 667.9 337.652 Q664.914 339.423 664.914 343.694 Q664.914 347.097 667.136 349.111 Q669.393 351.09 673.247 351.09 Q678.559 351.09 681.754 347.34 Q684.983 343.555 684.983 337.305 L684.983 335.881 L678.629 335.881 M691.372 333.243 L691.372 355.43 L684.983 355.43 L684.983 349.527 Q682.796 353.069 679.532 354.77 Q676.268 356.437 671.546 356.437 Q665.573 356.437 662.032 353.104 Q658.525 349.736 658.525 344.111 Q658.525 337.548 662.9 334.215 Q667.309 330.881 676.025 330.881 L684.983 330.881 L684.983 330.256 Q684.983 325.847 682.066 323.451 Q679.184 321.02 673.941 321.02 Q670.608 321.02 667.448 321.819 Q664.289 322.618 661.372 324.215 L661.372 318.312 Q664.879 316.958 668.178 316.298 Q671.476 315.604 674.601 315.604 Q683.039 315.604 687.205 319.979 Q691.372 324.354 691.372 333.243 Z" fill="#000000" fill-rule="evenodd" fill-opacity="1" /><path clip-path="url(#clip200)" d="M 0 0 M720.608 322.513 Q719.531 321.888 718.247 321.611 Q716.997 321.298 715.469 321.298 Q710.052 321.298 707.136 324.84 Q704.254 328.347 704.254 334.944 L704.254 355.43 L697.83 355.43 L697.83 316.541 L704.254 316.541 L704.254 322.583 Q706.268 319.041 709.497 317.34 Q712.726 315.604 717.344 315.604 Q718.004 315.604 718.802 315.708 Q719.601 315.777 720.573 315.951 L720.608 322.513 Z" fill="#000000" fill-rule="evenodd" fill-opacity="1" /><path clip-path="url(#clip200)" d="M 0 0 M733.629 305.5 L733.629 316.541 L746.788 316.541 L746.788 321.507 L733.629 321.507 L733.629 342.618 Q733.629 347.374 734.913 348.729 Q736.233 350.083 740.226 350.083 L746.788 350.083 L746.788 355.43 L740.226 355.43 Q732.83 355.43 730.017 352.687 Q727.205 349.909 727.205 342.618 L727.205 321.507 L722.518 321.507 L722.518 316.541 L727.205 316.541 L727.205 305.5 L733.629 305.5 Z" fill="#000000" fill-rule="evenodd" fill-opacity="1" /><path clip-path="url(#clip200)" d="M 0 0 M753.49 316.541 L759.878 316.541 L759.878 355.43 L753.49 355.43 L753.49 316.541 M753.49 301.402 L759.878 301.402 L759.878 309.493 L753.49 309.493 L753.49 301.402 Z" fill="#000000" fill-rule="evenodd" fill-opacity="1" /><path clip-path="url(#clip200)" d="M 0 0 M772.899 305.5 L772.899 316.541 L786.059 316.541 L786.059 321.507 L772.899 321.507 L772.899 342.618 Q772.899 347.374 774.184 348.729 Q775.503 350.083 779.496 350.083 L786.059 350.083 L786.059 355.43 L779.496 355.43 Q772.101 355.43 769.288 352.687 Q766.476 349.909 766.476 342.618 L766.476 321.507 L761.788 321.507 L761.788 316.541 L766.476 316.541 L766.476 305.5 L772.899 305.5 Z" fill="#000000" fill-rule="evenodd" fill-opacity="1" /><path clip-path="url(#clip200)" d="M 0 0 M792.76 316.541 L799.149 316.541 L799.149 355.43 L792.76 355.43 L792.76 316.541 M792.76 301.402 L799.149 301.402 L799.149 309.493 L792.76 309.493 L792.76 301.402 Z" fill="#000000" fill-rule="evenodd" fill-opacity="1" /><path clip-path="url(#clip200)" d="M 0 0 M820.92 321.02 Q815.781 321.02 812.795 325.048 Q809.809 329.041 809.809 336.02 Q809.809 342.999 812.76 347.027 Q815.746 351.02 820.92 351.02 Q826.024 351.02 829.01 346.992 Q831.996 342.965 831.996 336.02 Q831.996 329.111 829.01 325.083 Q826.024 321.02 820.92 321.02 M820.92 315.604 Q829.253 315.604 834.01 321.02 Q838.767 326.437 838.767 336.02 Q838.767 345.569 834.01 351.02 Q829.253 356.437 820.92 356.437 Q812.552 356.437 807.795 351.02 Q803.073 345.569 803.073 336.02 Q803.073 326.437 807.795 321.02 Q812.552 315.604 820.92 315.604 Z" fill="#000000" fill-rule="evenodd" fill-opacity="1" /><path clip-path="url(#clip200)" d="M 0 0 M877.794 331.958 L877.794 355.43 L871.406 355.43 L871.406 332.166 Q871.406 326.645 869.253 323.902 Q867.1 321.159 862.795 321.159 Q857.621 321.159 854.635 324.458 Q851.649 327.756 851.649 333.451 L851.649 355.43 L845.225 355.43 L845.225 316.541 L851.649 316.541 L851.649 322.583 Q853.94 319.076 857.031 317.34 Q860.156 315.604 864.218 315.604 Q870.92 315.604 874.357 319.77 Q877.794 323.902 877.794 331.958 Z" fill="#000000" fill-rule="evenodd" fill-opacity="1" /><path clip-path="url(#clip200)" d="M 0 0 M914.044 349.527 L938.523 349.527 L938.523 355.43 L905.607 355.43 L905.607 349.527 Q909.6 345.395 916.475 338.451 Q923.385 331.472 925.155 329.458 Q928.523 325.673 929.843 323.069 Q931.197 320.43 931.197 317.895 Q931.197 313.764 928.28 311.159 Q925.398 308.555 920.746 308.555 Q917.447 308.555 913.766 309.701 Q910.121 310.847 905.954 313.173 L905.954 306.09 Q910.19 304.389 913.871 303.521 Q917.551 302.652 920.607 302.652 Q928.662 302.652 933.454 306.68 Q938.246 310.708 938.246 317.444 Q938.246 320.638 937.03 323.52 Q935.85 326.368 932.69 330.256 Q931.822 331.263 927.169 336.09 Q922.516 340.881 914.044 349.527 Z" fill="#000000" fill-rule="evenodd" fill-opacity="1" /><polyline clip-path="url(#clip200)" style="stroke:#3da44d; stroke-width:6; stroke-opacity:1; fill:none" points="
  277.932,420.23 417.965,420.23 
  "/>
<line clip-path="url(#clip200)" x1="347.948" y1="420.23" x2="309.548" y2="381.83" style="stroke:#3da44d; stroke-width:3.2; stroke-opacity:1"/>
<line clip-path="url(#clip200)" x1="347.948" y1="420.23" x2="309.548" y2="458.63" style="stroke:#3da44d; stroke-width:3.2; stroke-opacity:1"/>
<line clip-path="url(#clip200)" x1="347.948" y1="420.23" x2="386.348" y2="458.63" style="stroke:#3da44d; stroke-width:3.2; stroke-opacity:1"/>
<line clip-path="url(#clip200)" x1="347.948" y1="420.23" x2="386.348" y2="381.83" style="stroke:#3da44d; stroke-width:3.2; stroke-opacity:1"/>
<path clip-path="url(#clip200)" d="M 0 0 M441.304 394.31 L485.158 394.31 L485.158 400.213 L466.755 400.213 L466.755 446.15 L459.706 446.15 L459.706 400.213 L441.304 400.213 L441.304 394.31 Z" fill="#000000" fill-rule="evenodd" fill-opacity="1" /><path clip-path="url(#clip200)" d="M 0 0 M493.352 395.004 L493.352 401.185 L501.651 401.185 L501.651 403.963 L493.352 403.963 L493.352 415.768 Q493.352 418.442 494.185 419.206 Q495.019 419.97 497.519 419.97 L501.651 419.97 L501.651 422.956 L497.519 422.956 Q492.866 422.956 491.095 421.393 Q489.324 419.865 489.324 415.768 L489.324 403.963 L486.373 403.963 L486.373 401.185 L489.324 401.185 L489.324 395.004 L493.352 395.004 Z" fill="#000000" fill-rule="evenodd" fill-opacity="1" /><path clip-path="url(#clip200)" d="M 0 0 M526.824 411.185 L526.824 412.921 L508.317 412.921 Q508.595 416.601 510.817 418.546 Q513.074 420.49 517.067 420.49 Q519.394 420.49 521.581 419.97 Q523.734 419.483 525.887 418.476 L525.887 421.845 Q523.734 422.678 521.442 423.095 Q519.185 423.511 516.824 423.511 Q510.956 423.511 507.553 420.49 Q504.116 417.47 504.116 412.296 Q504.116 406.949 507.38 403.789 Q510.609 400.664 516.13 400.664 Q521.06 400.664 523.942 403.477 Q526.824 406.324 526.824 411.185 M522.796 410.108 Q522.762 407.192 520.956 405.421 Q519.151 403.685 516.164 403.685 Q512.796 403.685 510.783 405.386 Q508.769 407.053 508.456 410.108 L522.796 410.108 Z" fill="#000000" fill-rule="evenodd" fill-opacity="1" /><path clip-path="url(#clip200)" d="M 0 0 M548.282 401.254 L548.282 404.622 Q546.581 403.859 544.741 403.477 Q542.935 403.095 540.956 403.095 Q537.935 403.095 536.442 403.893 Q534.949 404.727 534.949 406.358 Q534.949 407.608 536.025 408.303 Q537.102 409.032 540.331 409.657 L541.72 409.935 Q546.06 410.768 547.796 412.227 Q549.602 413.72 549.602 416.393 Q549.602 419.414 546.893 421.185 Q544.22 422.956 539.498 422.956 Q537.519 422.956 535.366 422.608 Q533.248 422.261 530.887 421.601 L530.887 417.886 Q533.109 418.928 535.296 419.449 Q537.449 419.97 539.567 419.97 Q542.414 419.97 543.942 419.101 Q545.47 418.233 545.47 416.671 Q545.47 415.213 544.359 414.414 Q543.387 413.72 539.532 412.921 L538.144 412.643 Q534.394 411.914 532.727 410.49 Q531.06 409.032 531.06 406.497 Q531.06 403.442 533.525 401.775 Q535.956 400.074 540.47 400.074 Q542.692 400.074 544.671 400.386 Q546.65 400.664 548.282 401.254 Z" fill="#000000" fill-rule="evenodd" fill-opacity="1" /><path clip-path="url(#clip200)" d="M 0 0 M575.678 423.824 L594.393 423.824 L594.393 429.518 L575.678 429.518 L575.678 423.824 Z" fill="#000000" fill-rule="evenodd" fill-opacity="1" /><path clip-path="url(#clip200)" d="M 0 0 M630.99 400.074 L630.99 419.553 L639.81 419.553 Q644.705 419.553 647.379 417.018 Q650.053 414.483 650.053 409.796 Q650.053 405.143 647.379 402.609 Q644.705 400.074 639.81 400.074 L630.99 400.074 M623.976 394.31 L639.81 394.31 Q648.525 394.31 652.969 398.268 Q657.448 402.192 657.448 409.796 Q657.448 417.47 652.969 421.393 Q648.525 425.317 639.81 425.317 L630.99 425.317 L630.99 446.15 L623.976 446.15 L623.976 394.31 Z" fill="#000000" fill-rule="evenodd" fill-opacity="1" /><path clip-path="url(#clip200)" d="M 0 0 M678.629 426.601 Q670.886 426.601 667.9 428.372 Q664.914 430.143 664.914 434.414 Q664.914 437.817 667.136 439.831 Q669.393 441.81 673.247 441.81 Q678.559 441.81 681.754 438.06 Q684.983 434.275 684.983 428.025 L684.983 426.601 L678.629 426.601 M691.372 423.963 L691.372 446.15 L684.983 446.15 L684.983 440.247 Q682.796 443.789 679.532 445.49 Q676.268 447.157 671.546 447.157 Q665.573 447.157 662.032 443.824 Q658.525 440.456 658.525 434.831 Q658.525 428.268 662.9 424.935 Q667.309 421.601 676.025 421.601 L684.983 421.601 L684.983 420.976 Q684.983 416.567 682.066 414.171 Q679.184 411.74 673.941 411.74 Q670.608 411.74 667.448 412.539 Q664.289 413.338 661.372 414.935 L661.372 409.032 Q664.879 407.678 668.178 407.018 Q671.476 406.324 674.601 406.324 Q683.039 406.324 687.205 410.699 Q691.372 415.074 691.372 423.963 Z" fill="#000000" fill-rule="evenodd" fill-opacity="1" /><path clip-path="url(#clip200)" d="M 0 0 M720.608 413.233 Q719.531 412.608 718.247 412.331 Q716.997 412.018 715.469 412.018 Q710.052 412.018 707.136 415.56 Q704.254 419.067 704.254 425.664 L704.254 446.15 L697.83 446.15 L697.83 407.261 L704.254 407.261 L704.254 413.303 Q706.268 409.761 709.497 408.06 Q712.726 406.324 717.344 406.324 Q718.004 406.324 718.802 406.428 Q719.601 406.497 720.573 406.671 L720.608 413.233 Z" fill="#000000" fill-rule="evenodd" fill-opacity="1" /><path clip-path="url(#clip200)" d="M 0 0 M733.629 396.22 L733.629 407.261 L746.788 407.261 L746.788 412.227 L733.629 412.227 L733.629 433.338 Q733.629 438.094 734.913 439.449 Q736.233 440.803 740.226 440.803 L746.788 440.803 L746.788 446.15 L740.226 446.15 Q732.83 446.15 730.017 443.407 Q727.205 440.629 727.205 433.338 L727.205 412.227 L722.518 412.227 L722.518 407.261 L727.205 407.261 L727.205 396.22 L733.629 396.22 Z" fill="#000000" fill-rule="evenodd" fill-opacity="1" /><path clip-path="url(#clip200)" d="M 0 0 M753.49 407.261 L759.878 407.261 L759.878 446.15 L753.49 446.15 L753.49 407.261 M753.49 392.122 L759.878 392.122 L759.878 400.213 L753.49 400.213 L753.49 392.122 Z" fill="#000000" fill-rule="evenodd" fill-opacity="1" /><path clip-path="url(#clip200)" d="M 0 0 M772.899 396.22 L772.899 407.261 L786.059 407.261 L786.059 412.227 L772.899 412.227 L772.899 433.338 Q772.899 438.094 774.184 439.449 Q775.503 440.803 779.496 440.803 L786.059 440.803 L786.059 446.15 L779.496 446.15 Q772.101 446.15 769.288 443.407 Q766.476 440.629 766.476 433.338 L766.476 412.227 L761.788 412.227 L761.788 407.261 L766.476 407.261 L766.476 396.22 L772.899 396.22 Z" fill="#000000" fill-rule="evenodd" fill-opacity="1" /><path clip-path="url(#clip200)" d="M 0 0 M792.76 407.261 L799.149 407.261 L799.149 446.15 L792.76 446.15 L792.76 407.261 M792.76 392.122 L799.149 392.122 L799.149 400.213 L792.76 400.213 L792.76 392.122 Z" fill="#000000" fill-rule="evenodd" fill-opacity="1" /><path clip-path="url(#clip200)" d="M 0 0 M820.92 411.74 Q815.781 411.74 812.795 415.768 Q809.809 419.761 809.809 426.74 Q809.809 433.719 812.76 437.747 Q815.746 441.74 820.92 441.74 Q826.024 441.74 829.01 437.712 Q831.996 433.685 831.996 426.74 Q831.996 419.831 829.01 415.803 Q826.024 411.74 820.92 411.74 M820.92 406.324 Q829.253 406.324 834.01 411.74 Q838.767 417.157 838.767 426.74 Q838.767 436.289 834.01 441.74 Q829.253 447.157 820.92 447.157 Q812.552 447.157 807.795 441.74 Q803.073 436.289 803.073 426.74 Q803.073 417.157 807.795 411.74 Q812.552 406.324 820.92 406.324 Z" fill="#000000" fill-rule="evenodd" fill-opacity="1" /><path clip-path="url(#clip200)" d="M 0 0 M877.794 422.678 L877.794 446.15 L871.406 446.15 L871.406 422.886 Q871.406 417.365 869.253 414.622 Q867.1 411.879 862.795 411.879 Q857.621 411.879 854.635 415.178 Q851.649 418.476 851.649 424.171 L851.649 446.15 L845.225 446.15 L845.225 407.261 L851.649 407.261 L851.649 413.303 Q853.94 409.796 857.031 408.06 Q860.156 406.324 864.218 406.324 Q870.92 406.324 874.357 410.49 Q877.794 414.622 877.794 422.678 Z" fill="#000000" fill-rule="evenodd" fill-opacity="1" /><path clip-path="url(#clip200)" d="M 0 0 M929.253 418.199 Q934.287 419.275 937.1 422.678 Q939.947 426.081 939.947 431.081 Q939.947 438.754 934.669 442.956 Q929.391 447.157 919.669 447.157 Q916.405 447.157 912.933 446.497 Q909.496 445.872 905.815 444.587 L905.815 437.817 Q908.732 439.518 912.204 440.386 Q915.676 441.254 919.461 441.254 Q926.058 441.254 929.496 438.65 Q932.968 436.046 932.968 431.081 Q932.968 426.497 929.739 423.928 Q926.544 421.324 920.815 421.324 L914.773 421.324 L914.773 415.56 L921.093 415.56 Q926.266 415.56 929.009 413.511 Q931.753 411.428 931.753 407.539 Q931.753 403.546 928.905 401.428 Q926.093 399.275 920.815 399.275 Q917.933 399.275 914.635 399.9 Q911.336 400.525 907.378 401.845 L907.378 395.595 Q911.371 394.484 914.843 393.928 Q918.35 393.372 921.44 393.372 Q929.426 393.372 934.079 397.018 Q938.732 400.629 938.732 406.81 Q938.732 411.115 936.266 414.102 Q933.801 417.053 929.253 418.199 Z" fill="#000000" fill-rule="evenodd" fill-opacity="1" /></svg>
