<?xml version="1.0" encoding="utf-8"?>
<svg xmlns="http://www.w3.org/2000/svg" xmlns:xlink="http://www.w3.org/1999/xlink" width="600" height="400" viewBox="0 0 2400 1600">
<defs>
  <clipPath id="clip080">
    <rect x="0" y="0" width="2400" height="1600"/>
  </clipPath>
</defs>
<path clip-path="url(#clip080)" d="
M0 1600 L2400 1600 L2400 0 L0 0  Z
  " fill="#ffffff" fill-rule="evenodd" fill-opacity="1"/>
<defs>
  <clipPath id="clip081">
    <rect x="480" y="0" width="1681" height="1600"/>
  </clipPath>
</defs>
<path clip-path="url(#clip080)" d="
M292.039 1384.3 L2352.76 1384.3 L2352.76 149.914 L292.039 149.914  Z
  " fill="#ffffff" fill-rule="evenodd" fill-opacity="1"/>
<defs>
  <clipPath id="clip082">
    <rect x="292" y="149" width="2062" height="1235"/>
  </clipPath>
</defs>
<polyline clip-path="url(#clip082)" style="stroke:#000000; stroke-width:2; stroke-opacity:0.1; fill:none" stroke-dasharray="1, 2" points="
  330.724,1384.3 330.724,149.914 
  "/>
<polyline clip-path="url(#clip082)" style="stroke:#000000; stroke-width:2; stroke-opacity:0.1; fill:none" stroke-dasharray="1, 2" points="
  821.651,1384.3 821.651,149.914 
  "/>
<polyline clip-path="url(#clip082)" style="stroke:#000000; stroke-width:2; stroke-opacity:0.1; fill:none" stroke-dasharray="1, 2" points="
  1312.58,1384.3 1312.58,149.914 
  "/>
<polyline clip-path="url(#clip082)" style="stroke:#000000; stroke-width:2; stroke-opacity:0.1; fill:none" stroke-dasharray="1, 2" points="
  1803.51,1384.3 1803.51,149.914 
  "/>
<polyline clip-path="url(#clip082)" style="stroke:#000000; stroke-width:2; stroke-opacity:0.1; fill:none" stroke-dasharray="1, 2" points="
  2294.43,1384.3 2294.43,149.914 
  "/>
<polyline clip-path="url(#clip080)" style="stroke:#000000; stroke-width:4; stroke-opacity:1; fill:none" points="
  292.039,1384.3 2352.76,1384.3 
  "/>
<polyline clip-path="url(#clip080)" style="stroke:#000000; stroke-width:4; stroke-opacity:1; fill:none" points="
  292.039,149.914 2352.76,149.914 
  "/>
<polyline clip-path="url(#clip080)" style="stroke:#000000; stroke-width:4; stroke-opacity:1; fill:none" points="
  330.724,1384.3 330.724,1369.49 
  "/>
<polyline clip-path="url(#clip080)" style="stroke:#000000; stroke-width:4; stroke-opacity:1; fill:none" points="
  821.651,1384.3 821.651,1369.49 
  "/>
<polyline clip-path="url(#clip080)" style="stroke:#000000; stroke-width:4; stroke-opacity:1; fill:none" points="
  1312.58,1384.3 1312.58,1369.49 
  "/>
<polyline clip-path="url(#clip080)" style="stroke:#000000; stroke-width:4; stroke-opacity:1; fill:none" points="
  1803.51,1384.3 1803.51,1369.49 
  "/>
<polyline clip-path="url(#clip080)" style="stroke:#000000; stroke-width:4; stroke-opacity:1; fill:none" points="
  2294.43,1384.3 2294.43,1369.49 
  "/>
<path clip-path="url(#clip080)" d="M 0 0 M330.724 1420.98 Q324.405 1420.98 321.204 1427.22 Q318.045 1433.42 318.045 1445.9 Q318.045 1458.33 321.204 1464.57 Q324.405 1470.77 330.724 1470.77 Q337.084 1470.77 340.244 1464.57 Q343.444 1458.33 343.444 1445.9 Q343.444 1433.42 340.244 1427.22 Q337.084 1420.98 330.724 1420.98 M330.724 1414.5 Q340.892 1414.5 346.239 1422.56 Q351.627 1430.58 351.627 1445.9 Q351.627 1461.17 346.239 1469.23 Q340.892 1477.25 330.724 1477.25 Q320.556 1477.25 315.169 1469.23 Q309.821 1461.17 309.821 1445.9 Q309.821 1430.58 315.169 1422.56 Q320.556 1414.5 330.724 1414.5 Z" fill="#000000" fill-rule="evenodd" fill-opacity="1" /><path clip-path="url(#clip080)" d="M 0 0 M789.528 1469.19 L818.087 1469.19 L818.087 1476.08 L779.684 1476.08 L779.684 1469.19 Q784.343 1464.37 792.363 1456.27 Q800.425 1448.12 802.491 1445.78 Q806.42 1441.36 807.959 1438.32 Q809.539 1435.24 809.539 1432.29 Q809.539 1427.46 806.136 1424.43 Q802.774 1421.39 797.346 1421.39 Q793.498 1421.39 789.204 1422.73 Q784.95 1424.06 780.089 1426.78 L780.089 1418.51 Q785.031 1416.53 789.325 1415.51 Q793.619 1414.5 797.184 1414.5 Q806.582 1414.5 812.172 1419.2 Q817.763 1423.9 817.763 1431.76 Q817.763 1435.49 816.345 1438.85 Q814.967 1442.17 811.281 1446.71 Q810.268 1447.88 804.84 1453.51 Q799.412 1459.1 789.528 1469.19 Z" fill="#000000" fill-rule="evenodd" fill-opacity="1" /><path clip-path="url(#clip080)" d="M 0 0 M827.039 1415.6 L859.163 1415.6 L859.163 1422.48 L834.533 1422.48 L834.533 1437.31 Q836.316 1436.7 838.098 1436.42 Q839.88 1436.09 841.663 1436.09 Q851.79 1436.09 857.704 1441.64 Q863.619 1447.19 863.619 1456.67 Q863.619 1466.43 857.542 1471.86 Q851.466 1477.25 840.407 1477.25 Q836.599 1477.25 832.629 1476.6 Q828.7 1475.95 824.487 1474.66 L824.487 1466.43 Q828.133 1468.42 832.022 1469.39 Q835.911 1470.36 840.245 1470.36 Q847.253 1470.36 851.345 1466.68 Q855.436 1462.99 855.436 1456.67 Q855.436 1450.35 851.345 1446.67 Q847.253 1442.98 840.245 1442.98 Q836.964 1442.98 833.683 1443.71 Q830.442 1444.44 827.039 1445.98 L827.039 1415.6 Z" fill="#000000" fill-rule="evenodd" fill-opacity="1" /><path clip-path="url(#clip080)" d="M 0 0 M1271.93 1415.6 L1304.05 1415.6 L1304.05 1422.48 L1279.42 1422.48 L1279.42 1437.31 Q1281.2 1436.7 1282.99 1436.42 Q1284.77 1436.09 1286.55 1436.09 Q1296.68 1436.09 1302.59 1441.64 Q1308.51 1447.19 1308.51 1456.67 Q1308.51 1466.43 1302.43 1471.86 Q1296.35 1477.25 1285.3 1477.25 Q1281.49 1477.25 1277.52 1476.6 Q1273.59 1475.95 1269.38 1474.66 L1269.38 1466.43 Q1273.02 1468.42 1276.91 1469.39 Q1280.8 1470.36 1285.13 1470.36 Q1292.14 1470.36 1296.23 1466.68 Q1300.32 1462.99 1300.32 1456.67 Q1300.32 1450.35 1296.23 1446.67 Q1292.14 1442.98 1285.13 1442.98 Q1281.85 1442.98 1278.57 1443.71 Q1275.33 1444.44 1271.93 1445.98 L1271.93 1415.6 Z" fill="#000000" fill-rule="evenodd" fill-opacity="1" /><path clip-path="url(#clip080)" d="M 0 0 M1334.88 1420.98 Q1328.56 1420.98 1325.36 1427.22 Q1322.2 1433.42 1322.2 1445.9 Q1322.2 1458.33 1325.36 1464.57 Q1328.56 1470.77 1334.88 1470.77 Q1341.24 1470.77 1344.4 1464.57 Q1347.6 1458.33 1347.6 1445.9 Q1347.6 1433.42 1344.4 1427.22 Q1341.24 1420.98 1334.88 1420.98 M1334.88 1414.5 Q1345.05 1414.5 1350.39 1422.56 Q1355.78 1430.58 1355.78 1445.9 Q1355.78 1461.17 1350.39 1469.23 Q1345.05 1477.25 1334.88 1477.25 Q1324.71 1477.25 1319.32 1469.23 Q1313.98 1461.17 1313.98 1445.9 Q1313.98 1430.58 1319.32 1422.56 Q1324.71 1414.5 1334.88 1414.5 Z" fill="#000000" fill-rule="evenodd" fill-opacity="1" /><path clip-path="url(#clip080)" d="M 0 0 M1761.3 1415.6 L1800.18 1415.6 L1800.18 1419.08 L1778.23 1476.08 L1769.68 1476.08 L1790.34 1422.48 L1761.3 1422.48 L1761.3 1415.6 Z" fill="#000000" fill-rule="evenodd" fill-opacity="1" /><path clip-path="url(#clip080)" d="M 0 0 M1809.14 1415.6 L1841.26 1415.6 L1841.26 1422.48 L1816.63 1422.48 L1816.63 1437.31 Q1818.41 1436.7 1820.2 1436.42 Q1821.98 1436.09 1823.76 1436.09 Q1833.89 1436.09 1839.8 1441.64 Q1845.72 1447.19 1845.72 1456.67 Q1845.72 1466.43 1839.64 1471.86 Q1833.56 1477.25 1822.51 1477.25 Q1818.7 1477.25 1814.73 1476.6 Q1810.8 1475.95 1806.58 1474.66 L1806.58 1466.43 Q1810.23 1468.42 1814.12 1469.39 Q1818.01 1470.36 1822.34 1470.36 Q1829.35 1470.36 1833.44 1466.68 Q1837.53 1462.99 1837.53 1456.67 Q1837.53 1450.35 1833.44 1446.67 Q1829.35 1442.98 1822.34 1442.98 Q1819.06 1442.98 1815.78 1443.71 Q1812.54 1444.44 1809.14 1445.98 L1809.14 1415.6 Z" fill="#000000" fill-rule="evenodd" fill-opacity="1" /><path clip-path="url(#clip080)" d="M 0 0 M2230.33 1469.19 L2243.7 1469.19 L2243.7 1423.05 L2229.15 1425.97 L2229.15 1418.51 L2243.62 1415.6 L2251.8 1415.6 L2251.8 1469.19 L2265.17 1469.19 L2265.17 1476.08 L2230.33 1476.08 L2230.33 1469.19 Z" fill="#000000" fill-rule="evenodd" fill-opacity="1" /><path clip-path="url(#clip080)" d="M 0 0 M2291.54 1420.98 Q2285.22 1420.98 2282.02 1427.22 Q2278.86 1433.42 2278.86 1445.9 Q2278.86 1458.33 2282.02 1464.57 Q2285.22 1470.77 2291.54 1470.77 Q2297.9 1470.77 2301.06 1464.57 Q2304.26 1458.33 2304.26 1445.9 Q2304.26 1433.42 2301.06 1427.22 Q2297.9 1420.98 2291.54 1420.98 M2291.54 1414.5 Q2301.71 1414.5 2307.05 1422.56 Q2312.44 1430.58 2312.44 1445.9 Q2312.44 1461.17 2307.05 1469.23 Q2301.71 1477.25 2291.54 1477.25 Q2281.37 1477.25 2275.98 1469.23 Q2270.63 1461.17 2270.63 1445.9 Q2270.63 1430.58 2275.98 1422.56 Q2281.37 1414.5 2291.54 1414.5 Z" fill="#000000" fill-rule="evenodd" fill-opacity="1" /><path clip-path="url(#clip080)" d="M 0 0 M2338.81 1420.98 Q2332.49 1420.98 2329.29 1427.22 Q2326.13 1433.42 2326.13 1445.9 Q2326.13 1458.33 2329.29 1464.57 Q2332.49 1470.77 2338.81 1470.77 Q2345.17 1470.77 2348.33 1464.57 Q2351.53 1458.33 2351.53 1445.9 Q2351.53 1433.42 2348.33 1427.22 Q2345.17 1420.98 2338.81 1420.98 M2338.81 1414.5 Q2348.98 1414.5 2354.33 1422.56 Q2359.71 1430.58 2359.71 1445.9 Q2359.71 1461.17 2354.33 1469.23 Q2348.98 1477.25 2338.81 1477.25 Q2328.64 1477.25 2323.26 1469.23 Q2317.91 1461.17 2317.91 1445.9 Q2317.91 1430.58 2323.26 1422.56 Q2328.64 1414.5 2338.81 1414.5 Z" fill="#000000" fill-rule="evenodd" fill-opacity="1" /><path clip-path="url(#clip080)" d="M 0 0 M1172.23 1511.12 L1180.41 1511.12 L1180.41 1571.6 L1172.23 1571.6 L1172.23 1511.12 Z" fill="#000000" fill-rule="evenodd" fill-opacity="1" /><path clip-path="url(#clip080)" d="M 0 0 M1195.6 1513.34 L1195.6 1526.23 L1210.96 1526.23 L1210.96 1532.02 L1195.6 1532.02 L1195.6 1556.65 Q1195.6 1562.2 1197.1 1563.78 Q1198.64 1565.36 1203.3 1565.36 L1210.96 1565.36 L1210.96 1571.6 L1203.3 1571.6 Q1194.67 1571.6 1191.39 1568.4 Q1188.11 1565.15 1188.11 1556.65 L1188.11 1532.02 L1182.64 1532.02 L1182.64 1526.23 L1188.11 1526.23 L1188.11 1513.34 L1195.6 1513.34 Z" fill="#000000" fill-rule="evenodd" fill-opacity="1" /><path clip-path="url(#clip080)" d="M 0 0 M1257.58 1547.05 L1257.58 1550.69 L1223.31 1550.69 Q1223.8 1558.39 1227.93 1562.44 Q1232.1 1566.45 1239.52 1566.45 Q1243.81 1566.45 1247.82 1565.4 Q1251.87 1564.34 1255.84 1562.24 L1255.84 1569.29 Q1251.83 1570.99 1247.62 1571.88 Q1243.4 1572.77 1239.07 1572.77 Q1228.21 1572.77 1221.85 1566.45 Q1215.53 1560.13 1215.53 1549.36 Q1215.53 1538.22 1221.53 1531.69 Q1227.57 1525.13 1237.77 1525.13 Q1246.93 1525.13 1252.24 1531.05 Q1257.58 1536.92 1257.58 1547.05 M1250.13 1544.86 Q1250.05 1538.74 1246.69 1535.1 Q1243.36 1531.45 1237.86 1531.45 Q1231.62 1531.45 1227.85 1534.98 Q1224.12 1538.5 1223.56 1544.9 L1250.13 1544.86 Z" fill="#000000" fill-rule="evenodd" fill-opacity="1" /><path clip-path="url(#clip080)" d="M 0 0 M1291.69 1533.19 Q1290.44 1532.46 1288.94 1532.14 Q1287.48 1531.78 1285.7 1531.78 Q1279.38 1531.78 1275.97 1535.91 Q1272.61 1540 1272.61 1547.7 L1272.61 1571.6 L1265.12 1571.6 L1265.12 1526.23 L1272.61 1526.23 L1272.61 1533.27 Q1274.96 1529.14 1278.73 1527.16 Q1282.5 1525.13 1287.88 1525.13 Q1288.65 1525.13 1289.59 1525.25 Q1290.52 1525.33 1291.65 1525.54 L1291.69 1533.19 Z" fill="#000000" fill-rule="evenodd" fill-opacity="1" /><path clip-path="url(#clip080)" d="M 0 0 M1320.13 1548.79 Q1311.1 1548.79 1307.61 1550.86 Q1304.13 1552.92 1304.13 1557.9 Q1304.13 1561.87 1306.72 1564.22 Q1309.35 1566.53 1313.85 1566.53 Q1320.05 1566.53 1323.77 1562.16 Q1327.54 1557.74 1327.54 1550.45 L1327.54 1548.79 L1320.13 1548.79 M1335 1545.71 L1335 1571.6 L1327.54 1571.6 L1327.54 1564.71 Q1324.99 1568.84 1321.18 1570.83 Q1317.37 1572.77 1311.87 1572.77 Q1304.9 1572.77 1300.77 1568.88 Q1296.67 1564.95 1296.67 1558.39 Q1296.67 1550.73 1301.78 1546.84 Q1306.92 1542.96 1317.09 1542.96 L1327.54 1542.96 L1327.54 1542.23 Q1327.54 1537.08 1324.14 1534.29 Q1320.78 1531.45 1314.66 1531.45 Q1310.77 1531.45 1307.08 1532.38 Q1303.4 1533.31 1300 1535.18 L1300 1528.29 Q1304.09 1526.71 1307.94 1525.94 Q1311.78 1525.13 1315.43 1525.13 Q1325.27 1525.13 1330.13 1530.24 Q1335 1535.34 1335 1545.71 Z" fill="#000000" fill-rule="evenodd" fill-opacity="1" /><path clip-path="url(#clip080)" d="M 0 0 M1350.19 1513.34 L1350.19 1526.23 L1365.54 1526.23 L1365.54 1532.02 L1350.19 1532.02 L1350.19 1556.65 Q1350.19 1562.2 1351.69 1563.78 Q1353.22 1565.36 1357.88 1565.36 L1365.54 1565.36 L1365.54 1571.6 L1357.88 1571.6 Q1349.25 1571.6 1345.97 1568.4 Q1342.69 1565.15 1342.69 1556.65 L1342.69 1532.02 L1337.22 1532.02 L1337.22 1526.23 L1342.69 1526.23 L1342.69 1513.34 L1350.19 1513.34 Z" fill="#000000" fill-rule="evenodd" fill-opacity="1" /><path clip-path="url(#clip080)" d="M 0 0 M1373.36 1526.23 L1380.81 1526.23 L1380.81 1571.6 L1373.36 1571.6 L1373.36 1526.23 M1373.36 1508.56 L1380.81 1508.56 L1380.81 1518 L1373.36 1518 L1373.36 1508.56 Z" fill="#000000" fill-rule="evenodd" fill-opacity="1" /><path clip-path="url(#clip080)" d="M 0 0 M1406.21 1531.45 Q1400.22 1531.45 1396.73 1536.15 Q1393.25 1540.81 1393.25 1548.95 Q1393.25 1557.09 1396.69 1561.79 Q1400.17 1566.45 1406.21 1566.45 Q1412.17 1566.45 1415.65 1561.75 Q1419.13 1557.05 1419.13 1548.95 Q1419.13 1540.89 1415.65 1536.19 Q1412.17 1531.45 1406.21 1531.45 M1406.21 1525.13 Q1415.93 1525.13 1421.48 1531.45 Q1427.03 1537.77 1427.03 1548.95 Q1427.03 1560.09 1421.48 1566.45 Q1415.93 1572.77 1406.21 1572.77 Q1396.45 1572.77 1390.9 1566.45 Q1385.39 1560.09 1385.39 1548.95 Q1385.39 1537.77 1390.9 1531.45 Q1396.45 1525.13 1406.21 1525.13 Z" fill="#000000" fill-rule="evenodd" fill-opacity="1" /><path clip-path="url(#clip080)" d="M 0 0 M1472.56 1544.21 L1472.56 1571.6 L1465.11 1571.6 L1465.11 1544.45 Q1465.11 1538.01 1462.6 1534.81 Q1460.09 1531.61 1455.06 1531.61 Q1449.03 1531.61 1445.54 1535.46 Q1442.06 1539.31 1442.06 1545.95 L1442.06 1571.6 L1434.57 1571.6 L1434.57 1526.23 L1442.06 1526.23 L1442.06 1533.27 Q1444.73 1529.18 1448.34 1527.16 Q1451.99 1525.13 1456.73 1525.13 Q1464.54 1525.13 1468.55 1529.99 Q1472.56 1534.81 1472.56 1544.21 Z" fill="#000000" fill-rule="evenodd" fill-opacity="1" /><polyline clip-path="url(#clip082)" style="stroke:#000000; stroke-width:2; stroke-opacity:0.1; fill:none" stroke-dasharray="1, 2" points="
  292.039,1349.36 2352.76,1349.36 
  "/>
<polyline clip-path="url(#clip082)" style="stroke:#000000; stroke-width:2; stroke-opacity:0.1; fill:none" stroke-dasharray="1, 2" points="
  292.039,961.193 2352.76,961.193 
  "/>
<polyline clip-path="url(#clip082)" style="stroke:#000000; stroke-width:2; stroke-opacity:0.1; fill:none" stroke-dasharray="1, 2" points="
  292.039,573.021 2352.76,573.021 
  "/>
<polyline clip-path="url(#clip082)" style="stroke:#000000; stroke-width:2; stroke-opacity:0.1; fill:none" stroke-dasharray="1, 2" points="
  292.039,184.85 2352.76,184.85 
  "/>
<polyline clip-path="url(#clip080)" style="stroke:#000000; stroke-width:4; stroke-opacity:1; fill:none" points="
  292.039,1384.3 292.039,149.914 
  "/>
<polyline clip-path="url(#clip080)" style="stroke:#000000; stroke-width:4; stroke-opacity:1; fill:none" points="
  2352.76,1384.3 2352.76,149.914 
  "/>
<polyline clip-path="url(#clip080)" style="stroke:#000000; stroke-width:4; stroke-opacity:1; fill:none" points="
  292.039,1349.36 316.768,1349.36 
  "/>
<polyline clip-path="url(#clip080)" style="stroke:#000000; stroke-width:4; stroke-opacity:1; fill:none" points="
  292.039,961.193 316.768,961.193 
  "/>
<polyline clip-path="url(#clip080)" style="stroke:#000000; stroke-width:4; stroke-opacity:1; fill:none" points="
  292.039,573.021 316.768,573.021 
  "/>
<polyline clip-path="url(#clip080)" style="stroke:#000000; stroke-width:4; stroke-opacity:1; fill:none" points="
  292.039,184.85 316.768,184.85 
  "/>
<path clip-path="url(#clip080)" d="M 0 0 M171.618 1319.12 L210.507 1319.12 L210.507 1322.61 L188.551 1379.6 L180.003 1379.6 L200.663 1326.01 L171.618 1326.01 L171.618 1319.12 Z" fill="#000000" fill-rule="evenodd" fill-opacity="1" /><path clip-path="url(#clip080)" d="M 0 0 M219.459 1319.12 L251.583 1319.12 L251.583 1326.01 L226.953 1326.01 L226.953 1340.84 Q228.736 1340.23 230.518 1339.95 Q232.301 1339.62 234.083 1339.62 Q244.21 1339.62 250.125 1345.17 Q256.039 1350.72 256.039 1360.2 Q256.039 1369.96 249.963 1375.39 Q243.886 1380.78 232.827 1380.78 Q229.019 1380.78 225.049 1380.13 Q221.12 1379.48 216.907 1378.19 L216.907 1369.96 Q220.553 1371.95 224.442 1372.92 Q228.331 1373.89 232.665 1373.89 Q239.673 1373.89 243.765 1370.21 Q247.856 1366.52 247.856 1360.2 Q247.856 1353.88 243.765 1350.19 Q239.673 1346.51 232.665 1346.51 Q229.384 1346.51 226.103 1347.24 Q222.862 1347.97 219.459 1349.51 L219.459 1319.12 Z" fill="#000000" fill-rule="evenodd" fill-opacity="1" /><path clip-path="url(#clip080)" d="M 0 0 M170.929 990.177 L170.929 982.723 Q174.008 984.182 177.168 984.951 Q180.328 985.721 183.366 985.721 Q191.467 985.721 195.721 980.293 Q200.015 974.824 200.623 963.725 Q198.273 967.208 194.668 969.072 Q191.062 970.935 186.687 970.935 Q177.613 970.935 172.307 965.467 Q167.041 959.957 167.041 950.438 Q167.041 941.121 172.55 935.49 Q178.059 929.859 187.214 929.859 Q197.706 929.859 203.215 937.92 Q208.765 945.941 208.765 961.254 Q208.765 975.553 201.959 984.101 Q195.194 992.608 183.73 992.608 Q180.652 992.608 177.492 992 Q174.332 991.392 170.929 990.177 M187.214 964.535 Q192.723 964.535 195.923 960.767 Q199.164 957 199.164 950.438 Q199.164 943.916 195.923 940.148 Q192.723 936.341 187.214 936.341 Q181.705 936.341 178.464 940.148 Q175.264 943.916 175.264 950.438 Q175.264 957 178.464 960.767 Q181.705 964.535 187.214 964.535 Z" fill="#000000" fill-rule="evenodd" fill-opacity="1" /><path clip-path="url(#clip080)" d="M 0 0 M235.136 936.341 Q228.817 936.341 225.617 942.579 Q222.457 948.777 222.457 961.254 Q222.457 973.69 225.617 979.928 Q228.817 986.126 235.136 986.126 Q241.496 986.126 244.656 979.928 Q247.856 973.69 247.856 961.254 Q247.856 948.777 244.656 942.579 Q241.496 936.341 235.136 936.341 M235.136 929.859 Q245.304 929.859 250.651 937.92 Q256.039 945.941 256.039 961.254 Q256.039 976.525 250.651 984.587 Q245.304 992.608 235.136 992.608 Q224.968 992.608 219.581 984.587 Q214.234 976.525 214.234 961.254 Q214.234 945.941 219.581 937.92 Q224.968 929.859 235.136 929.859 Z" fill="#000000" fill-rule="evenodd" fill-opacity="1" /><path clip-path="url(#clip080)" d="M 0 0 M128.395 596.375 L141.763 596.375 L141.763 550.235 L127.22 553.152 L127.22 545.698 L141.682 542.781 L149.865 542.781 L149.865 596.375 L163.233 596.375 L163.233 603.261 L128.395 603.261 L128.395 596.375 Z" fill="#000000" fill-rule="evenodd" fill-opacity="1" /><path clip-path="url(#clip080)" d="M 0 0 M189.604 548.169 Q183.285 548.169 180.084 554.407 Q176.925 560.605 176.925 573.082 Q176.925 585.518 180.084 591.757 Q183.285 597.955 189.604 597.955 Q195.964 597.955 199.124 591.757 Q202.324 585.518 202.324 573.082 Q202.324 560.605 199.124 554.407 Q195.964 548.169 189.604 548.169 M189.604 541.687 Q199.772 541.687 205.119 549.749 Q210.507 557.77 210.507 573.082 Q210.507 588.354 205.119 596.415 Q199.772 604.436 189.604 604.436 Q179.436 604.436 174.049 596.415 Q168.701 588.354 168.701 573.082 Q168.701 557.77 174.049 549.749 Q179.436 541.687 189.604 541.687 Z" fill="#000000" fill-rule="evenodd" fill-opacity="1" /><path clip-path="url(#clip080)" d="M 0 0 M219.459 542.781 L251.583 542.781 L251.583 549.668 L226.953 549.668 L226.953 564.494 Q228.736 563.886 230.518 563.603 Q232.301 563.279 234.083 563.279 Q244.21 563.279 250.125 568.829 Q256.039 574.378 256.039 583.857 Q256.039 593.62 249.963 599.048 Q243.886 604.436 232.827 604.436 Q229.019 604.436 225.049 603.788 Q221.12 603.14 216.907 601.843 L216.907 593.62 Q220.553 595.605 224.442 596.577 Q228.331 597.549 232.665 597.549 Q239.673 597.549 243.765 593.863 Q247.856 590.177 247.856 583.857 Q247.856 577.538 243.765 573.852 Q239.673 570.165 232.665 570.165 Q229.384 570.165 226.103 570.894 Q222.862 571.624 219.459 573.163 L219.459 542.781 Z" fill="#000000" fill-rule="evenodd" fill-opacity="1" /><path clip-path="url(#clip080)" d="M 0 0 M129.448 208.203 L142.816 208.203 L142.816 162.063 L128.273 164.98 L128.273 157.526 L142.735 154.61 L150.918 154.61 L150.918 208.203 L164.286 208.203 L164.286 215.09 L129.448 215.09 L129.448 208.203 Z" fill="#000000" fill-rule="evenodd" fill-opacity="1" /><path clip-path="url(#clip080)" d="M 0 0 M180.206 208.203 L208.765 208.203 L208.765 215.09 L170.362 215.09 L170.362 208.203 Q175.021 203.383 183.042 195.281 Q191.103 187.138 193.169 184.789 Q197.098 180.373 198.638 177.335 Q200.217 174.257 200.217 171.299 Q200.217 166.479 196.815 163.441 Q193.452 160.402 188.024 160.402 Q184.176 160.402 179.882 161.739 Q175.628 163.076 170.767 165.79 L170.767 157.526 Q175.709 155.541 180.003 154.529 Q184.297 153.516 187.862 153.516 Q197.26 153.516 202.851 158.215 Q208.441 162.914 208.441 170.773 Q208.441 174.5 207.023 177.862 Q205.646 181.184 201.959 185.721 Q200.947 186.895 195.518 192.526 Q190.09 198.116 180.206 208.203 Z" fill="#000000" fill-rule="evenodd" fill-opacity="1" /><path clip-path="url(#clip080)" d="M 0 0 M235.136 159.997 Q228.817 159.997 225.617 166.236 Q222.457 172.434 222.457 184.91 Q222.457 197.347 225.617 203.585 Q228.817 209.783 235.136 209.783 Q241.496 209.783 244.656 203.585 Q247.856 197.347 247.856 184.91 Q247.856 172.434 244.656 166.236 Q241.496 159.997 235.136 159.997 M235.136 153.516 Q245.304 153.516 250.651 161.577 Q256.039 169.598 256.039 184.91 Q256.039 200.182 250.651 208.244 Q245.304 216.264 235.136 216.264 Q224.968 216.264 219.581 208.244 Q214.234 200.182 214.234 184.91 Q214.234 169.598 219.581 161.577 Q224.968 153.516 235.136 153.516 Z" fill="#000000" fill-rule="evenodd" fill-opacity="1" /><path clip-path="url(#clip080)" d="M 0 0 M97.0762 972.042 L36.5962 995.132 L36.5962 986.585 L87.516 967.424 L36.5962 948.223 L36.5962 939.716 L97.0762 962.766 L97.0762 972.042 Z" fill="#000000" fill-rule="evenodd" fill-opacity="1" /><path clip-path="url(#clip080)" d="M 0 0 M56.9317 920.758 Q56.9317 926.753 61.6307 930.237 Q66.2893 933.721 74.4316 933.721 Q82.5739 933.721 87.273 930.277 Q91.9315 926.794 91.9315 920.758 Q91.9315 914.803 87.2325 911.319 Q82.5334 907.835 74.4316 907.835 Q66.3703 907.835 61.6713 911.319 Q56.9317 914.803 56.9317 920.758 M50.6123 920.758 Q50.6123 911.036 56.9317 905.486 Q63.2511 899.936 74.4316 899.936 Q85.5716 899.936 91.9315 905.486 Q98.2509 911.036 98.2509 920.758 Q98.2509 930.52 91.9315 936.07 Q85.5716 941.579 74.4316 941.579 Q63.2511 941.579 56.9317 936.07 Q50.6123 930.52 50.6123 920.758 Z" fill="#000000" fill-rule="evenodd" fill-opacity="1" /><path clip-path="url(#clip080)" d="M 0 0 M34.0441 892.118 L34.0441 884.664 L97.0762 884.664 L97.0762 892.118 L34.0441 892.118 Z" fill="#000000" fill-rule="evenodd" fill-opacity="1" /><path clip-path="url(#clip080)" d="M 0 0 M79.1712 877.616 L51.706 877.616 L51.706 870.162 L78.8876 870.162 Q85.3285 870.162 88.5693 867.65 Q91.7695 865.139 91.7695 860.116 Q91.7695 854.08 87.9211 850.596 Q84.0728 847.072 77.4293 847.072 L51.706 847.072 L51.706 839.618 L97.0762 839.618 L97.0762 847.072 L90.1086 847.072 Q94.2405 849.786 96.266 853.391 Q98.2509 856.956 98.2509 861.696 Q98.2509 869.514 93.3898 873.565 Q88.5287 877.616 79.1712 877.616 M50.6123 858.86 L50.6123 858.86 Z" fill="#000000" fill-rule="evenodd" fill-opacity="1" /><path clip-path="url(#clip080)" d="M 0 0 M60.4155 796.476 Q55.3924 793.681 53.0023 789.792 Q50.6123 785.903 50.6123 780.637 Q50.6123 773.548 55.5949 769.7 Q60.537 765.851 69.692 765.851 L97.0762 765.851 L97.0762 773.345 L69.9351 773.345 Q63.4131 773.345 60.2534 775.654 Q57.0937 777.963 57.0937 782.703 Q57.0937 788.496 60.9421 791.858 Q64.7905 795.22 71.4339 795.22 L97.0762 795.22 L97.0762 802.714 L69.9351 802.714 Q63.3726 802.714 60.2534 805.023 Q57.0937 807.332 57.0937 812.153 Q57.0937 817.865 60.9826 821.227 Q64.831 824.589 71.4339 824.589 L97.0762 824.589 L97.0762 832.084 L51.706 832.084 L51.706 824.589 L58.7546 824.589 Q54.5822 822.037 52.5972 818.472 Q50.6123 814.908 50.6123 810.006 Q50.6123 805.064 53.1238 801.621 Q55.6354 798.137 60.4155 796.476 Z" fill="#000000" fill-rule="evenodd" fill-opacity="1" /><path clip-path="url(#clip080)" d="M 0 0 M72.5277 719.225 L76.1735 719.225 L76.1735 753.496 Q83.8702 753.01 87.9211 748.878 Q91.9315 744.706 91.9315 737.292 Q91.9315 732.998 90.8783 728.988 Q89.825 724.937 87.7186 720.967 L94.7671 720.967 Q96.4685 724.978 97.3597 729.191 Q98.2509 733.403 98.2509 737.738 Q98.2509 748.594 91.9315 754.954 Q85.6121 761.274 74.8367 761.274 Q63.6967 761.274 57.1748 755.278 Q50.6123 749.243 50.6123 739.034 Q50.6123 729.879 56.5266 724.573 Q62.4004 719.225 72.5277 719.225 M70.3402 726.679 Q64.2233 726.76 60.5775 730.122 Q56.9317 733.444 56.9317 738.953 Q56.9317 745.192 60.456 748.959 Q63.9803 752.686 70.3807 753.253 L70.3402 726.679 Z" fill="#000000" fill-rule="evenodd" fill-opacity="1" /><path clip-path="url(#clip080)" d="M 0 0 M34.1251 667.131 Q43.4422 672.559 52.5567 675.192 Q61.6713 677.825 71.0288 677.825 Q80.3864 677.825 89.582 675.192 Q98.737 672.518 108.014 667.131 L108.014 673.612 Q98.494 679.688 89.2984 682.727 Q80.1029 685.724 71.0288 685.724 Q61.9953 685.724 52.8403 682.727 Q43.6852 679.729 34.1251 673.612 L34.1251 667.131 Z" fill="#000000" fill-rule="evenodd" fill-opacity="1" /><path clip-path="url(#clip080)" d="M 0 0 M60.4155 623.989 Q55.3924 621.193 53.0023 617.305 Q50.6123 613.416 50.6123 608.15 Q50.6123 601.06 55.5949 597.212 Q60.537 593.364 69.692 593.364 L97.0762 593.364 L97.0762 600.858 L69.9351 600.858 Q63.4131 600.858 60.2534 603.167 Q57.0937 605.476 57.0937 610.215 Q57.0937 616.008 60.9421 619.371 Q64.7905 622.733 71.4339 622.733 L97.0762 622.733 L97.0762 630.227 L69.9351 630.227 Q63.3726 630.227 60.2534 632.536 Q57.0937 634.845 57.0937 639.666 Q57.0937 645.377 60.9826 648.74 Q64.831 652.102 71.4339 652.102 L97.0762 652.102 L97.0762 659.596 L51.706 659.596 L51.706 652.102 L58.7546 652.102 Q54.5822 649.55 52.5972 645.985 Q50.6123 642.42 50.6123 637.519 Q50.6123 632.576 53.1238 629.133 Q55.6354 625.649 60.4155 623.989 Z" fill="#000000" fill-rule="evenodd" fill-opacity="1" /><path clip-path="url(#clip080)" d="M 0 0 M51.706 572.137 Q52.4352 568.41 54.6632 566.385 Q56.8507 564.319 60.1724 564.319 Q65.1955 564.319 67.9096 568.167 Q70.6238 572.015 70.6238 579.186 Q70.6238 581.495 70.2187 584.047 Q69.7731 586.558 68.9629 589.394 L64.0613 589.394 Q65.155 587.287 65.6816 584.897 Q66.2083 582.467 66.2083 579.753 Q66.2083 575.337 64.6284 572.907 Q63.0081 570.476 60.1724 570.476 Q57.1748 570.476 55.6354 572.745 Q54.0961 574.973 54.0961 579.348 L54.0961 582.831 L49.7211 582.831 L49.7211 579.024 Q49.7211 575.216 48.4653 573.271 Q47.169 571.286 44.7385 571.286 Q42.389 571.286 41.1737 573.312 Q39.9179 575.337 39.9179 579.186 Q39.9179 580.806 40.2825 582.872 Q40.6471 584.938 41.5788 588.219 L36.9202 588.219 Q36.2316 585.262 35.867 582.669 Q35.5024 580.077 35.5024 577.849 Q35.5024 572.015 37.8924 568.613 Q40.2825 565.169 44.2929 565.169 Q47.088 565.169 49.0324 566.992 Q50.9769 568.815 51.706 572.137 Z" fill="#000000" fill-rule="evenodd" fill-opacity="1" /><path clip-path="url(#clip080)" d="M 0 0 M34.1251 557.675 L34.1251 551.194 Q43.6852 545.117 52.8403 542.12 Q61.9953 539.082 71.0288 539.082 Q80.1029 539.082 89.2984 542.12 Q98.494 545.117 108.014 551.194 L108.014 557.675 Q98.737 552.288 89.582 549.654 Q80.3864 546.981 71.0288 546.981 Q61.6713 546.981 52.5567 549.654 Q43.4422 552.288 34.1251 557.675 Z" fill="#000000" fill-rule="evenodd" fill-opacity="1" /><g clip-path="url(#clip080)">
<text style="fill:#000000; fill-opacity:1; font-family:Times New Roman,TimesNewRoman,Times,Baskerville,Georgia,serif; font-size:130px; text-anchor:middle;" transform="rotate(0, 1322.4, 103.2)" x="1322.4" y="103.2">Optimal Design - Vᵗᵉˢ</text>
</g>
<polyline clip-path="url(#clip082)" style="stroke:#008000; stroke-width:8; stroke-opacity:1; fill:none" stroke-dasharray="32, 20" points="
  350.361,941.032 369.998,941.032 389.635,941.032 409.272,941.032 428.909,941.032 448.547,941.032 468.184,941.032 487.821,941.032 507.458,941.032 527.095,941.032 
  546.732,941.032 566.369,941.032 586.006,941.032 605.643,941.032 625.28,941.032 644.918,941.032 664.555,941.032 684.192,941.032 703.829,941.032 723.466,941.032 
  743.103,941.032 762.74,941.032 782.377,941.032 802.014,941.032 821.651,941.032 841.289,941.032 860.926,941.032 880.563,941.032 900.2,941.032 919.837,941.032 
  939.474,941.032 959.111,941.032 978.748,941.032 998.385,941.032 1018.02,941.032 1037.66,941.032 1057.3,941.032 1076.93,941.032 1096.57,941.032 1116.21,941.032 
  1135.84,941.032 1155.48,941.032 1175.12,941.032 1194.76,941.032 1214.39,941.032 1234.03,941.032 1253.67,941.032 1273.3,941.032 1292.94,941.032 1312.58,941.032 
  1332.22,941.032 1351.85,941.032 1371.49,941.032 1391.13,941.032 1410.76,941.032 1430.4,941.032 1450.04,941.032 1469.68,941.032 1489.31,941.032 1508.95,941.032 
  1528.59,941.032 1548.22,941.032 1567.86,941.032 1587.5,941.032 1607.14,941.032 1626.77,941.032 1646.41,941.032 1666.05,941.032 1685.68,941.032 1705.32,941.032 
  1724.96,941.032 1744.6,941.032 1764.23,941.032 1783.87,941.032 1803.51,941.032 1823.14,941.032 1842.78,941.032 1862.42,941.032 1882.05,941.032 1901.69,941.032 
  1921.33,941.032 1940.97,941.032 1960.6,941.032 1980.24,941.032 1999.88,941.032 2019.51,941.032 2039.15,941.032 2058.79,941.032 2078.43,941.032 2098.06,941.032 
  2117.7,941.032 2137.34,941.032 2156.97,941.032 2176.61,941.032 2196.25,941.032 2215.89,941.032 2235.52,941.032 2255.16,941.032 2274.8,941.032 2294.43,941.032 
  
  "/>
<polyline clip-path="url(#clip082)" style="stroke:#ff0000; stroke-width:8; stroke-opacity:1; fill:none" points="
  350.361,859.512 369.998,953.514 389.635,1016.07 409.272,1056.75 428.909,1079.11 448.547,1096.34 468.184,1102.63 487.821,1099.48 507.458,1090.53 527.095,1079.15 
  546.732,1067.58 566.369,1056.98 586.006,1047.67 605.643,1039.53 625.28,1032.31 644.918,1018.68 664.555,1007.32 684.192,1005.87 703.829,1005.21 723.466,1003.53 
  743.103,994.214 762.74,986.326 782.377,980.068 802.014,982.538 821.651,985.071 841.289,978.381 860.926,972.693 880.563,968.017 900.2,964.011 919.837,968.51 
  939.474,973.067 959.111,968.307 978.748,963.543 998.385,959.416 1018.02,955.901 1037.66,953.048 1057.3,958.921 1076.93,964.631 1096.57,961.191 1116.21,957.117 
  1135.84,953.474 1155.48,950.318 1175.12,947.782 1194.76,953.93 1214.39,959.981 1234.03,956.976 1253.67,953.222 1273.3,949.842 1292.94,946.937 1312.58,944.622 
  1332.22,950.932 1351.85,949.445 1371.49,947.313 1391.13,945.559 1410.76,944.061 1430.4,942.802 1450.04,941.855 1469.68,941.282 1489.31,941.065 1508.95,941.049 
  1528.59,941.117 1548.22,941.183 1567.86,941.213 1587.5,941.21 1607.14,941.195 1626.77,941.183 1646.41,941.18 1666.05,941.159 1685.68,941.153 1705.32,941.168 
  1724.96,941.166 1744.6,941.162 1764.23,941.164 1783.87,941.167 1803.51,941.169 1823.14,941.146 1842.78,941.132 1862.42,941.116 1882.05,941.121 1901.69,941.114 
  1921.33,941.112 1940.97,941.116 1960.6,941.121 1980.24,941.123 1999.88,941.122 2019.51,941.118 2039.15,941.112 2058.79,941.107 2078.43,941.102 2098.06,941.098 
  2117.7,941.094 2137.34,941.091 2156.97,941.087 2176.61,941.084 2196.25,941.081 2215.89,941.078 2235.52,941.075 2255.16,941.072 2274.8,941.069 2294.43,941.067 
  
  "/>
<circle clip-path="url(#clip082)" cx="350.361" cy="859.512" r="10" fill="#ff0000" fill-rule="evenodd" fill-opacity="1" stroke="#000000" stroke-opacity="1" stroke-width="0"/>
<circle clip-path="url(#clip082)" cx="369.998" cy="953.514" r="10" fill="#ff0000" fill-rule="evenodd" fill-opacity="1" stroke="#000000" stroke-opacity="1" stroke-width="0"/>
<circle clip-path="url(#clip082)" cx="389.635" cy="1016.07" r="10" fill="#ff0000" fill-rule="evenodd" fill-opacity="1" stroke="#000000" stroke-opacity="1" stroke-width="0"/>
<circle clip-path="url(#clip082)" cx="409.272" cy="1056.75" r="10" fill="#ff0000" fill-rule="evenodd" fill-opacity="1" stroke="#000000" stroke-opacity="1" stroke-width="0"/>
<circle clip-path="url(#clip082)" cx="428.909" cy="1079.11" r="10" fill="#ff0000" fill-rule="evenodd" fill-opacity="1" stroke="#000000" stroke-opacity="1" stroke-width="0"/>
<circle clip-path="url(#clip082)" cx="448.547" cy="1096.34" r="10" fill="#ff0000" fill-rule="evenodd" fill-opacity="1" stroke="#000000" stroke-opacity="1" stroke-width="0"/>
<circle clip-path="url(#clip082)" cx="468.184" cy="1102.63" r="10" fill="#ff0000" fill-rule="evenodd" fill-opacity="1" stroke="#000000" stroke-opacity="1" stroke-width="0"/>
<circle clip-path="url(#clip082)" cx="487.821" cy="1099.48" r="10" fill="#ff0000" fill-rule="evenodd" fill-opacity="1" stroke="#000000" stroke-opacity="1" stroke-width="0"/>
<circle clip-path="url(#clip082)" cx="507.458" cy="1090.53" r="10" fill="#ff0000" fill-rule="evenodd" fill-opacity="1" stroke="#000000" stroke-opacity="1" stroke-width="0"/>
<circle clip-path="url(#clip082)" cx="527.095" cy="1079.15" r="10" fill="#ff0000" fill-rule="evenodd" fill-opacity="1" stroke="#000000" stroke-opacity="1" stroke-width="0"/>
<circle clip-path="url(#clip082)" cx="546.732" cy="1067.58" r="10" fill="#ff0000" fill-rule="evenodd" fill-opacity="1" stroke="#000000" stroke-opacity="1" stroke-width="0"/>
<circle clip-path="url(#clip082)" cx="566.369" cy="1056.98" r="10" fill="#ff0000" fill-rule="evenodd" fill-opacity="1" stroke="#000000" stroke-opacity="1" stroke-width="0"/>
<circle clip-path="url(#clip082)" cx="586.006" cy="1047.67" r="10" fill="#ff0000" fill-rule="evenodd" fill-opacity="1" stroke="#000000" stroke-opacity="1" stroke-width="0"/>
<circle clip-path="url(#clip082)" cx="605.643" cy="1039.53" r="10" fill="#ff0000" fill-rule="evenodd" fill-opacity="1" stroke="#000000" stroke-opacity="1" stroke-width="0"/>
<circle clip-path="url(#clip082)" cx="625.28" cy="1032.31" r="10" fill="#ff0000" fill-rule="evenodd" fill-opacity="1" stroke="#000000" stroke-opacity="1" stroke-width="0"/>
<circle clip-path="url(#clip082)" cx="644.918" cy="1018.68" r="10" fill="#ff0000" fill-rule="evenodd" fill-opacity="1" stroke="#000000" stroke-opacity="1" stroke-width="0"/>
<circle clip-path="url(#clip082)" cx="664.555" cy="1007.32" r="10" fill="#ff0000" fill-rule="evenodd" fill-opacity="1" stroke="#000000" stroke-opacity="1" stroke-width="0"/>
<circle clip-path="url(#clip082)" cx="684.192" cy="1005.87" r="10" fill="#ff0000" fill-rule="evenodd" fill-opacity="1" stroke="#000000" stroke-opacity="1" stroke-width="0"/>
<circle clip-path="url(#clip082)" cx="703.829" cy="1005.21" r="10" fill="#ff0000" fill-rule="evenodd" fill-opacity="1" stroke="#000000" stroke-opacity="1" stroke-width="0"/>
<circle clip-path="url(#clip082)" cx="723.466" cy="1003.53" r="10" fill="#ff0000" fill-rule="evenodd" fill-opacity="1" stroke="#000000" stroke-opacity="1" stroke-width="0"/>
<circle clip-path="url(#clip082)" cx="743.103" cy="994.214" r="10" fill="#ff0000" fill-rule="evenodd" fill-opacity="1" stroke="#000000" stroke-opacity="1" stroke-width="0"/>
<circle clip-path="url(#clip082)" cx="762.74" cy="986.326" r="10" fill="#ff0000" fill-rule="evenodd" fill-opacity="1" stroke="#000000" stroke-opacity="1" stroke-width="0"/>
<circle clip-path="url(#clip082)" cx="782.377" cy="980.068" r="10" fill="#ff0000" fill-rule="evenodd" fill-opacity="1" stroke="#000000" stroke-opacity="1" stroke-width="0"/>
<circle clip-path="url(#clip082)" cx="802.014" cy="982.538" r="10" fill="#ff0000" fill-rule="evenodd" fill-opacity="1" stroke="#000000" stroke-opacity="1" stroke-width="0"/>
<circle clip-path="url(#clip082)" cx="821.651" cy="985.071" r="10" fill="#ff0000" fill-rule="evenodd" fill-opacity="1" stroke="#000000" stroke-opacity="1" stroke-width="0"/>
<circle clip-path="url(#clip082)" cx="841.289" cy="978.381" r="10" fill="#ff0000" fill-rule="evenodd" fill-opacity="1" stroke="#000000" stroke-opacity="1" stroke-width="0"/>
<circle clip-path="url(#clip082)" cx="860.926" cy="972.693" r="10" fill="#ff0000" fill-rule="evenodd" fill-opacity="1" stroke="#000000" stroke-opacity="1" stroke-width="0"/>
<circle clip-path="url(#clip082)" cx="880.563" cy="968.017" r="10" fill="#ff0000" fill-rule="evenodd" fill-opacity="1" stroke="#000000" stroke-opacity="1" stroke-width="0"/>
<circle clip-path="url(#clip082)" cx="900.2" cy="964.011" r="10" fill="#ff0000" fill-rule="evenodd" fill-opacity="1" stroke="#000000" stroke-opacity="1" stroke-width="0"/>
<circle clip-path="url(#clip082)" cx="919.837" cy="968.51" r="10" fill="#ff0000" fill-rule="evenodd" fill-opacity="1" stroke="#000000" stroke-opacity="1" stroke-width="0"/>
<circle clip-path="url(#clip082)" cx="939.474" cy="973.067" r="10" fill="#ff0000" fill-rule="evenodd" fill-opacity="1" stroke="#000000" stroke-opacity="1" stroke-width="0"/>
<circle clip-path="url(#clip082)" cx="959.111" cy="968.307" r="10" fill="#ff0000" fill-rule="evenodd" fill-opacity="1" stroke="#000000" stroke-opacity="1" stroke-width="0"/>
<circle clip-path="url(#clip082)" cx="978.748" cy="963.543" r="10" fill="#ff0000" fill-rule="evenodd" fill-opacity="1" stroke="#000000" stroke-opacity="1" stroke-width="0"/>
<circle clip-path="url(#clip082)" cx="998.385" cy="959.416" r="10" fill="#ff0000" fill-rule="evenodd" fill-opacity="1" stroke="#000000" stroke-opacity="1" stroke-width="0"/>
<circle clip-path="url(#clip082)" cx="1018.02" cy="955.901" r="10" fill="#ff0000" fill-rule="evenodd" fill-opacity="1" stroke="#000000" stroke-opacity="1" stroke-width="0"/>
<circle clip-path="url(#clip082)" cx="1037.66" cy="953.048" r="10" fill="#ff0000" fill-rule="evenodd" fill-opacity="1" stroke="#000000" stroke-opacity="1" stroke-width="0"/>
<circle clip-path="url(#clip082)" cx="1057.3" cy="958.921" r="10" fill="#ff0000" fill-rule="evenodd" fill-opacity="1" stroke="#000000" stroke-opacity="1" stroke-width="0"/>
<circle clip-path="url(#clip082)" cx="1076.93" cy="964.631" r="10" fill="#ff0000" fill-rule="evenodd" fill-opacity="1" stroke="#000000" stroke-opacity="1" stroke-width="0"/>
<circle clip-path="url(#clip082)" cx="1096.57" cy="961.191" r="10" fill="#ff0000" fill-rule="evenodd" fill-opacity="1" stroke="#000000" stroke-opacity="1" stroke-width="0"/>
<circle clip-path="url(#clip082)" cx="1116.21" cy="957.117" r="10" fill="#ff0000" fill-rule="evenodd" fill-opacity="1" stroke="#000000" stroke-opacity="1" stroke-width="0"/>
<circle clip-path="url(#clip082)" cx="1135.84" cy="953.474" r="10" fill="#ff0000" fill-rule="evenodd" fill-opacity="1" stroke="#000000" stroke-opacity="1" stroke-width="0"/>
<circle clip-path="url(#clip082)" cx="1155.48" cy="950.318" r="10" fill="#ff0000" fill-rule="evenodd" fill-opacity="1" stroke="#000000" stroke-opacity="1" stroke-width="0"/>
<circle clip-path="url(#clip082)" cx="1175.12" cy="947.782" r="10" fill="#ff0000" fill-rule="evenodd" fill-opacity="1" stroke="#000000" stroke-opacity="1" stroke-width="0"/>
<circle clip-path="url(#clip082)" cx="1194.76" cy="953.93" r="10" fill="#ff0000" fill-rule="evenodd" fill-opacity="1" stroke="#000000" stroke-opacity="1" stroke-width="0"/>
<circle clip-path="url(#clip082)" cx="1214.39" cy="959.981" r="10" fill="#ff0000" fill-rule="evenodd" fill-opacity="1" stroke="#000000" stroke-opacity="1" stroke-width="0"/>
<circle clip-path="url(#clip082)" cx="1234.03" cy="956.976" r="10" fill="#ff0000" fill-rule="evenodd" fill-opacity="1" stroke="#000000" stroke-opacity="1" stroke-width="0"/>
<circle clip-path="url(#clip082)" cx="1253.67" cy="953.222" r="10" fill="#ff0000" fill-rule="evenodd" fill-opacity="1" stroke="#000000" stroke-opacity="1" stroke-width="0"/>
<circle clip-path="url(#clip082)" cx="1273.3" cy="949.842" r="10" fill="#ff0000" fill-rule="evenodd" fill-opacity="1" stroke="#000000" stroke-opacity="1" stroke-width="0"/>
<circle clip-path="url(#clip082)" cx="1292.94" cy="946.937" r="10" fill="#ff0000" fill-rule="evenodd" fill-opacity="1" stroke="#000000" stroke-opacity="1" stroke-width="0"/>
<circle clip-path="url(#clip082)" cx="1312.58" cy="944.622" r="10" fill="#ff0000" fill-rule="evenodd" fill-opacity="1" stroke="#000000" stroke-opacity="1" stroke-width="0"/>
<circle clip-path="url(#clip082)" cx="1332.22" cy="950.932" r="10" fill="#ff0000" fill-rule="evenodd" fill-opacity="1" stroke="#000000" stroke-opacity="1" stroke-width="0"/>
<circle clip-path="url(#clip082)" cx="1351.85" cy="949.445" r="10" fill="#ff0000" fill-rule="evenodd" fill-opacity="1" stroke="#000000" stroke-opacity="1" stroke-width="0"/>
<circle clip-path="url(#clip082)" cx="1371.49" cy="947.313" r="10" fill="#ff0000" fill-rule="evenodd" fill-opacity="1" stroke="#000000" stroke-opacity="1" stroke-width="0"/>
<circle clip-path="url(#clip082)" cx="1391.13" cy="945.559" r="10" fill="#ff0000" fill-rule="evenodd" fill-opacity="1" stroke="#000000" stroke-opacity="1" stroke-width="0"/>
<circle clip-path="url(#clip082)" cx="1410.76" cy="944.061" r="10" fill="#ff0000" fill-rule="evenodd" fill-opacity="1" stroke="#000000" stroke-opacity="1" stroke-width="0"/>
<circle clip-path="url(#clip082)" cx="1430.4" cy="942.802" r="10" fill="#ff0000" fill-rule="evenodd" fill-opacity="1" stroke="#000000" stroke-opacity="1" stroke-width="0"/>
<circle clip-path="url(#clip082)" cx="1450.04" cy="941.855" r="10" fill="#ff0000" fill-rule="evenodd" fill-opacity="1" stroke="#000000" stroke-opacity="1" stroke-width="0"/>
<circle clip-path="url(#clip082)" cx="1469.68" cy="941.282" r="10" fill="#ff0000" fill-rule="evenodd" fill-opacity="1" stroke="#000000" stroke-opacity="1" stroke-width="0"/>
<circle clip-path="url(#clip082)" cx="1489.31" cy="941.065" r="10" fill="#ff0000" fill-rule="evenodd" fill-opacity="1" stroke="#000000" stroke-opacity="1" stroke-width="0"/>
<circle clip-path="url(#clip082)" cx="1508.95" cy="941.049" r="10" fill="#ff0000" fill-rule="evenodd" fill-opacity="1" stroke="#000000" stroke-opacity="1" stroke-width="0"/>
<circle clip-path="url(#clip082)" cx="1528.59" cy="941.117" r="10" fill="#ff0000" fill-rule="evenodd" fill-opacity="1" stroke="#000000" stroke-opacity="1" stroke-width="0"/>
<circle clip-path="url(#clip082)" cx="1548.22" cy="941.183" r="10" fill="#ff0000" fill-rule="evenodd" fill-opacity="1" stroke="#000000" stroke-opacity="1" stroke-width="0"/>
<circle clip-path="url(#clip082)" cx="1567.86" cy="941.213" r="10" fill="#ff0000" fill-rule="evenodd" fill-opacity="1" stroke="#000000" stroke-opacity="1" stroke-width="0"/>
<circle clip-path="url(#clip082)" cx="1587.5" cy="941.21" r="10" fill="#ff0000" fill-rule="evenodd" fill-opacity="1" stroke="#000000" stroke-opacity="1" stroke-width="0"/>
<circle clip-path="url(#clip082)" cx="1607.14" cy="941.195" r="10" fill="#ff0000" fill-rule="evenodd" fill-opacity="1" stroke="#000000" stroke-opacity="1" stroke-width="0"/>
<circle clip-path="url(#clip082)" cx="1626.77" cy="941.183" r="10" fill="#ff0000" fill-rule="evenodd" fill-opacity="1" stroke="#000000" stroke-opacity="1" stroke-width="0"/>
<circle clip-path="url(#clip082)" cx="1646.41" cy="941.18" r="10" fill="#ff0000" fill-rule="evenodd" fill-opacity="1" stroke="#000000" stroke-opacity="1" stroke-width="0"/>
<circle clip-path="url(#clip082)" cx="1666.05" cy="941.159" r="10" fill="#ff0000" fill-rule="evenodd" fill-opacity="1" stroke="#000000" stroke-opacity="1" stroke-width="0"/>
<circle clip-path="url(#clip082)" cx="1685.68" cy="941.153" r="10" fill="#ff0000" fill-rule="evenodd" fill-opacity="1" stroke="#000000" stroke-opacity="1" stroke-width="0"/>
<circle clip-path="url(#clip082)" cx="1705.32" cy="941.168" r="10" fill="#ff0000" fill-rule="evenodd" fill-opacity="1" stroke="#000000" stroke-opacity="1" stroke-width="0"/>
<circle clip-path="url(#clip082)" cx="1724.96" cy="941.166" r="10" fill="#ff0000" fill-rule="evenodd" fill-opacity="1" stroke="#000000" stroke-opacity="1" stroke-width="0"/>
<circle clip-path="url(#clip082)" cx="1744.6" cy="941.162" r="10" fill="#ff0000" fill-rule="evenodd" fill-opacity="1" stroke="#000000" stroke-opacity="1" stroke-width="0"/>
<circle clip-path="url(#clip082)" cx="1764.23" cy="941.164" r="10" fill="#ff0000" fill-rule="evenodd" fill-opacity="1" stroke="#000000" stroke-opacity="1" stroke-width="0"/>
<circle clip-path="url(#clip082)" cx="1783.87" cy="941.167" r="10" fill="#ff0000" fill-rule="evenodd" fill-opacity="1" stroke="#000000" stroke-opacity="1" stroke-width="0"/>
<circle clip-path="url(#clip082)" cx="1803.51" cy="941.169" r="10" fill="#ff0000" fill-rule="evenodd" fill-opacity="1" stroke="#000000" stroke-opacity="1" stroke-width="0"/>
<circle clip-path="url(#clip082)" cx="1823.14" cy="941.146" r="10" fill="#ff0000" fill-rule="evenodd" fill-opacity="1" stroke="#000000" stroke-opacity="1" stroke-width="0"/>
<circle clip-path="url(#clip082)" cx="1842.78" cy="941.132" r="10" fill="#ff0000" fill-rule="evenodd" fill-opacity="1" stroke="#000000" stroke-opacity="1" stroke-width="0"/>
<circle clip-path="url(#clip082)" cx="1862.42" cy="941.116" r="10" fill="#ff0000" fill-rule="evenodd" fill-opacity="1" stroke="#000000" stroke-opacity="1" stroke-width="0"/>
<circle clip-path="url(#clip082)" cx="1882.05" cy="941.121" r="10" fill="#ff0000" fill-rule="evenodd" fill-opacity="1" stroke="#000000" stroke-opacity="1" stroke-width="0"/>
<circle clip-path="url(#clip082)" cx="1901.69" cy="941.114" r="10" fill="#ff0000" fill-rule="evenodd" fill-opacity="1" stroke="#000000" stroke-opacity="1" stroke-width="0"/>
<circle clip-path="url(#clip082)" cx="1921.33" cy="941.112" r="10" fill="#ff0000" fill-rule="evenodd" fill-opacity="1" stroke="#000000" stroke-opacity="1" stroke-width="0"/>
<circle clip-path="url(#clip082)" cx="1940.97" cy="941.116" r="10" fill="#ff0000" fill-rule="evenodd" fill-opacity="1" stroke="#000000" stroke-opacity="1" stroke-width="0"/>
<circle clip-path="url(#clip082)" cx="1960.6" cy="941.121" r="10" fill="#ff0000" fill-rule="evenodd" fill-opacity="1" stroke="#000000" stroke-opacity="1" stroke-width="0"/>
<circle clip-path="url(#clip082)" cx="1980.24" cy="941.123" r="10" fill="#ff0000" fill-rule="evenodd" fill-opacity="1" stroke="#000000" stroke-opacity="1" stroke-width="0"/>
<circle clip-path="url(#clip082)" cx="1999.88" cy="941.122" r="10" fill="#ff0000" fill-rule="evenodd" fill-opacity="1" stroke="#000000" stroke-opacity="1" stroke-width="0"/>
<circle clip-path="url(#clip082)" cx="2019.51" cy="941.118" r="10" fill="#ff0000" fill-rule="evenodd" fill-opacity="1" stroke="#000000" stroke-opacity="1" stroke-width="0"/>
<circle clip-path="url(#clip082)" cx="2039.15" cy="941.112" r="10" fill="#ff0000" fill-rule="evenodd" fill-opacity="1" stroke="#000000" stroke-opacity="1" stroke-width="0"/>
<circle clip-path="url(#clip082)" cx="2058.79" cy="941.107" r="10" fill="#ff0000" fill-rule="evenodd" fill-opacity="1" stroke="#000000" stroke-opacity="1" stroke-width="0"/>
<circle clip-path="url(#clip082)" cx="2078.43" cy="941.102" r="10" fill="#ff0000" fill-rule="evenodd" fill-opacity="1" stroke="#000000" stroke-opacity="1" stroke-width="0"/>
<circle clip-path="url(#clip082)" cx="2098.06" cy="941.098" r="10" fill="#ff0000" fill-rule="evenodd" fill-opacity="1" stroke="#000000" stroke-opacity="1" stroke-width="0"/>
<circle clip-path="url(#clip082)" cx="2117.7" cy="941.094" r="10" fill="#ff0000" fill-rule="evenodd" fill-opacity="1" stroke="#000000" stroke-opacity="1" stroke-width="0"/>
<circle clip-path="url(#clip082)" cx="2137.34" cy="941.091" r="10" fill="#ff0000" fill-rule="evenodd" fill-opacity="1" stroke="#000000" stroke-opacity="1" stroke-width="0"/>
<circle clip-path="url(#clip082)" cx="2156.97" cy="941.087" r="10" fill="#ff0000" fill-rule="evenodd" fill-opacity="1" stroke="#000000" stroke-opacity="1" stroke-width="0"/>
<circle clip-path="url(#clip082)" cx="2176.61" cy="941.084" r="10" fill="#ff0000" fill-rule="evenodd" fill-opacity="1" stroke="#000000" stroke-opacity="1" stroke-width="0"/>
<circle clip-path="url(#clip082)" cx="2196.25" cy="941.081" r="10" fill="#ff0000" fill-rule="evenodd" fill-opacity="1" stroke="#000000" stroke-opacity="1" stroke-width="0"/>
<circle clip-path="url(#clip082)" cx="2215.89" cy="941.078" r="10" fill="#ff0000" fill-rule="evenodd" fill-opacity="1" stroke="#000000" stroke-opacity="1" stroke-width="0"/>
<circle clip-path="url(#clip082)" cx="2235.52" cy="941.075" r="10" fill="#ff0000" fill-rule="evenodd" fill-opacity="1" stroke="#000000" stroke-opacity="1" stroke-width="0"/>
<circle clip-path="url(#clip082)" cx="2255.16" cy="941.072" r="10" fill="#ff0000" fill-rule="evenodd" fill-opacity="1" stroke="#000000" stroke-opacity="1" stroke-width="0"/>
<circle clip-path="url(#clip082)" cx="2274.8" cy="941.069" r="10" fill="#ff0000" fill-rule="evenodd" fill-opacity="1" stroke="#000000" stroke-opacity="1" stroke-width="0"/>
<circle clip-path="url(#clip082)" cx="2294.43" cy="941.067" r="10" fill="#ff0000" fill-rule="evenodd" fill-opacity="1" stroke="#000000" stroke-opacity="1" stroke-width="0"/>
<path clip-path="url(#clip080)" d="
M1510.15 417.761 L2356.96 417.761 L2356.96 145.601 L1510.15 145.601  Z
  " fill="#ffffff" fill-rule="evenodd" fill-opacity="1"/>
<polyline clip-path="url(#clip080)" style="stroke:#000000; stroke-width:4; stroke-opacity:1; fill:none" points="
  1510.15,417.761 2356.96,417.761 2356.96,145.601 1510.15,145.601 1510.15,417.761 
  "/>
<polyline clip-path="url(#clip080)" style="stroke:#008000; stroke-width:6; stroke-opacity:1; fill:none" stroke-dasharray="24, 15" points="
  1533.05,236.321 1670.43,236.321 
  "/>
<path clip-path="url(#clip080)" d="M 0 0 M1735.13 214.394 L1735.13 221.79 Q1731.59 218.491 1727.56 216.859 Q1723.57 215.228 1719.06 215.228 Q1710.17 215.228 1705.44 220.679 Q1700.72 226.096 1700.72 236.373 Q1700.72 246.616 1705.44 252.068 Q1710.17 257.484 1719.06 257.484 Q1723.57 257.484 1727.56 255.852 Q1731.59 254.22 1735.13 250.922 L1735.13 258.248 Q1731.45 260.748 1727.32 261.998 Q1723.22 263.248 1718.64 263.248 Q1706.87 263.248 1700.1 256.061 Q1693.33 248.838 1693.33 236.373 Q1693.33 223.873 1700.1 216.686 Q1706.87 209.464 1718.64 209.464 Q1723.29 209.464 1727.39 210.714 Q1731.52 211.929 1735.13 214.394 Z" fill="#000000" fill-rule="evenodd" fill-opacity="1" /><path clip-path="url(#clip080)" d="M 0 0 M1775.1 241.2 L1775.1 244.325 L1745.72 244.325 Q1746.14 250.922 1749.68 254.394 Q1753.26 257.831 1759.61 257.831 Q1763.29 257.831 1766.73 256.929 Q1770.2 256.026 1773.6 254.22 L1773.6 260.262 Q1770.17 261.72 1766.56 262.484 Q1762.94 263.248 1759.23 263.248 Q1749.92 263.248 1744.47 257.831 Q1739.06 252.415 1739.06 243.179 Q1739.06 233.63 1744.19 228.04 Q1749.37 222.415 1758.12 222.415 Q1765.96 222.415 1770.51 227.484 Q1775.1 232.519 1775.1 241.2 M1768.71 239.325 Q1768.64 234.082 1765.76 230.957 Q1762.91 227.832 1758.19 227.832 Q1752.84 227.832 1749.61 230.852 Q1746.42 233.873 1745.93 239.359 L1768.71 239.325 Z" fill="#000000" fill-rule="evenodd" fill-opacity="1" /><path clip-path="url(#clip080)" d="M 0 0 M1814.12 238.769 L1814.12 262.241 L1807.74 262.241 L1807.74 238.977 Q1807.74 233.457 1805.58 230.714 Q1803.43 227.971 1799.12 227.971 Q1793.95 227.971 1790.96 231.269 Q1787.98 234.568 1787.98 240.262 L1787.98 262.241 L1781.56 262.241 L1781.56 223.352 L1787.98 223.352 L1787.98 229.394 Q1790.27 225.887 1793.36 224.151 Q1796.49 222.415 1800.55 222.415 Q1807.25 222.415 1810.69 226.582 Q1814.12 230.714 1814.12 238.769 Z" fill="#000000" fill-rule="evenodd" fill-opacity="1" /><path clip-path="url(#clip080)" d="M 0 0 M1827.15 212.311 L1827.15 223.352 L1840.3 223.352 L1840.3 228.318 L1827.15 228.318 L1827.15 249.429 Q1827.15 254.186 1828.43 255.54 Q1829.75 256.894 1833.74 256.894 L1840.3 256.894 L1840.3 262.241 L1833.74 262.241 Q1826.35 262.241 1823.53 259.498 Q1820.72 256.72 1820.72 249.429 L1820.72 228.318 L1816.03 228.318 L1816.03 223.352 L1820.72 223.352 L1820.72 212.311 L1827.15 212.311 Z" fill="#000000" fill-rule="evenodd" fill-opacity="1" /><path clip-path="url(#clip080)" d="M 0 0 M1869.54 229.325 Q1868.46 228.7 1867.18 228.422 Q1865.93 228.109 1864.4 228.109 Q1858.99 228.109 1856.07 231.651 Q1853.19 235.158 1853.19 241.755 L1853.19 262.241 L1846.76 262.241 L1846.76 223.352 L1853.19 223.352 L1853.19 229.394 Q1855.2 225.852 1858.43 224.151 Q1861.66 222.415 1866.28 222.415 Q1866.94 222.415 1867.74 222.519 Q1868.53 222.589 1869.51 222.762 L1869.54 229.325 Z" fill="#000000" fill-rule="evenodd" fill-opacity="1" /><path clip-path="url(#clip080)" d="M 0 0 M1893.92 242.693 Q1886.17 242.693 1883.19 244.463 Q1880.2 246.234 1880.2 250.505 Q1880.2 253.908 1882.42 255.922 Q1884.68 257.901 1888.53 257.901 Q1893.85 257.901 1897.04 254.151 Q1900.27 250.366 1900.27 244.116 L1900.27 242.693 L1893.92 242.693 M1906.66 240.054 L1906.66 262.241 L1900.27 262.241 L1900.27 256.338 Q1898.08 259.88 1894.82 261.581 Q1891.55 263.248 1886.83 263.248 Q1880.86 263.248 1877.32 259.915 Q1873.81 256.547 1873.81 250.922 Q1873.81 244.359 1878.19 241.026 Q1882.6 237.693 1891.31 237.693 L1900.27 237.693 L1900.27 237.068 Q1900.27 232.658 1897.35 230.262 Q1894.47 227.832 1889.23 227.832 Q1885.89 227.832 1882.74 228.63 Q1879.58 229.429 1876.66 231.026 L1876.66 225.123 Q1880.17 223.769 1883.46 223.109 Q1886.76 222.415 1889.89 222.415 Q1898.33 222.415 1902.49 226.79 Q1906.66 231.165 1906.66 240.054 Z" fill="#000000" fill-rule="evenodd" fill-opacity="1" /><path clip-path="url(#clip080)" d="M 0 0 M1913.36 208.214 L1919.75 208.214 L1919.75 262.241 L1913.36 262.241 L1913.36 208.214 Z" fill="#000000" fill-rule="evenodd" fill-opacity="1" /><path clip-path="url(#clip080)" d="M 0 0 M1926.45 223.352 L1932.84 223.352 L1932.84 262.241 L1926.45 262.241 L1926.45 223.352 M1926.45 208.214 L1932.84 208.214 L1932.84 216.304 L1926.45 216.304 L1926.45 208.214 Z" fill="#000000" fill-rule="evenodd" fill-opacity="1" /><path clip-path="url(#clip080)" d="M 0 0 M1936.76 223.352 L1967.11 223.352 L1967.11 229.186 L1943.08 257.137 L1967.11 257.137 L1967.11 262.241 L1935.89 262.241 L1935.89 256.408 L1959.92 228.457 L1936.76 228.457 L1936.76 223.352 Z" fill="#000000" fill-rule="evenodd" fill-opacity="1" /><path clip-path="url(#clip080)" d="M 0 0 M2007.07 241.2 L2007.07 244.325 L1977.7 244.325 Q1978.12 250.922 1981.66 254.394 Q1985.23 257.831 1991.59 257.831 Q1995.27 257.831 1998.71 256.929 Q2002.18 256.026 2005.58 254.22 L2005.58 260.262 Q2002.14 261.72 1998.53 262.484 Q1994.92 263.248 1991.21 263.248 Q1981.9 263.248 1976.45 257.831 Q1971.03 252.415 1971.03 243.179 Q1971.03 233.63 1976.17 228.04 Q1981.35 222.415 1990.1 222.415 Q1997.94 222.415 2002.49 227.484 Q2007.07 232.519 2007.07 241.2 M2000.69 239.325 Q2000.62 234.082 1997.73 230.957 Q1994.89 227.832 1990.17 227.832 Q1984.82 227.832 1981.59 230.852 Q1978.39 233.873 1977.91 239.359 L2000.69 239.325 Z" fill="#000000" fill-rule="evenodd" fill-opacity="1" /><path clip-path="url(#clip080)" d="M 0 0 M2039.37 229.255 L2039.37 208.214 L2045.76 208.214 L2045.76 262.241 L2039.37 262.241 L2039.37 256.408 Q2037.35 259.88 2034.26 261.581 Q2031.21 263.248 2026.9 263.248 Q2019.85 263.248 2015.41 257.623 Q2011 251.998 2011 242.832 Q2011 233.665 2015.41 228.04 Q2019.85 222.415 2026.9 222.415 Q2031.21 222.415 2034.26 224.116 Q2037.35 225.783 2039.37 229.255 M2017.6 242.832 Q2017.6 249.88 2020.48 253.908 Q2023.39 257.901 2028.46 257.901 Q2033.53 257.901 2036.45 253.908 Q2039.37 249.88 2039.37 242.832 Q2039.37 235.783 2036.45 231.79 Q2033.53 227.762 2028.46 227.762 Q2023.39 227.762 2020.48 231.79 Q2017.6 235.783 2017.6 242.832 Z" fill="#000000" fill-rule="evenodd" fill-opacity="1" /><path clip-path="url(#clip080)" d="M 0 0 M2099.85 224.498 L2099.85 230.54 Q2097.14 229.151 2094.23 228.457 Q2091.31 227.762 2088.19 227.762 Q2083.43 227.762 2081.03 229.221 Q2078.67 230.679 2078.67 233.595 Q2078.67 235.818 2080.37 237.102 Q2082.07 238.352 2087.21 239.498 L2089.4 239.984 Q2096.21 241.443 2099.05 244.116 Q2101.94 246.755 2101.94 251.512 Q2101.94 256.929 2097.63 260.088 Q2093.36 263.248 2085.86 263.248 Q2082.73 263.248 2079.33 262.623 Q2075.96 262.033 2072.21 260.818 L2072.21 254.22 Q2075.75 256.061 2079.19 256.998 Q2082.63 257.901 2086 257.901 Q2090.51 257.901 2092.94 256.373 Q2095.37 254.811 2095.37 251.998 Q2095.37 249.394 2093.6 248.005 Q2091.87 246.616 2085.93 245.332 L2083.71 244.811 Q2077.77 243.561 2075.13 240.991 Q2072.49 238.387 2072.49 233.873 Q2072.49 228.387 2076.38 225.401 Q2080.27 222.415 2087.42 222.415 Q2090.96 222.415 2094.09 222.936 Q2097.21 223.457 2099.85 224.498 Z" fill="#000000" fill-rule="evenodd" fill-opacity="1" /><path clip-path="url(#clip080)" d="M 0 0 M2123.71 227.832 Q2118.57 227.832 2115.58 231.859 Q2112.6 235.852 2112.6 242.832 Q2112.6 249.811 2115.55 253.838 Q2118.53 257.831 2123.71 257.831 Q2128.81 257.831 2131.8 253.804 Q2134.78 249.776 2134.78 242.832 Q2134.78 235.922 2131.8 231.894 Q2128.81 227.832 2123.71 227.832 M2123.71 222.415 Q2132.04 222.415 2136.8 227.832 Q2141.55 233.248 2141.55 242.832 Q2141.55 252.38 2136.8 257.831 Q2132.04 263.248 2123.71 263.248 Q2115.34 263.248 2110.58 257.831 Q2105.86 252.38 2105.86 242.832 Q2105.86 233.248 2110.58 227.832 Q2115.34 222.415 2123.71 222.415 Z" fill="#000000" fill-rule="evenodd" fill-opacity="1" /><path clip-path="url(#clip080)" d="M 0 0 M2148.25 208.214 L2154.64 208.214 L2154.64 262.241 L2148.25 262.241 L2148.25 208.214 Z" fill="#000000" fill-rule="evenodd" fill-opacity="1" /><path clip-path="url(#clip080)" d="M 0 0 M2160.69 246.894 L2160.69 223.352 L2167.07 223.352 L2167.07 246.651 Q2167.07 252.172 2169.23 254.95 Q2171.38 257.693 2175.68 257.693 Q2180.86 257.693 2183.84 254.394 Q2186.87 251.095 2186.87 245.401 L2186.87 223.352 L2193.25 223.352 L2193.25 262.241 L2186.87 262.241 L2186.87 256.269 Q2184.54 259.811 2181.45 261.547 Q2178.39 263.248 2174.33 263.248 Q2167.63 263.248 2164.16 259.081 Q2160.69 254.915 2160.69 246.894 M2176.76 222.415 L2176.76 222.415 Z" fill="#000000" fill-rule="evenodd" fill-opacity="1" /><path clip-path="url(#clip080)" d="M 0 0 M2206.28 212.311 L2206.28 223.352 L2219.43 223.352 L2219.43 228.318 L2206.28 228.318 L2206.28 249.429 Q2206.28 254.186 2207.56 255.54 Q2208.88 256.894 2212.87 256.894 L2219.43 256.894 L2219.43 262.241 L2212.87 262.241 Q2205.48 262.241 2202.66 259.498 Q2199.85 256.72 2199.85 249.429 L2199.85 228.318 L2195.16 228.318 L2195.16 223.352 L2199.85 223.352 L2199.85 212.311 L2206.28 212.311 Z" fill="#000000" fill-rule="evenodd" fill-opacity="1" /><path clip-path="url(#clip080)" d="M 0 0 M2226.14 223.352 L2232.52 223.352 L2232.52 262.241 L2226.14 262.241 L2226.14 223.352 M2226.14 208.214 L2232.52 208.214 L2232.52 216.304 L2226.14 216.304 L2226.14 208.214 Z" fill="#000000" fill-rule="evenodd" fill-opacity="1" /><path clip-path="url(#clip080)" d="M 0 0 M2254.3 227.832 Q2249.16 227.832 2246.17 231.859 Q2243.18 235.852 2243.18 242.832 Q2243.18 249.811 2246.14 253.838 Q2249.12 257.831 2254.3 257.831 Q2259.4 257.831 2262.39 253.804 Q2265.37 249.776 2265.37 242.832 Q2265.37 235.922 2262.39 231.894 Q2259.4 227.832 2254.3 227.832 M2254.3 222.415 Q2262.63 222.415 2267.39 227.832 Q2272.14 233.248 2272.14 242.832 Q2272.14 252.38 2267.39 257.831 Q2262.63 263.248 2254.3 263.248 Q2245.93 263.248 2241.17 257.831 Q2236.45 252.38 2236.45 242.832 Q2236.45 233.248 2241.17 227.832 Q2245.93 222.415 2254.3 222.415 Z" fill="#000000" fill-rule="evenodd" fill-opacity="1" /><path clip-path="url(#clip080)" d="M 0 0 M2311.17 238.769 L2311.17 262.241 L2304.78 262.241 L2304.78 238.977 Q2304.78 233.457 2302.63 230.714 Q2300.48 227.971 2296.17 227.971 Q2291 227.971 2288.01 231.269 Q2285.02 234.568 2285.02 240.262 L2285.02 262.241 L2278.6 262.241 L2278.6 223.352 L2285.02 223.352 L2285.02 229.394 Q2287.32 225.887 2290.41 224.151 Q2293.53 222.415 2297.59 222.415 Q2304.3 222.415 2307.73 226.582 Q2311.17 230.714 2311.17 238.769 Z" fill="#000000" fill-rule="evenodd" fill-opacity="1" /><polyline clip-path="url(#clip080)" style="stroke:#ff0000; stroke-width:6; stroke-opacity:1; fill:none" points="
  1533.05,327.041 1670.43,327.041 
  "/>
<circle clip-path="url(#clip080)" cx="1601.74" cy="327.041" r="34" fill="#ff0000" fill-rule="evenodd" fill-opacity="1" stroke="#000000" stroke-opacity="1" stroke-width="0"/>
<path clip-path="url(#clip080)" d="M 0 0 M1700.34 306.885 L1700.34 347.197 L1708.81 347.197 Q1719.54 347.197 1724.51 342.336 Q1729.51 337.475 1729.51 326.989 Q1729.51 316.572 1724.51 311.746 Q1719.54 306.885 1708.81 306.885 L1700.34 306.885 M1693.33 301.121 L1707.74 301.121 Q1722.81 301.121 1729.85 307.406 Q1736.9 313.656 1736.9 326.989 Q1736.9 340.392 1729.82 346.676 Q1722.74 352.961 1707.74 352.961 L1693.33 352.961 L1693.33 301.121 Z" fill="#000000" fill-rule="evenodd" fill-opacity="1" /><path clip-path="url(#clip080)" d="M 0 0 M1743.6 314.072 L1749.99 314.072 L1749.99 352.961 L1743.6 352.961 L1743.6 314.072 M1743.6 298.934 L1749.99 298.934 L1749.99 307.024 L1743.6 307.024 L1743.6 298.934 Z" fill="#000000" fill-rule="evenodd" fill-opacity="1" /><path clip-path="url(#clip080)" d="M 0 0 M1781.49 315.218 L1781.49 321.26 Q1778.78 319.871 1775.86 319.177 Q1772.94 318.482 1769.82 318.482 Q1765.06 318.482 1762.67 319.941 Q1760.31 321.399 1760.31 324.315 Q1760.31 326.538 1762.01 327.822 Q1763.71 329.072 1768.85 330.218 L1771.03 330.704 Q1777.84 332.163 1780.69 334.836 Q1783.57 337.475 1783.57 342.232 Q1783.57 347.649 1779.26 350.808 Q1774.99 353.968 1767.49 353.968 Q1764.37 353.968 1760.96 353.343 Q1757.6 352.753 1753.85 351.538 L1753.85 344.94 Q1757.39 346.781 1760.83 347.718 Q1764.26 348.621 1767.63 348.621 Q1772.15 348.621 1774.58 347.093 Q1777.01 345.531 1777.01 342.718 Q1777.01 340.114 1775.24 338.725 Q1773.5 337.336 1767.56 336.052 L1765.34 335.531 Q1759.4 334.281 1756.76 331.711 Q1754.12 329.107 1754.12 324.593 Q1754.12 319.107 1758.01 316.121 Q1761.9 313.135 1769.06 313.135 Q1772.6 313.135 1775.72 313.656 Q1778.85 314.177 1781.49 315.218 Z" fill="#000000" fill-rule="evenodd" fill-opacity="1" /><path clip-path="url(#clip080)" d="M 0 0 M1796.59 303.031 L1796.59 314.072 L1809.75 314.072 L1809.75 319.038 L1796.59 319.038 L1796.59 340.149 Q1796.59 344.906 1797.87 346.26 Q1799.19 347.614 1803.19 347.614 L1809.75 347.614 L1809.75 352.961 L1803.19 352.961 Q1795.79 352.961 1792.98 350.218 Q1790.17 347.44 1790.17 340.149 L1790.17 319.038 L1785.48 319.038 L1785.48 314.072 L1790.17 314.072 L1790.17 303.031 L1796.59 303.031 Z" fill="#000000" fill-rule="evenodd" fill-opacity="1" /><path clip-path="url(#clip080)" d="M 0 0 M1838.99 320.045 Q1837.91 319.42 1836.62 319.142 Q1835.37 318.829 1833.85 318.829 Q1828.43 318.829 1825.51 322.371 Q1822.63 325.878 1822.63 332.475 L1822.63 352.961 L1816.21 352.961 L1816.21 314.072 L1822.63 314.072 L1822.63 320.114 Q1824.65 316.572 1827.87 314.871 Q1831.1 313.135 1835.72 313.135 Q1836.38 313.135 1837.18 313.239 Q1837.98 313.309 1838.95 313.482 L1838.99 320.045 Z" fill="#000000" fill-rule="evenodd" fill-opacity="1" /><path clip-path="url(#clip080)" d="M 0 0 M1845.69 314.072 L1852.08 314.072 L1852.08 352.961 L1845.69 352.961 L1845.69 314.072 M1845.69 298.934 L1852.08 298.934 L1852.08 307.024 L1845.69 307.024 L1845.69 298.934 Z" fill="#000000" fill-rule="evenodd" fill-opacity="1" /><path clip-path="url(#clip080)" d="M 0 0 M1886.69 333.552 Q1886.69 326.503 1883.78 322.51 Q1880.89 318.482 1875.83 318.482 Q1870.76 318.482 1867.84 322.51 Q1864.96 326.503 1864.96 333.552 Q1864.96 340.6 1867.84 344.628 Q1870.76 348.621 1875.83 348.621 Q1880.89 348.621 1883.78 344.628 Q1886.69 340.6 1886.69 333.552 M1864.96 319.975 Q1866.97 316.503 1870.03 314.836 Q1873.12 313.135 1877.39 313.135 Q1884.47 313.135 1888.88 318.76 Q1893.33 324.385 1893.33 333.552 Q1893.33 342.718 1888.88 348.343 Q1884.47 353.968 1877.39 353.968 Q1873.12 353.968 1870.03 352.301 Q1866.97 350.6 1864.96 347.128 L1864.96 352.961 L1858.53 352.961 L1858.53 298.934 L1864.96 298.934 L1864.96 319.975 Z" fill="#000000" fill-rule="evenodd" fill-opacity="1" /><path clip-path="url(#clip080)" d="M 0 0 M1899.37 337.614 L1899.37 314.072 L1905.76 314.072 L1905.76 337.371 Q1905.76 342.892 1907.91 345.67 Q1910.06 348.413 1914.37 348.413 Q1919.54 348.413 1922.53 345.114 Q1925.55 341.815 1925.55 336.121 L1925.55 314.072 L1931.94 314.072 L1931.94 352.961 L1925.55 352.961 L1925.55 346.989 Q1923.22 350.531 1920.13 352.267 Q1917.08 353.968 1913.01 353.968 Q1906.31 353.968 1902.84 349.801 Q1899.37 345.635 1899.37 337.614 M1915.44 313.135 L1915.44 313.135 Z" fill="#000000" fill-rule="evenodd" fill-opacity="1" /><path clip-path="url(#clip080)" d="M 0 0 M1944.96 303.031 L1944.96 314.072 L1958.12 314.072 L1958.12 319.038 L1944.96 319.038 L1944.96 340.149 Q1944.96 344.906 1946.24 346.26 Q1947.56 347.614 1951.55 347.614 L1958.12 347.614 L1958.12 352.961 L1951.55 352.961 Q1944.16 352.961 1941.35 350.218 Q1938.53 347.44 1938.53 340.149 L1938.53 319.038 L1933.85 319.038 L1933.85 314.072 L1938.53 314.072 L1938.53 303.031 L1944.96 303.031 Z" fill="#000000" fill-rule="evenodd" fill-opacity="1" /><path clip-path="url(#clip080)" d="M 0 0 M1998.08 331.92 L1998.08 335.045 L1968.71 335.045 Q1969.12 341.642 1972.67 345.114 Q1976.24 348.551 1982.6 348.551 Q1986.28 348.551 1989.71 347.649 Q1993.19 346.746 1996.59 344.94 L1996.59 350.982 Q1993.15 352.44 1989.54 353.204 Q1985.93 353.968 1982.21 353.968 Q1972.91 353.968 1967.46 348.551 Q1962.04 343.135 1962.04 333.899 Q1962.04 324.35 1967.18 318.76 Q1972.35 313.135 1981.1 313.135 Q1988.95 313.135 1993.5 318.204 Q1998.08 323.239 1998.08 331.92 M1991.69 330.045 Q1991.62 324.802 1988.74 321.677 Q1985.89 318.552 1981.17 318.552 Q1975.82 318.552 1972.6 321.572 Q1969.4 324.593 1968.92 330.079 L1991.69 330.045 Z" fill="#000000" fill-rule="evenodd" fill-opacity="1" /><path clip-path="url(#clip080)" d="M 0 0 M2030.37 319.975 L2030.37 298.934 L2036.76 298.934 L2036.76 352.961 L2030.37 352.961 L2030.37 347.128 Q2028.36 350.6 2025.27 352.301 Q2022.21 353.968 2017.91 353.968 Q2010.86 353.968 2006.42 348.343 Q2002.01 342.718 2002.01 333.552 Q2002.01 324.385 2006.42 318.76 Q2010.86 313.135 2017.91 313.135 Q2022.21 313.135 2025.27 314.836 Q2028.36 316.503 2030.37 319.975 M2008.6 333.552 Q2008.6 340.6 2011.48 344.628 Q2014.4 348.621 2019.47 348.621 Q2024.54 348.621 2027.46 344.628 Q2030.37 340.6 2030.37 333.552 Q2030.37 326.503 2027.46 322.51 Q2024.54 318.482 2019.47 318.482 Q2014.4 318.482 2011.48 322.51 Q2008.6 326.503 2008.6 333.552 Z" fill="#000000" fill-rule="evenodd" fill-opacity="1" /><path clip-path="url(#clip080)" d="M 0 0 M2090.86 315.218 L2090.86 321.26 Q2088.15 319.871 2085.23 319.177 Q2082.32 318.482 2079.19 318.482 Q2074.44 318.482 2072.04 319.941 Q2069.68 321.399 2069.68 324.315 Q2069.68 326.538 2071.38 327.822 Q2073.08 329.072 2078.22 330.218 L2080.41 330.704 Q2087.21 332.163 2090.06 334.836 Q2092.94 337.475 2092.94 342.232 Q2092.94 347.649 2088.64 350.808 Q2084.37 353.968 2076.87 353.968 Q2073.74 353.968 2070.34 353.343 Q2066.97 352.753 2063.22 351.538 L2063.22 344.94 Q2066.76 346.781 2070.2 347.718 Q2073.64 348.621 2077 348.621 Q2081.52 348.621 2083.95 347.093 Q2086.38 345.531 2086.38 342.718 Q2086.38 340.114 2084.61 338.725 Q2082.87 337.336 2076.94 336.052 L2074.71 335.531 Q2068.78 334.281 2066.14 331.711 Q2063.5 329.107 2063.5 324.593 Q2063.5 319.107 2067.39 316.121 Q2071.28 313.135 2078.43 313.135 Q2081.97 313.135 2085.1 313.656 Q2088.22 314.177 2090.86 315.218 Z" fill="#000000" fill-rule="evenodd" fill-opacity="1" /><path clip-path="url(#clip080)" d="M 0 0 M2114.71 318.552 Q2109.57 318.552 2106.59 322.579 Q2103.6 326.572 2103.6 333.552 Q2103.6 340.531 2106.55 344.558 Q2109.54 348.551 2114.71 348.551 Q2119.82 348.551 2122.8 344.524 Q2125.79 340.496 2125.79 333.552 Q2125.79 326.642 2122.8 322.614 Q2119.82 318.552 2114.71 318.552 M2114.71 313.135 Q2123.05 313.135 2127.8 318.552 Q2132.56 323.968 2132.56 333.552 Q2132.56 343.1 2127.8 348.551 Q2123.05 353.968 2114.71 353.968 Q2106.35 353.968 2101.59 348.551 Q2096.87 343.1 2096.87 333.552 Q2096.87 323.968 2101.59 318.552 Q2106.35 313.135 2114.71 313.135 Z" fill="#000000" fill-rule="evenodd" fill-opacity="1" /><path clip-path="url(#clip080)" d="M 0 0 M2139.26 298.934 L2145.65 298.934 L2145.65 352.961 L2139.26 352.961 L2139.26 298.934 Z" fill="#000000" fill-rule="evenodd" fill-opacity="1" /><path clip-path="url(#clip080)" d="M 0 0 M2151.69 337.614 L2151.69 314.072 L2158.08 314.072 L2158.08 337.371 Q2158.08 342.892 2160.23 345.67 Q2162.39 348.413 2166.69 348.413 Q2171.87 348.413 2174.85 345.114 Q2177.87 341.815 2177.87 336.121 L2177.87 314.072 L2184.26 314.072 L2184.26 352.961 L2177.87 352.961 L2177.87 346.989 Q2175.55 350.531 2172.46 352.267 Q2169.4 353.968 2165.34 353.968 Q2158.64 353.968 2155.16 349.801 Q2151.69 345.635 2151.69 337.614 M2167.77 313.135 L2167.77 313.135 Z" fill="#000000" fill-rule="evenodd" fill-opacity="1" /><path clip-path="url(#clip080)" d="M 0 0 M2197.28 303.031 L2197.28 314.072 L2210.44 314.072 L2210.44 319.038 L2197.28 319.038 L2197.28 340.149 Q2197.28 344.906 2198.57 346.26 Q2199.89 347.614 2203.88 347.614 L2210.44 347.614 L2210.44 352.961 L2203.88 352.961 Q2196.48 352.961 2193.67 350.218 Q2190.86 347.44 2190.86 340.149 L2190.86 319.038 L2186.17 319.038 L2186.17 314.072 L2190.86 314.072 L2190.86 303.031 L2197.28 303.031 Z" fill="#000000" fill-rule="evenodd" fill-opacity="1" /><path clip-path="url(#clip080)" d="M 0 0 M2217.14 314.072 L2223.53 314.072 L2223.53 352.961 L2217.14 352.961 L2217.14 314.072 M2217.14 298.934 L2223.53 298.934 L2223.53 307.024 L2217.14 307.024 L2217.14 298.934 Z" fill="#000000" fill-rule="evenodd" fill-opacity="1" /><path clip-path="url(#clip080)" d="M 0 0 M2245.3 318.552 Q2240.16 318.552 2237.18 322.579 Q2234.19 326.572 2234.19 333.552 Q2234.19 340.531 2237.14 344.558 Q2240.13 348.551 2245.3 348.551 Q2250.41 348.551 2253.39 344.524 Q2256.38 340.496 2256.38 333.552 Q2256.38 326.642 2253.39 322.614 Q2250.41 318.552 2245.3 318.552 M2245.3 313.135 Q2253.64 313.135 2258.39 318.552 Q2263.15 323.968 2263.15 333.552 Q2263.15 343.1 2258.39 348.551 Q2253.64 353.968 2245.3 353.968 Q2236.93 353.968 2232.18 348.551 Q2227.46 343.1 2227.46 333.552 Q2227.46 323.968 2232.18 318.552 Q2236.93 313.135 2245.3 313.135 Z" fill="#000000" fill-rule="evenodd" fill-opacity="1" /><path clip-path="url(#clip080)" d="M 0 0 M2302.18 329.489 L2302.18 352.961 L2295.79 352.961 L2295.79 329.697 Q2295.79 324.177 2293.64 321.434 Q2291.48 318.691 2287.18 318.691 Q2282 318.691 2279.02 321.989 Q2276.03 325.288 2276.03 330.982 L2276.03 352.961 L2269.61 352.961 L2269.61 314.072 L2276.03 314.072 L2276.03 320.114 Q2278.32 316.607 2281.41 314.871 Q2284.54 313.135 2288.6 313.135 Q2295.3 313.135 2298.74 317.302 Q2302.18 321.434 2302.18 329.489 Z" fill="#000000" fill-rule="evenodd" fill-opacity="1" /></svg>
